<?xml version="1.0" standalone="no"?>
<!DOCTYPE svg PUBLIC "-//W3C//DTD SVG 1.1//EN" "http://www.w3.org/Graphics/SVG/1.1/DTD/svg11.dtd" >
<svg xmlns="http://www.w3.org/2000/svg">
<metadata>
This is a custom SVG webfont generated by Font Squirrel.
Copyright   : Copyright c 2011 Cyreal wwwcyrealorgwith Reserved Font Name Volkhov and Volkhov Bold ItalicThis Font Software is licensed under the SIL Open Font LicenseVersion 11 This license is available with a FAQ athttpscriptssilorgOFL
Designer    : Cyreal wwwcyrealorg
Foundry     : Cyreal wwwcyrealorg
Foundry URL : httpcyrealorg
</metadata>
<defs>
<font id="VolkhovBoldItalic" horiz-adv-x="1497" >
<font-face units-per-em="2048" ascent="1638" descent="-410" />
<missing-glyph horiz-adv-x="477" />
<glyph unicode=" "  horiz-adv-x="477" />
<glyph unicode="&#x09;" horiz-adv-x="477" />
<glyph unicode="&#xa0;" horiz-adv-x="477" />
<glyph unicode="!" horiz-adv-x="620" d="M39 161.5q0 69.5 52 122t124 52.5t123 -51.5t51 -122.5q0 -70 -51 -123t-123 -53q-70 0 -123 53t-53 122.5zM168 426l209 1008h264l-291 -1008h-182z" />
<glyph unicode="&#x22;" horiz-adv-x="774" d="M231 967l52 481h254l-162 -481h-144zM584 967l51 481h254l-164 -481h-141z" />
<glyph unicode="#" horiz-adv-x="1171" d="M49 0l152 391h-150l39 170h178l140 352h-191l39 170h217l143 367h172l-145 -367h209l143 367h172l-145 -367h168l-37 -170h-197l-139 -352h207l-37 -170h-237l-154 -391h-170l154 391h-209l-154 -391h-168zM438 561h209l139 352h-208z" />
<glyph unicode="$" horiz-adv-x="1179" d="M8 82l115 377h110v-309q68 -27 158 -33l131 530q-68 49 -104.5 82t-84.5 85t-69.5 110.5t-21.5 128.5q0 176 136 278.5t343 114.5l37 145h157l-36 -147q160 -12 276 -60l-113 -376h-108v299q-45 8 -88 8l-127 -504q92 -68 146.5 -115t103.5 -132t49 -181 q0 -182 -137.5 -282.5t-366.5 -112.5l-39 -158h-156l39 160q-211 18 -350 92zM473 1104q0 -94 115 -193l98 396q-92 -18 -152.5 -68.5t-60.5 -134.5zM549 127q217 47 217 215q0 104 -113 203z" />
<glyph unicode="%" horiz-adv-x="1538" d="M195 977q0 195 109.5 334t281.5 139q102 0 161.5 -56.5t59.5 -164.5q0 -195 -109.5 -334t-281.5 -139q-100 0 -160.5 56t-60.5 165zM199 0l1032 1434h176l-1030 -1434h-178zM387 965q0 -136 53 -136q80 0 128 133.5t48 278.5q0 133 -53 133q-80 0 -128 -127t-48 -282z M788 205q0 195 110 334t282 139q102 0 161.5 -56.5t59.5 -164.5q0 -195 -109.5 -334t-281.5 -139q-100 0 -161 56t-61 165zM981 193q0 -136 53 -136q74 0 125 135.5t51 276.5q0 133 -53 133q-74 0 -125 -129t-51 -280z" />
<glyph unicode="&#x26;" horiz-adv-x="1560" d="M31 350q0 197 151.5 333t374.5 163v4q-121 16 -184.5 91t-63.5 167q0 152 133 247t373 95q164 0 261.5 -52t97.5 -143q0 -88 -73 -133t-190 -45q-18 0 -26 2q23 68 22 123q0 59 -31.5 102.5t-89.5 43.5q-90 0 -143 -76t-53 -191q0 -190 207 -190l-13 -123 q-168 -6 -316.5 -112.5t-148.5 -280.5q0 -113 68 -172.5t184 -59.5q348 0 553 353h-37q-209 0 -269 -18q-82 -24 -156 -111l-68 47q123 256 524 256h68q250 0 297 143q37 -18 63.5 -56t26.5 -85q0 -78 -66.5 -127t-195.5 -49h-58q-117 -229 -308 -370.5t-456 -141.5 q-223 0 -340.5 103t-117.5 263z" />
<glyph unicode="'" horiz-adv-x="417" d="M229 969l54 481h252l-162 -481h-144z" />
<glyph unicode="(" horiz-adv-x="696" d="M4 166q0 422 226.5 824.5t598.5 658.5l64 -86q-643 -567 -643 -1428q0 -362 156 -680l-87 -78q-315 311 -315 789z" />
<glyph unicode=")" horiz-adv-x="700" d="M-240 -537q643 567 643 1407q0 387 -155 701l88 78q145 -145 229 -354.5t84 -454.5q0 -420 -225 -812.5t-598 -650.5z" />
<glyph unicode="*" horiz-adv-x="999" d="M236 1190l67 205l254 -111l-29 272h217l-28 -272l252 107l67 -201l-270 -60l184 -210l-174 -129l-139 243l-135 -243l-180 129l186 213z" />
<glyph unicode="+" horiz-adv-x="1142" d="M133 647v168h385v385h166v-385h389v-168h-389v-387h-166v387h-385z" />
<glyph unicode="," horiz-adv-x="528" d="M-139 -264q170 139 239 307l-116 119q0 72 52 123t124 51q74 0 124 -50t50 -124q0 -152 -132.5 -295t-273.5 -217z" />
<glyph unicode="-" horiz-adv-x="733" d="M131 467v186h447v-186h-447z" />
<glyph unicode="." horiz-adv-x="524" d="M-12 161.5q0 71.5 52 123t124 51.5t123 -51.5t51 -123t-51 -123.5t-123 -52t-124 52t-52 123.5z" />
<glyph unicode="/" horiz-adv-x="935" d="M-78 0l957 1434h194l-956 -1434h-195z" />
<glyph unicode="0" horiz-adv-x="1296" d="M104 449q0 256 90.5 483t265.5 372.5t394 145.5q195 0 294 -122t99 -339q0 -268 -90 -495.5t-263 -367.5t-394 -140q-199 0 -297.5 127t-98.5 336zM381 414q0 -324 145 -324q129 0 235.5 158t158 367.5t51.5 406.5q0 319 -146 319q-131 0 -235.5 -147t-156.5 -356 t-52 -424z" />
<glyph unicode="1" horiz-adv-x="724" d="M102 0l312 1217l-224 -91l-16 95l463 229h102l-362 -1450h-275z" />
<glyph unicode="2" horiz-adv-x="1105" d="M-45 0l29 123q92 98 223 236.5t189.5 201t140 153.5t114.5 136t70 105.5t48 104.5t11 93q0 190 -149 190q-74 0 -115 -56t-41 -148q0 -41 19 -125q-35 -6 -80 -6q-78 0 -136.5 43t-58.5 129q0 127 117 198.5t303 71.5t300 -84t114 -225q0 -70 -28 -140.5t-63.5 -127 t-120.5 -143.5t-147.5 -145.5t-199 -181t-224.5 -204.5h459l135 200h127l-139 -399h-897z" />
<glyph unicode="3" horiz-adv-x="1130" d="M-27 115l47 102q195 -94 340 -94q152 0 252.5 88t100.5 217q0 256 -301 268l30 123q156 20 249 115.5t93 239.5q0 80 -41 127t-104 47q-76 0 -121 -49.5t-45 -139.5q0 -51 14 -106q-41 -8 -69 -9q-78 0 -135.5 38t-57.5 118q0 106 112 178t298 72q199 0 308.5 -80 t109.5 -221q0 -139 -107.5 -246.5t-281.5 -144.5v-4q154 -14 240.5 -103.5t86.5 -216.5q0 -199 -150.5 -323.5t-398.5 -124.5q-254 0 -469 129z" />
<glyph unicode="4" horiz-adv-x="1134" d="M-41 362l29 109l956 977h162l-229 -920h151l-41 -166h-151l-91 -362h-260l90 362h-616zM246 528h370l125 496z" />
<glyph unicode="5" horiz-adv-x="1060" d="M-78 72l68 98q96 -51 239 -51q182 0 309.5 121.5t127.5 302.5q0 111 -67 175t-185 64q-37 0 -78 -4t-63 -7l-21 -3l-49 37l209 629h407q129 0 175 15t93 64l84 -30q-39 -84 -66.5 -127t-73.5 -85t-109.5 -57.5t-159.5 -15.5h-291l-94 -293q100 33 201 33q186 0 280 -98.5 t94 -253.5q0 -238 -198.5 -419t-489.5 -181q-209 2 -342 86z" />
<glyph unicode="6" horiz-adv-x="1142" d="M76 403q0 389 279.5 693.5t711.5 353.5l14 -117q-467 -121 -675 -557q166 111 317 111q164 0 246 -95.5t82 -250.5q0 -246 -161 -400.5t-417 -154.5q-184 0 -290.5 111.5t-106.5 305.5zM264 586l4 4zM324 408q0 -137 47 -218t131 -81q111 0 188.5 118.5t77.5 266.5 q0 104 -46 165.5t-136 61.5q-96 0 -211 -64q-14 -6 -19 -10q-33 -119 -32 -239z" />
<glyph unicode="7" horiz-adv-x="933" d="M115 0q223 588 721 1186h-488l-96 -142h-102l133 390h825l-29 -129q-463 -606 -682 -1305h-282z" />
<glyph unicode="8" horiz-adv-x="1175" d="M72 264q0 268 362 492q-150 135 -149 286q0 174 142 291t339 117q168 0 268.5 -70.5t100.5 -197.5t-81 -225.5t-229 -184.5q180 -158 181 -332q0 -197 -158 -325.5t-397 -128.5q-162 0 -270.5 68.5t-108.5 209.5zM303 299q0 -84 52.5 -139.5t142.5 -55.5q117 0 198.5 74 t81.5 168q0 47 -16.5 88t-62.5 88t-69.5 67.5t-94.5 80.5q-231 -176 -232 -371zM516 1135q0 -41 16.5 -80t54.5 -79t62.5 -61.5t75.5 -62.5q190 143 190 301q0 82 -53 128t-133 46q-86 0 -149.5 -55t-63.5 -137z" />
<glyph unicode="9" horiz-adv-x="1142" d="M119 100q465 121 674 555q-168 -109 -316 -108q-164 0 -245.5 95t-81.5 251q0 246 160.5 400.5t416.5 154.5q184 0 290.5 -111.5t106.5 -306.5q0 -389 -279.5 -693t-711.5 -353zM432 940q0 -104 46 -165.5t136 -61.5q96 0 211 63l17 8q35 117 35 242q0 137 -47.5 218 t-131.5 81q-111 0 -188.5 -119t-77.5 -266zM930 844q2 0 6 4z" />
<glyph unicode=":" horiz-adv-x="636" d="M29 160q0 72 51 124t123 52q74 0 124 -51.5t50 -124.5q0 -70 -51.5 -122t-122.5 -52q-70 0 -122 52t-52 122zM203 807q0 72 52 123t124 51q74 0 124 -51t50 -123t-50 -124t-124 -52q-72 0 -124 53t-52 123z" />
<glyph unicode=";" horiz-adv-x="634" d="M-90 -264q170 139 242 307l-117 119q0 72 52 123t122 51q74 0 124 -49t50 -125q0 -152 -132.5 -295t-273.5 -217zM215 807q0 72 52 123t124 51q74 0 124 -51t50 -123t-50 -124t-124 -52q-72 0 -124 53t-52 123z" />
<glyph unicode="&#x3c;" horiz-adv-x="1189" d="M125 657v150l879 473v-195l-654 -354l654 -350v-195z" />
<glyph unicode="=" horiz-adv-x="1308" d="M195 457v168h940v-168h-940zM195 797v168h940v-168h-940z" />
<glyph unicode="&#x3e;" horiz-adv-x="1185" d="M248 186v195l653 350l-653 354v195l878 -473v-150z" />
<glyph unicode="?" horiz-adv-x="999" d="M219 161.5q0 71.5 52.5 123t124 51.5t122.5 -51.5t51 -123t-51 -123.5t-122.5 -52t-124 52t-52.5 123.5zM236 1217q0 109 114.5 171t315.5 62q170 0 275.5 -71.5t105.5 -200.5q0 -98 -62.5 -174t-153 -124.5t-180.5 -90t-152.5 -94t-62.5 -113.5q0 -35 20.5 -56.5 t53.5 -21.5q51 0 102 39l62 -78q-78 -78 -187 -78q-94 0 -155.5 55.5t-61.5 143.5q0 78 37 140t92.5 102t121 83t120.5 81t92 94.5t37 125.5q0 61 -35 96t-94 35q-66 0 -106.5 -52t-40.5 -144q0 -49 14 -115q-272 0 -272 185z" />
<glyph unicode="@" horiz-adv-x="1814" d="M111 475q0 408 272 691.5t698 283.5q295 0 493 -168t198 -430q0 -297 -214.5 -480.5t-545.5 -183.5q-60 1 -60 48q0 39 25 94q-135 -141 -291 -142q-88 0 -138 52.5t-50 158.5q0 276 191.5 479t432.5 203q180 0 318 -80l-242 -692q195 37 323 184.5t128 348.5 q0 225 -161 362t-411 137q-221 0 -394 -121.5t-262 -313t-89 -412.5q0 -283 165 -447t439 -164q184 0 381 76l41 -78q-217 -121 -484 -121q-207 0 -376.5 78t-278 243t-108.5 394zM739 446q0 -112 66 -112q104 0 237 166l168 481q-35 6 -71 6q-156 0 -278 -162.5 t-122 -378.5zM1120 612l10 17z" />
<glyph unicode="A" horiz-adv-x="1357" d="M-168 0l23 84l186 45l778 1305h170l94 -1307l162 -43l-20 -84h-578l23 84l155 37l-20 280h-404l-163 -274l161 -43l-22 -84h-545zM479 532h316l-35 467z" />
<glyph unicode="B" horiz-adv-x="1286" d="M-76 0l29 104l190 46l283 1134l-164 45l25 105h534q393 0 393 -301q0 -141 -95 -243t-242 -138l-3 -7q125 -20 198 -101t73 -202q0 -209 -167 -325.5t-409 -116.5h-645zM412 156h125q139 2 235 86t96 213q0 102 -60 160.5t-171 58.5h-94zM575 813h68q125 2 210 90t85 215 q0 162 -178 162h-68z" />
<glyph unicode="C" horiz-adv-x="1267" d="M94 489q0 178 60.5 349.5t169 307.5t273.5 220t355 84q111 0 210.5 -20.5t144.5 -40.5l45 -21l-95 -379h-120l-13 305q-57 16 -123 17q-268 0 -451 -237.5t-183 -571.5q0 -180 73.5 -274.5t194.5 -94.5q86 0 149 19l236 311h119l-146 -377q-174 -100 -411 -100 q-248 0 -368 140t-120 363z" />
<glyph unicode="D" horiz-adv-x="1439" d="M-70 0l23 104l186 46l287 1134l-166 45l27 105h504q305 0 455.5 -132.5t150.5 -373.5q0 -219 -76 -397.5t-208 -293t-305 -176t-374 -61.5h-504zM408 147h53q268 0 465.5 222.5t197.5 566.5q0 172 -98 261t-270 89h-64z" />
<glyph unicode="E" horiz-adv-x="1210" d="M-72 0l23 100l192 50l283 1134l-164 47l25 103h993l-104 -420h-117l-15 272h-352l-119 -485l375 41l-49 -213l-360 37l-129 -519h338l223 295h119l-166 -442h-996z" />
<glyph unicode="F" horiz-adv-x="1124" d="M-72 0l27 104l188 46l283 1134l-168 45l27 105h993l-104 -420h-119l-13 272h-350l-123 -485l387 43l-53 -217l-364 39l-129 -516l206 -46l-24 -104h-664z" />
<glyph unicode="G" horiz-adv-x="1400" d="M94 483q0 403 256 685t658 282q188 0 381 -80l-95 -379h-118l-15 314q-61 12 -137 12q-287 0 -469 -245t-182 -576q0 -178 96 -274.5t250 -96.5q68 0 121 12l94 379l-201 70l19 84h628l-18 -84l-164 -72l-106 -428q-211 -100 -449 -100q-246 0 -397.5 123.5t-151.5 373.5 z" />
<glyph unicode="H" horiz-adv-x="1576" d="M-72 0l29 104l184 43l285 1135l-168 47l27 105h624l-24 -105l-191 -45l-125 -496h533l125 494l-164 47l24 105h619l-25 -105l-188 -43l-285 -1136l170 -46l-26 -104h-621l29 104l182 43l129 515h-534l-127 -512l172 -46l-27 -104h-627z" />
<glyph unicode="I" horiz-adv-x="776" d="M-72 0l27 104l188 46l281 1134l-166 45l27 105h622l-26 -105l-191 -45l-280 -1134l168 -46l-27 -104h-623z" />
<glyph unicode="J" horiz-adv-x="735" d="M-176 -217q127 86 209 203.5t133 320.5l244 975l-166 47l28 105h619l-27 -105l-186 -43l-244 -979q-55 -219 -217 -384t-352 -249z" />
<glyph unicode="K" horiz-adv-x="1402" d="M-70 0l27 104l186 46l283 1134l-166 45l25 105h624l-26 -105l-191 -47l-280 -1135l168 -43l-27 -104h-623zM602 745l512 541l-117 43l25 105h528l-26 -105l-176 -41l-490 -502l98 -256q96 -250 149.5 -315t194.5 -111l-28 -118q-236 0 -351.5 100t-211.5 367z" />
<glyph unicode="L" horiz-adv-x="1148" d="M-72 0l27 104l188 46l283 1132l-168 47l27 105h622l-24 -105l-191 -47l-284 -1135h350l211 295h118l-165 -442h-994z" />
<glyph unicode="M" horiz-adv-x="1933" d="M-104 0l26 104l197 50l344 1132l-160 43l27 105h422l155 -1037l658 1037h454l-26 -105l-181 -41l-223 -1138l178 -46l-28 -104h-621l27 104l178 43l184 924l-690 -1081h-108l-164 1083l-275 -926l162 -43l-26 -104h-510z" />
<glyph unicode="N" horiz-adv-x="1474" d="M-72 0l25 104l188 46l283 1132l-164 47l25 105h321l453 -961l201 811l-164 45l26 105h506l-24 -105l-193 -45l-317 -1284h-97l-485 1030l-219 -883l166 -43l-25 -104h-506z" />
<glyph unicode="O" d="M92 477q0 252 103.5 472t302 360.5t446.5 140.5q252 0 385 -134t133 -360q0 -250 -102.5 -470t-300 -360t-447.5 -140q-254 0 -387 133t-133 358zM373 457q0 -156 62.5 -248t193.5 -92q135 0 244.5 82t175 212t100.5 277.5t35 288.5q0 156 -64.5 249t-195.5 93 q-133 0 -242 -83t-174.5 -214t-100 -277.5t-34.5 -287.5z" />
<glyph unicode="P" horiz-adv-x="1220" d="M-72 0l27 104l188 46l285 1134l-168 45l27 105h547q205 0 321.5 -90.5t116.5 -266.5q0 -256 -173 -401.5t-444 -145.5q-76 0 -147 11l-100 -398l227 -39l-27 -104h-680zM543 676q20 -2 65 -2q176 0 281.5 111.5t105.5 285.5q0 223 -247 223h-52z" />
<glyph unicode="Q" horiz-adv-x="1499" d="M94 477q0 252 103.5 472t302 360.5t446.5 140.5q252 0 385 -134t133 -360q0 -338 -184 -609t-487 -341l57 -16q68 -18 223.5 -103.5t241.5 -85.5q104 0 217 107l82 -47q-76 -154 -155 -222.5t-175 -68.5q-86 0 -177 57.5t-157.5 128t-162 140t-185.5 90.5 q-248 4 -378 136t-130 355zM375 457q0 -156 62.5 -248t193.5 -92q135 0 244.5 82t175 212t100.5 277.5t35 288.5q0 156 -64.5 249t-195.5 93q-133 0 -242 -83t-174.5 -214t-100 -277.5t-34.5 -287.5z" />
<glyph unicode="R" horiz-adv-x="1331" d="M-72 0l27 104l188 46l285 1132l-168 47l25 105h546q441 0 441 -322q0 -188 -109.5 -304t-281.5 -136l57 -197q49 -172 108.5 -262t190.5 -131l-25 -96q-229 6 -344.5 111.5t-177.5 305.5l-69 224h-93l-118 -477l168 -46l-25 -104h-625zM561 760h62q147 0 259.5 92 t112.5 256q0 186 -219 186h-80z" />
<glyph unicode="S" horiz-adv-x="1134" d="M-6 82l115 377h100v-314q93 -28 182 -28h6q150 0 237 57t87 168q0 74 -51.5 139.5t-125 118.5t-147 112.5t-125 146.5t-51.5 194q0 188 150.5 292.5t380.5 104.5q233 0 389 -66l-113 -376h-98v295q-86 14 -148 14q-121 0 -207 -50t-86 -163q0 -61 53.5 -125t130.5 -121 t152.5 -122.5t129 -157t53.5 -195.5q0 -186 -141.5 -291.5t-434.5 -105.5q-252 0 -438 96z" />
<glyph unicode="T" horiz-adv-x="1206" d="M145 0l25 104l188 46l285 1136h-240l-153 -287h-100l108 435h1106l-109 -435h-98l-10 287h-240l-284 -1136l168 -46l-27 -104h-619z" />
<glyph unicode="U" d="M174 346q0 84 31 205l180 733l-164 45l27 105h622l-26 -105l-191 -45l-184 -733q-27 -111 -27 -174q0 -96 65.5 -159.5t190.5 -63.5q154 0 264.5 107.5t155.5 289.5l182 733l-161 45l24 105h506l-27 -105l-190 -43l-182 -735q-139 -565 -647 -565q-215 0 -332 90 t-117 270z" />
<glyph unicode="V" horiz-adv-x="1349" d="M164 1329l26 105h580l-27 -105l-149 -35l70 -921l505 913l-139 43l29 105h504l-27 -105l-195 -45l-720 -1298h-189l-100 1296z" />
<glyph unicode="W" horiz-adv-x="1966" d="M164 1329l24 105h584l-27 -105l-159 -37l39 -870l514 1012h170l55 -1002l418 856l-144 41l27 105h504l-25 -105l-194 -45l-635 -1298h-187l-55 989l-500 -989h-186l-59 1298z" />
<glyph unicode="X" horiz-adv-x="1368" d="M-156 0l25 104l205 50l514 573l-195 551l-176 51l25 105h563l-25 -105l-121 -31l140 -389l329 383l-137 37l25 105h538l-22 -105l-211 -49l-467 -530l211 -600l176 -46l-24 -104h-566l25 104l119 29l-152 434l-373 -426l138 -37l-25 -104h-539z" />
<glyph unicode="Y" horiz-adv-x="1284" d="M152 1329l26 105h555l-24 -105l-125 -24l161 -469l359 454l-146 39l27 105h504l-29 -105l-170 -51l-487 -610l-129 -518l180 -46l-25 -104h-620l24 104l175 46l127 518l-218 616z" />
<glyph unicode="Z" horiz-adv-x="1255" d="M-76 0l31 127l997 1159h-487l-143 -272h-99l105 420h1013l-30 -127l-1000 -1160h527l206 295h101l-166 -442h-1055z" />
<glyph unicode="[" horiz-adv-x="684" d="M-33 -262l453 1818h457l-27 -116h-238l-395 -1585h238l-29 -117h-459z" />
<glyph unicode="\" horiz-adv-x="743" d="M319 -248v1804h134v-1804h-134z" />
<glyph unicode="]" horiz-adv-x="686" d="M-168 -262l27 117h237l396 1585h-238l29 116h458l-452 -1818h-457z" />
<glyph unicode="^" horiz-adv-x="1144" d="M213 547l633 917h102l178 -917h-157l-123 690l-463 -690h-170z" />
<glyph unicode="_" horiz-adv-x="1562" d="M104 -145h940v-146h-940v146z" />
<glyph unicode="`" horiz-adv-x="452" d="M-84 1528q103 86 234 102l161 -397l-116 -57z" />
<glyph unicode="a" horiz-adv-x="1196" d="M35 281q0 324 196.5 540.5t481.5 216.5q201 0 368 -94l-202 -782h200v-86q-158 -43 -248 -66q-83 -24 -152 -24h-5q-76 0 -76 67q0 33 12 78l11 39q-162 -184 -349 -184q-109 0 -173 75.5t-64 219.5zM307 301q0 -154 86 -154q70 0 149 72t136 172l139 527q-31 10 -90 10 q-166 0 -293 -196.5t-127 -430.5z" />
<glyph unicode="b" horiz-adv-x="1142" d="M16 80l363 1399h-199v84q168 43 266 69q82 20 127 21q86 0 86 -68q0 -25 -12 -78l-168 -653q162 184 348 184q109 0 173.5 -75.5t64.5 -219.5q0 -324 -196.5 -540.5t-481.5 -216.5q-203 0 -371 94zM283 106q31 -10 90 -10q166 0 293 196.5t127 430.5q0 154 -86 154 q-70 0 -149 -72t-136 -172z" />
<glyph unicode="c" horiz-adv-x="958" d="M35 348q0 166 74.5 321.5t227 262t349.5 106.5q123 0 199 -44t76 -122q0 -80 -66 -129t-162 -49q-8 43 -16 101.5t-12 76.5q-6 39 -20.5 51.5t-39.5 12.5q-121 0 -225.5 -163t-104.5 -408q0 -254 205 -254q111 0 248 55l27 -80q-68 -35 -113 -52.5t-119 -32.5t-160 -15 q-172 0 -270 94t-98 268z" />
<glyph unicode="d" horiz-adv-x="1191" d="M35 281q0 332 199.5 544.5t476.5 212.5q71 0 123 -12l108 451h-197v86q135 37 224 59q131 31 168 31q88 0 88 -62q0 -29 -23 -114l-323 -1315h192v-86q-111 -33 -211 -56q-139 -34 -184 -34h-2q-78 0 -78 63q0 37 16 92l6 31q-162 -186 -358 -186q-94 0 -159.5 72.5 t-65.5 222.5zM305 317q0 -170 84 -170q74 0 150.5 70t138.5 180l129 523q-31 8 -76 8q-119 0 -220 -102.5t-153.5 -242t-52.5 -266.5z" />
<glyph unicode="e" horiz-adv-x="985" d="M33 332q0 131 44 255t125 225t209 163.5t281 62.5q137 0 207 -58t70 -146q0 -170 -176.5 -281t-485.5 -160v-41q0 -111 49.5 -176t145.5 -65q113 0 256 51l26 -78q-182 -98 -391 -98q-170 0 -265 89t-95 257zM317 504q391 152 392 350q0 82 -80 82q-100 0 -192.5 -126 t-119.5 -306z" />
<glyph unicode="f" horiz-adv-x="759" d="M-627 -453q0 133 187 226q6 -20 22.5 -64.5t22.5 -62t20.5 -50t24.5 -47t26.5 -32t35 -23.5t40.5 -6q84 0 157 94t118 283l254 1044h-154l25 88l153 13l39 164q111 479 600 479q178 0 264 -48.5t86 -131.5q0 -66 -51 -126.5t-133 -97.5l-20 52q-13 36 -18 50.5t-17.5 43 t-20.5 41t-20.5 33t-23.5 29.5t-26.5 19.5t-32 14.5t-36.5 4q-39 0 -74 -13.5t-78 -53t-82.5 -128t-72.5 -219.5l-25 -98l299 25l-35 -140h-290l-254 -1048q-119 -492 -576 -492q-150 0 -242 45t-92 133z" />
<glyph unicode="g" horiz-adv-x="1138" d="M-106 -449q0 133 186 222q65 -194 102 -240q36 -45 86 -45q33 0 60.5 10t70.5 47t84 130.5t76 236.5l66 264q-168 -190 -361 -190q-98 0 -163.5 71.5t-65.5 223.5q0 326 197.5 541.5t478.5 215.5q199 0 364 -94l-272 -1083q-123 -492 -578 -492q-150 0 -240.5 46 t-90.5 136zM303 317q0 -170 88 -170q131 0 291 254l129 519q-33 8 -76 8q-96 0 -181 -62.5t-137 -157t-83 -198.5t-31 -193z" />
<glyph unicode="h" horiz-adv-x="1198" d="M6 -14l373 1493h-199v84q162 43 252 63q125 27 154 27q71 0 71 -60q0 -39 -12 -84l-178 -710q200 239 393 239h2q94 0 140.5 -53t46.5 -143q0 -104 -68 -336l-96 -342h198v-88q-164 -43 -254 -64q-121 -26 -156 -26h-3q-72 0 -72 59q0 23 18 82q41 158 80 296t57.5 198.5 t30 106.5t11.5 73q0 53 -45 53q-57 0 -149.5 -72.5t-186.5 -197.5l-146 -584z" />
<glyph unicode="i" horiz-adv-x="679" d="M76 862v86l166 47q152 43 213 43q98 0 98 -71q0 -27 -21 -109l-174 -698h201v-84q-111 -35 -199 -60q-111 -30 -180 -30h-4q-92 0 -92 80q0 28 16 98l176 698h-200zM350 1329q0 74 51.5 124t122.5 50q74 0 124 -50t50 -124q0 -72 -50 -123t-124 -51q-72 0 -123 51 t-51 123z" />
<glyph unicode="j" horiz-adv-x="651" d="M-602 -453q0 137 186 226q8 -20 21.5 -60.5t21.5 -61t20.5 -51t24 -47t26.5 -34t32.5 -24.5t38.5 -7q74 0 157.5 93t141.5 331l231 952h-199v84l168 49q150 41 217 41q90 0 90 -77q0 -31 -16 -97l-246 -1003q-35 -137 -97 -236.5t-143 -153t-165 -78t-178 -24.5 q-150 0 -241 46t-91 132zM356 1329q0 74 51.5 124t122.5 50q74 0 124.5 -50t50.5 -124q0 -72 -50.5 -123t-124.5 -51q-72 0 -123 51t-51 123z" />
<glyph unicode="k" horiz-adv-x="1110" d="M6 -14l373 1491h-199v86q102 31 189 55q131 35 194 35q90 0 90 -74q0 -37 -16 -102l-369 -1477zM438 532q350 160 350 293q1 52 -73 156q72 57 155 57q68 0 109 -40t41 -99q0 -102 -78 -185t-233 -177l61 -148q70 -170 113 -230.5t121 -90.5l-27 -82q-166 0 -253 42 t-151 185z" />
<glyph unicode="l" horiz-adv-x="643" d="M45 66q0 24 18 98l328 1313h-198v86l165 47q150 43 213 43q98 0 99 -74q0 -25 -21 -106l-330 -1313h203v-84q-113 -35 -200 -60q-106 -30 -178 -30h-5q-94 0 -94 80z" />
<glyph unicode="m" horiz-adv-x="1798" d="M51 -14l221 876h-200v86q162 43 252 64q121 26 155 26h2q72 0 72 -61q0 -37 -12 -82l-23 -82q184 225 369 225q196 0 196 -202q0 -20 -2 -29q182 231 381 231q193 0 193 -204q0 -115 -174 -670h200v-88q-164 -43 -254 -64q-121 -26 -158 -26h-3q-74 0 -74 59q0 16 20 88 q20 68 49 166t49.5 167t40 139.5t30 117.5t10.5 70q0 63 -45 63q-53 0 -140.5 -69.5t-167.5 -194.5l-161 -592l-263 -14l156 573q49 182 49 234q0 63 -49 63q-51 0 -136 -66.5t-171 -193.5l-150 -596z" />
<glyph unicode="n" horiz-adv-x="1241" d="M51 -14l219 876h-196v86q162 43 252 64q121 26 151 26h2q72 0 72 -61q0 -39 -10 -82l-27 -92q200 235 391 235h2q94 0 140.5 -53t46.5 -143q0 -104 -68 -336l-98 -342h200v-88q-166 -43 -256 -64q-121 -26 -155 -26h-2q-72 0 -72 59q1 23 19 82q41 156 79.5 296t56 198.5 t29 105.5t11.5 74q0 53 -43 53q-57 0 -149.5 -72.5t-186.5 -197.5l-146 -584z" />
<glyph unicode="o" horiz-adv-x="1128" d="M117 685q80 155 229.5 254t329.5 99q170 0 270.5 -102t100.5 -274.5t-77 -325t-227 -251.5t-340 -99q-366 0 -366 372q0 172 80 327zM313 324q0 -236 115 -236q80 0 147.5 61.5t107.5 154.5t61.5 196.5t21.5 197.5q0 238 -115 238q-104 0 -185 -108.5t-117 -246 t-36 -257.5z" />
<glyph unicode="p" horiz-adv-x="1191" d="M-102 -614l374 1476h-198v86q164 43 254 64q121 26 151 26h2q72 0 72 -61q0 -37 -12 -82l-11 -43q164 186 357 186q98 0 163.5 -72.5t65.5 -222.5q0 -326 -197.5 -541.5t-480.5 -215.5q-66 0 -127 12l-149 -582zM338 102q49 -8 80 -8q123 0 225 106.5t152.5 243 t50.5 254.5q0 179 -88 179q-131 0 -283 -242z" />
<glyph unicode="q" horiz-adv-x="1138" d="M33 281q0 324 197.5 540.5t480.5 216.5q207 0 370 -94l-407 -1546l-260 -27l204 799q-170 -184 -344 -184q-104 0 -172.5 69.5t-68.5 225.5zM305 326q0 -92 19.5 -135.5t66.5 -43.5q135 0 285 244l139 527q-37 10 -86 10q-119 0 -220 -102.5t-152.5 -239.5t-51.5 -260z " />
<glyph unicode="r" horiz-adv-x="940" d="M53 -14l221 878h-198v84q80 23 157 43q184 47 242 47q78 0 78 -59q0 -37 -21 -113l-16 -59q186 231 328 231q70 0 110.5 -36.5t40.5 -94.5q0 -78 -51 -149l-51 26l-43 21q-12 6 -29.5 14t-30 10t-26.5 2q-127 0 -307 -262l-144 -569z" />
<glyph unicode="s" horiz-adv-x="919" d="M-25 172q0 66 47.5 109t131.5 86q23 -61 33 -87t33.5 -71t44 -64.5t52 -37t68.5 -17.5q55 0 93 37t38 90q0 33 -10 60.5t-35 54t-43 43t-58 47.5t-57 43q-168 133 -168 299q0 123 106.5 198.5t293.5 75.5q156 0 241.5 -48t85.5 -122q0 -63 -52 -104t-136 -53 q-35 80 -53.5 114.5t-55 69.5t-81.5 35q-51 0 -78 -32t-27 -77q0 -84 154 -200q113 -84 166 -163t53 -179q0 -137 -119 -215t-305 -78q-172 0 -267.5 51t-95.5 135z" />
<glyph unicode="t" horiz-adv-x="774" d="M88 109q0 35 12 75l179 727h-166l16 80l174 15l47 174l264 30l-49 -190l266 22l-28 -131h-264l-166 -667q-4 -20 -4 -27q0 -41 41 -41q33 0 231 66l25 -82q-8 -4 -57.5 -31t-75 -39t-76.5 -35.5t-87 -36t-81 -22.5t-82 -10q-119 0 -119 123z" />
<glyph unicode="u" horiz-adv-x="1243" d="M68 860v88q166 43 256 64q121 26 153 26h2q74 0 74 -61q0 -19 -18 -82q-41 -156 -80 -296t-56.5 -199.5t-29 -105.5t-11.5 -75q0 -51 43 -51q57 0 149.5 72.5t184.5 195.5l148 588l262 14l-219 -878h198v-84q-164 -43 -254 -64q-117 -26 -151 -26h-2q-72 0 -72 59 q0 39 12 82l25 92q-195 -233 -393 -233q-186 0 -187 194q0 94 68 336l98 344h-200z" />
<glyph unicode="v" horiz-adv-x="1136" d="M25 862v86q82 27 151 45q152 45 191 45q86 0 102 -82l133 -755q133 176 205 308t72 249q0 55 -30 89t-110 87q82 104 205 104q66 0 110 -38.5t44 -114.5q0 -127 -105.5 -316.5t-404.5 -568.5l-203 -14l-156 876h-204z" />
<glyph unicode="w" horiz-adv-x="1687" d="M25 862v86q82 27 151 45q152 45 186 45q90 0 105 -82l127 -755q190 254 242 463l-62 360l250 14l147 -835q240 322 240 553q0 55 -30.5 90t-108.5 88q88 104 201 104q76 0 116.5 -42t40.5 -113q0 -297 -473 -883l-203 -14l-80 454q-178 -305 -286 -440l-207 -14l-156 876 h-200z" />
<glyph unicode="x" horiz-adv-x="1163" d="M-61 111q0 53 28 127q127 -41 170 -41q74 0 122 46t153 190q20 29 32 46l-116 383h-211v86q82 27 151 45q152 45 187 45q82 0 106 -82l80 -268q147 199 232 274.5t161 75.5q63 0 99 -33.5t36 -93.5q0 -55 -26 -125q-131 41 -172 41q-76 0 -129.5 -53t-163.5 -211 l125 -401h213v-86q-82 -27 -152 -45q-152 -45 -186 -45q-84 0 -109 84l-88 286q-143 -195 -236 -282.5t-169 -87.5q-137 0 -137 125z" />
<glyph unicode="y" horiz-adv-x="1128" d="M-2 -492q0 61 46 121t165 168.5t182 175.5l-160 889h-206v86q82 27 151 45q152 45 189 45q88 0 104 -82l133 -741q276 365 277 543q0 35 -22.5 68.5t-47.5 54t-70 53.5q88 104 211 104q63 0 106.5 -41t43.5 -112q0 -248 -453 -795q-84 -100 -164 -191.5t-115.5 -130 t-65.5 -76.5t-38 -58.5t-8 -47.5q0 -47 68 -121q-71 -79 -188 -79h-3q-59 0 -97 32.5t-38 89.5z" />
<glyph unicode="z" horiz-adv-x="1044" d="M-6 53l731 799q-94 -41 -231 -41h-117q-94 0 -132 -21.5t-75 -99.5l-88 17q53 221 83 276t105 55q45 0 198 -7t220 -7q154 0 266 14l56 -59l-768 -842q186 35 340 35q356 0 356 -186q0 -72 -46 -113t-126 -41l-64 2v12q0 78 -77.5 127.5t-233.5 49.5q-137 0 -334 -23z " />
<glyph unicode="{" horiz-adv-x="770" d="M41 598l27 107q111 6 181 52t99 161l86 346q74 293 350 292h177l-27 -108h-57q-86 0 -133.5 -45t-73.5 -150l-88 -350q-53 -215 -275 -254v-2q160 -31 160 -172q0 -45 -10 -80l-90 -354q-12 -55 -13 -90q0 -104 123 -105h58l-27 -108h-176q-106 0 -161.5 53t-55.5 148 q0 45 12 94l88 346q10 39 10 78q0 135 -184 141z" />
<glyph unicode="|" horiz-adv-x="677" d="M242 -492v2048h161v-2048h-161z" />
<glyph unicode="}" horiz-adv-x="770" d="M-166 -262l27 108h57q86 0 133 45.5t74 149.5l88 350q53 215 274 252v2q-160 33 -159 174q0 41 8 80l92 354q12 55 12 90q0 104 -123 105h-57l27 108h176q106 0 161.5 -53t55.5 -147q0 -45 -12 -94l-88 -347q-10 -39 -11 -77q0 -133 185 -144l-27 -104 q-111 -6 -181.5 -52t-99.5 -161l-86 -346q-74 -293 -350 -293h-176z" />
<glyph unicode="~" horiz-adv-x="940" d="M225 1337q20 18 55 46t123.5 74t153.5 46q78 0 151.5 -49t116.5 -49q117 0 230 70l47 -68q-20 -18 -53 -46t-120 -74t-157 -46q-82 0 -151.5 49t-118.5 49q-109 0 -230 -69z" />
<glyph unicode="&#xa1;" horiz-adv-x="579" d="M-80 -410l291 1008h182l-209 -1008h-264zM172 862q0 70 51 123t123 53q70 0 123 -53t53 -122.5t-52 -122t-124 -52.5t-123 51.5t-51 122.5z" />
<glyph unicode="&#xa2;" horiz-adv-x="1032" d="M61 348q0 233 147.5 435t391.5 245l76 299h143l-74 -291q109 -6 175.5 -49t66.5 -115q0 -80 -65.5 -129t-161.5 -49q-8 43 -16.5 101.5t-12.5 76.5q-6 33 -14 43l-201 -804h31q111 0 248 55l26 -80q-184 -90 -336 -98l-67 -275h-144l70 281q-133 20 -208 111.5t-75 242.5 zM342 365q0 -127 47 -189l180 727q-96 -59 -161.5 -202t-65.5 -336z" />
<glyph unicode="&#xa3;" horiz-adv-x="1228" d="M-4 74q158 104 268.5 250.5t110.5 314.5q0 18 -2 29h-252l22 108l207 17q-2 10 -16.5 61t-19.5 72.5t-11 61.5t-6 75q0 174 141.5 279.5t352.5 105.5q190 0 304.5 -65.5t114.5 -184.5q0 -78 -59 -122t-166 -44h-29q12 53 13 115q0 92 -46 143t-126 51q-106 0 -169 -79.5 t-63 -219.5q0 -29 4 -61.5t9.5 -55t13.5 -59.5t12 -55l316 25l-66 -168h-233q-6 -215 -230 -430h471l127 182h101l-146 -420h-934z" />
<glyph unicode="&#xa4;" horiz-adv-x="1198" d="M66 354l159 135q-25 59 -24 144q0 195 157 371q-16 25 -51 73.5t-43 59.5l119 88l90 -127q123 84 272 84q123 0 213 -72l162 131l88 -115l-159 -133q23 -68 22 -133q0 -102 -47 -209.5t-121 -181.5q69 -98 94 -135l-114 -88l-95 125q-121 -80 -254 -80t-223 80 q-139 -117 -155 -129zM391 678q0 -106 51.5 -171t143.5 -65q117 0 199.5 108.5t82.5 235.5q0 102 -51 170t-143 68q-117 0 -200 -107.5t-83 -238.5z" />
<glyph unicode="&#xa5;" horiz-adv-x="1464" d="M244 1329l24 105h557l-26 -105l-131 -26l168 -474l370 459l-151 41l24 105h502l-22 -105l-166 -47l-416 -512l285 16l-62 -157h-334l-26 -101l360 21l-59 -158h-336l-60 -241l181 -46l-25 -104h-586l25 104l172 46l59 241h-295l27 107l299 16l29 115h-295l26 106l232 13 l-199 540z" />
<glyph unicode="&#xa6;" horiz-adv-x="655" d="M231 328h162v-820h-162v820zM231 737v819h162v-819h-162z" />
<glyph unicode="&#xa7;" horiz-adv-x="1073" d="M-4 -88l80 319h88l16 -249q63 -25 148 -25q125 0 196.5 50t71.5 136q0 61 -47 112.5t-113.5 91.5t-134.5 83t-115 107.5t-47 146.5q0 193 228 305q-86 80 -86 205q0 164 139 262t348 98q178 0 309 -53l-80 -321h-88l-14 239q-68 14 -119 15q-106 0 -183 -46.5t-77 -132.5 q0 -61 48 -110t118 -87t139.5 -82t117.5 -113.5t48 -160.5q0 -195 -227 -315q92 -92 92 -205q0 -172 -147.5 -262t-354.5 -90q-217 0 -354 82zM375 745q0 -35 15.5 -65.5t49 -60t60 -49t80 -52.5t77.5 -49q74 80 74 170q0 37 -13 70.5t-23.5 53t-48.5 47.5t-47 35 t-63.5 36.5t-58.5 31.5q-102 -66 -102 -168z" />
<glyph unicode="&#xa8;" horiz-adv-x="1001" d="M125 1394.5q0 69.5 47 115.5t117 46q68 0 114 -46t46 -115.5t-46.5 -115.5t-113.5 -46q-70 0 -117 46t-47 115.5zM573 1394.5q0 67.5 48.5 114.5t115.5 47q70 0 116 -46t46 -115.5t-46 -115.5t-116 -46q-68 0 -116 47t-48 114.5z" />
<glyph unicode="&#xa9;" horiz-adv-x="1783" d="M158 731.5q0 317.5 224 542.5t541.5 225t543 -225t225.5 -542.5t-225.5 -542t-543 -224.5t-541.5 224.5t-224 542zM313 731q0 -256 177.5 -433t433.5 -177t434 177t178 433t-178 434t-434 178q-254 0 -432.5 -178t-178.5 -434zM485 731q0 221 124 342t356 121 q137 0 247 -51v-238h-98l-45 160q-86 6 -88 6q-133 0 -194.5 -85t-61.5 -255q0 -168 59.5 -253t190.5 -85q53 0 76 2l82 174h96l-33 -235q-123 -66 -252 -66q-215 0 -337 122t-122 341z" />
<glyph unicode="&#xaa;" horiz-adv-x="837" d="M188 977q0 195 128 334t300 139q141 0 232 -59l-123 -478h121v-63q-72 -20 -127 -35q-84 -23 -133 -22.5t-49 45.5q0 18 8 45l8 28q-90 -119 -209 -118q-156 0 -156 184zM381 1006q0 -97 49 -97q35 0 81 46t83 118l78 293q-14 6 -45 6q-104 0 -175 -113.5t-71 -252.5z " />
<glyph unicode="&#xab;" horiz-adv-x="976" d="M72 520l18 66l385 356h146l-293 -389l98 -389h-145zM446 524l13 58l309 301h135l-213 -330l37 -350h-137z" />
<glyph unicode="&#xac;" horiz-adv-x="1222" d="M141 651v162h893v-561h-164v399h-729z" />
<glyph unicode="&#xad;" horiz-adv-x="825" d="M129 434v195h533v-195h-533z" />
<glyph unicode="&#xae;" horiz-adv-x="1783" d="M158 731.5q0 317.5 224 542.5t541.5 225t543 -225t225.5 -542.5t-225.5 -542t-543 -224.5t-541.5 224.5t-224 542zM313 731q0 -256 177.5 -433t433.5 -177t433 177t177 433t-178 434t-432 178t-432.5 -178t-178.5 -434zM539 305v84l100 27v641l-100 26v84h348 q356 0 356 -243q0 -182 -188 -234q31 -49 88 -137t86 -137l98 -29v-82h-237l-216 367h-57v-256l115 -27v-84h-393zM817 776h57q185 1 185 148q0 135 -185 135h-57v-283z" />
<glyph unicode="&#xaf;" horiz-adv-x="0" />
<glyph unicode="&#xb0;" horiz-adv-x="782" d="M221 1247q0 131 92.5 223.5t223.5 92.5t224 -92.5t93 -223.5t-92 -223t-225 -92q-131 0 -223.5 92t-92.5 223zM395 1247.5q0 -57.5 42 -99.5t100 -42q59 0 101 42t42 99.5t-43 99.5t-100.5 42t-99.5 -42t-42 -99.5z" />
<glyph unicode="&#xb1;" horiz-adv-x="1282" d="M147 0v168h920v-168h-920zM147 647v168h365v385h166v-385h389v-168h-389v-387h-166v387h-365z" />
<glyph unicode="&#xb2;" horiz-adv-x="782" d="M117 580l16 71q43 49 101.5 113.5t90 98.5t72.5 81t61.5 72.5t47 60.5t38 55.5t24 47t16.5 48t4 44.5q0 106 -78 106q-82 0 -82 -123q0 -45 6 -88q-78 2 -131 32t-53 89q0 74 78 118t196 44q117 0 187.5 -50t70.5 -138q0 -57 -32.5 -111.5t-73.5 -93.5t-147.5 -134.5 t-188.5 -177.5h278l72 107h72l-100 -272h-545z" />
<glyph unicode="&#xb3;" horiz-adv-x="755" d="M123 635l31 74q92 -57 190 -58q88 0 140.5 47t52.5 125q0 68 -42 115t-126 53l14 82q90 2 141 63.5t51 147.5q1 98 -73 98q-45 0 -69.5 -35.5t-24.5 -95.5q0 -51 6 -84q-68 0 -118 29t-50 96q0 72 78.5 115t199.5 43q111 0 175.5 -46t64.5 -138q0 -88 -71.5 -152.5 t-170.5 -81.5v-2q94 -8 151.5 -64.5t57.5 -134.5q0 -129 -97 -198.5t-237 -69.5q-145 0 -274 72z" />
<glyph unicode="&#xb4;" horiz-adv-x="520" d="M76 1219l172 407q135 -16 233 -102l-288 -363z" />
<glyph unicode="&#xb5;" horiz-adv-x="1312" d="M-55 -403q0 23 8 55l344 1372h262l-172 -692q-12 -57 -12 -90q0 -104 112 -105q109 0 246 84l199 803h264l-180 -725q-10 -41 -10 -66q0 -78 100 -77h22l-18 -74q-145 -96 -279 -96q-68 0 -97 25.5t-29 80.5v8q-160 -115 -316 -114q-119 0 -170 67q-47 -154 -47 -286 q0 -49 14.5 -79t59.5 -71q2 -2 -20.5 -31.5t-72 -61.5t-102.5 -32q-106 0 -106 105z" />
<glyph unicode="&#xb6;" horiz-adv-x="1257" d="M201 1059q0 199 153.5 348t407.5 149h629l-25 -98l-174 -41l-410 -1646h-159l407 1636h-143l-406 -1636h-159l249 999h-18q-174 0 -263 77t-89 212z" />
<glyph unicode="&#xb7;" horiz-adv-x="641" d="M92 612.5q0 94.5 67.5 162t162 67.5t162 -67.5t67.5 -162t-67.5 -162t-162 -67.5t-162 67.5t-67.5 162z" />
<glyph unicode="&#xb8;" horiz-adv-x="681" d="M-2 -469l31 98q31 -6 75 -6q66 0 118 29t52 92q0 100 -120 100l90 174h131l-49 -102q72 -4 115.5 -39.5t43.5 -101.5q0 -127 -105.5 -195.5t-240.5 -68.5q-74 0 -141 20z" />
<glyph unicode="&#xb9;" horiz-adv-x="518" d="M193 580l178 702l-148 -61l-20 82l295 145h96l-217 -868h-184z" />
<glyph unicode="&#xba;" horiz-adv-x="811" d="M188 1024q0 174 126 300t298 126q127 0 194.5 -63.5t67.5 -167.5q0 -172 -123.5 -299t-299.5 -127q-129 0 -196 63.5t-67 167.5zM395 995q0 -123 72 -123q78 0 140.5 125t62.5 250q0 63 -16.5 93t-57.5 30q-80 0 -140.5 -123t-60.5 -252z" />
<glyph unicode="&#xbb;" horiz-adv-x="980" d="M53 223l213 330l-37 350h136l145 -321l-14 -58l-306 -301h-137zM336 164l293 389l-99 389h146l207 -356l-15 -66l-385 -356h-147z" />
<glyph unicode="&#xbc;" horiz-adv-x="1511" d="M137 0l957 1434h194l-956 -1434h-195zM236 580l178 702l-148 -61l-20 82l295 145h96l-217 -868h-184zM705 231l16 64l563 575h111l-131 -532h88l-27 -107h-90l-57 -231h-168l59 231h-364zM893 338h203l67 268z" />
<glyph unicode="&#xbd;" horiz-adv-x="1660" d="M137 0l957 1434h194l-956 -1434h-195zM236 580l178 702l-148 -61l-20 82l295 145h96l-217 -868h-184zM848 0l16 72q43 49 101.5 113.5t90 98t72.5 81t61.5 73t47.5 60t38 55t23.5 47.5t16.5 48.5t4 43.5q0 106 -78 107q-82 0 -82 -123q0 -45 6 -88q-78 2 -131 31.5 t-53 89.5q0 74 78 117.5t196 43.5q117 0 187.5 -50t70.5 -138q0 -57 -31.5 -111.5t-73.5 -93.5t-147.5 -134t-189.5 -177h279l71 106h72l-100 -272h-545z" />
<glyph unicode="&#xbe;" horiz-adv-x="1798" d="M135 635l31 74q92 -57 190 -58q88 0 140.5 47t52.5 125q0 68 -42 115t-126 53l14 82q90 2 141.5 63.5t51.5 147.5q0 98 -74 98q-45 0 -69.5 -35.5t-24.5 -95.5q0 -51 6 -84q-68 0 -118 29t-50 96q0 72 79 115t200 43q111 0 175 -46t64 -138q0 -88 -71.5 -152.5 t-169.5 -81.5v-2q94 -8 151 -64.5t57 -134.5q0 -129 -97 -198.5t-236 -69.5q-145 0 -275 72zM434 0l957 1434h194l-956 -1434h-195zM999 231l17 64l563 575h111l-131 -532h88l-27 -107h-90l-57 -231h-168l59 231h-365zM1188 338h203l67 268z" />
<glyph unicode="&#xbf;" horiz-adv-x="978" d="M-102 -154q0 98 62.5 174t152.5 124.5t180 90t152.5 94t62.5 113.5q0 35 -20.5 56.5t-53.5 21.5q-51 0 -102 -39l-62 78q78 78 187 78q94 0 155.5 -55.5t61.5 -143.5q0 -78 -37 -140t-92.5 -102t-121 -83t-120.5 -81t-92 -94.5t-37 -125.5q0 -61 35 -96t94 -35 q66 0 107 52t41 144q0 49 -15 115q272 0 273 -185q0 -109 -115 -171t-315 -62q-170 0 -275.5 71.5t-105.5 200.5zM375 862.5q0 71.5 51 123.5t123 52t124 -52t52 -123.5t-52 -123t-124 -51.5t-123 51.5t-51 123z" />
<glyph unicode="&#xc0;" horiz-adv-x="1357" d="M-168 0l23 84l186 45l778 1305h170l94 -1307l162 -43l-20 -84h-578l23 84l155 37l-20 280h-404l-163 -274l161 -43l-22 -84h-545zM479 532h316l-35 467zM578 1696q29 66 77 123t99 73l323 -299l-49 -77z" />
<glyph unicode="&#xc1;" horiz-adv-x="1357" d="M-168 0l23 84l186 45l778 1305h170l94 -1307l162 -43l-20 -84h-578l23 84l155 37l-20 280h-404l-163 -274l161 -43l-22 -84h-545zM479 532h316l-35 467zM717 1573l332 303q51 -16 99 -73.5t77 -123.5l-461 -184z" />
<glyph unicode="&#xc2;" horiz-adv-x="1357" d="M-168 0l23 84l186 45l778 1305h170l94 -1307l162 -43l-20 -84h-578l23 84l155 37l-20 280h-404l-163 -274l161 -43l-22 -84h-545zM479 532h316l-35 467zM500 1630l315 250h223l199 -250l-139 -49l-197 133l-262 -133z" />
<glyph unicode="&#xc3;" horiz-adv-x="1357" d="M-168 0l23 84l186 45l778 1305h170l94 -1307l162 -43l-20 -84h-578l23 84l155 37l-20 280h-404l-163 -274l161 -43l-22 -84h-545zM479 532h316l-35 467zM512 1696q18 20 49 50t115 79t153 49q76 0 155 -54.5t134 -54.5q80 0 211 88l60 -88q-16 -20 -47 -48.5t-113 -78 t-154 -49.5q-74 0 -160 54.5t-131 54.5q-88 0 -209 -88z" />
<glyph unicode="&#xc4;" horiz-adv-x="1357" d="M-168 0l23 84l186 45l778 1305h170l94 -1307l162 -43l-20 -84h-578l23 84l155 37l-20 280h-404l-163 -274l161 -43l-22 -84h-545zM479 532h316l-35 467zM553 1734.5q0 69.5 47 115.5t117 46q68 0 114 -46t46 -115.5t-46.5 -115.5t-113.5 -46q-70 0 -117 46t-47 115.5z M981 1734.5q0 67.5 48 114.5t116 47q70 0 116 -46t46 -115.5t-46.5 -115.5t-115.5 -46q-68 0 -116 47t-48 114.5z" />
<glyph unicode="&#xc5;" horiz-adv-x="1361" d="M-168 0l23 84l186 45l731 1225q-88 71 -88 188q0 100 71.5 173t174 73t174.5 -73t72 -173q0 -84 -50.5 -149.5t-128.5 -87.5l86 -1178l162 -43l-20 -84h-578l23 84l155 37l-20 280h-404l-163 -274l161 -43l-22 -84h-545zM479 532h316l-35 467zM823 1542q0 -45 31 -74.5 t76 -29.5t74.5 29.5t29.5 74.5t-29.5 74t-74.5 29q-47 0 -77 -29t-30 -74z" />
<glyph unicode="&#xc6;" horiz-adv-x="2111" d="M-180 0l26 104l258 60l1278 1270h799l-104 -420h-99l-12 293h-369l-129 -514l381 38l-47 -192l-362 35l-131 -527h372l211 295h99l-166 -442h-998l27 104l186 46l62 251h-565l-269 -266l123 -31l-26 -104h-545zM670 532h467l151 607z" />
<glyph unicode="&#xc7;" horiz-adv-x="1269" d="M94 489q0 178 60.5 349.5t169 307.5t273.5 220t355 84q111 0 210.5 -20.5t144.5 -40.5l45 -21l-95 -379h-120l-13 305q-57 16 -123 17q-268 0 -451 -237.5t-183 -571.5q0 -180 73.5 -274.5t194.5 -94.5q86 0 149 19l236 311h119l-146 -377q-96 -57 -223 -82l-41 -88 q72 -4 116 -39.5t44 -101.5q0 -127 -105.5 -195.5t-240.5 -68.5q-74 0 -142 20l31 98q31 -6 76 -6q66 0 118 29t52 92q0 100 -121 100l74 144q-16 -2 -49 -2q-248 0 -368 140t-120 363z" />
<glyph unicode="&#xc8;" horiz-adv-x="1210" d="M-72 0l23 100l192 50l283 1134l-164 47l25 103h993l-104 -420h-117l-15 272h-352l-119 -485l375 41l-49 -213l-360 37l-129 -519h338l223 295h119l-166 -442h-996zM563 1696q29 66 77 123t99 73l324 -299l-49 -77z" />
<glyph unicode="&#xc9;" horiz-adv-x="1210" d="M-72 0l23 100l192 50l283 1134l-164 47l25 103h993l-104 -420h-117l-15 272h-352l-119 -485l375 41l-49 -213l-360 37l-129 -519h338l223 295h119l-166 -442h-996zM723 1573l332 303q51 -16 99 -73.5t77 -123.5l-461 -184z" />
<glyph unicode="&#xca;" horiz-adv-x="1210" d="M-72 0l23 100l192 50l283 1134l-164 47l25 103h993l-104 -420h-117l-15 272h-352l-119 -485l375 41l-49 -213l-360 37l-129 -519h338l223 295h119l-166 -442h-996zM506 1589l315 250h223l199 -250l-139 -49l-197 133l-262 -133z" />
<glyph unicode="&#xcb;" horiz-adv-x="1210" d="M-72 0l23 100l192 50l283 1134l-164 47l25 103h993l-104 -420h-117l-15 272h-352l-119 -485l375 41l-49 -213l-360 37l-129 -519h338l223 295h119l-166 -442h-996zM580 1734.5q0 69.5 47 115.5t116 46q68 0 114 -46t46 -115.5t-46 -115.5t-114 -46q-70 0 -116.5 46 t-46.5 115.5zM1008 1734.5q0 67.5 48 114.5t115 47q70 0 116 -46t46 -115.5t-46 -115.5t-116 -46q-68 0 -115.5 47t-47.5 114.5z" />
<glyph unicode="&#xcc;" horiz-adv-x="776" d="M-72 0l27 104l188 46l281 1134l-166 45l27 105h622l-26 -105l-191 -45l-280 -1134l168 -46l-27 -104h-623zM270 1696q29 66 77 123t99 73l324 -299l-49 -77z" />
<glyph unicode="&#xcd;" horiz-adv-x="776" d="M-72 0l27 104l188 46l281 1134l-166 45l27 105h622l-26 -105l-191 -45l-280 -1134l168 -46l-27 -104h-623zM430 1573l332 303q51 -16 99 -73.5t77 -123.5l-461 -184z" />
<glyph unicode="&#xce;" horiz-adv-x="776" d="M-72 0l27 104l188 46l281 1134l-166 45l27 105h622l-26 -105l-191 -45l-280 -1134l168 -46l-27 -104h-623zM254 1630l315 250h224l198 -250l-139 -49l-197 133l-262 -133z" />
<glyph unicode="&#xcf;" horiz-adv-x="776" d="M-72 0l27 104l188 46l281 1134l-166 45l27 105h622l-26 -105l-191 -45l-280 -1134l168 -46l-27 -104h-623zM287 1734.5q0 69.5 47 115.5t117 46q68 0 113.5 -46t45.5 -115.5t-46 -115.5t-113 -46q-70 0 -117 46t-47 115.5zM715 1734.5q0 67.5 48 114.5t116 47 q70 0 115.5 -46t45.5 -115.5t-46 -115.5t-115 -46q-68 0 -116 47t-48 114.5z" />
<glyph unicode="&#xd0;" horiz-adv-x="1445" d="M-63 0l22 104l186 46l125 497h-164v146h201l125 491l-166 45l27 105h504q305 0 455.5 -132.5t150.5 -373.5q0 -219 -76 -397.5t-208 -293t-305 -176t-374 -61.5h-503zM414 147h53q268 0 465.5 222.5t197.5 566.5q0 172 -98 261t-270 89h-64l-125 -493h287v-146h-321z" />
<glyph unicode="&#xd1;" horiz-adv-x="1474" d="M-72 0l25 104l188 46l283 1132l-164 47l25 105h321l453 -961l201 811l-164 45l26 105h506l-24 -105l-193 -45l-317 -1284h-97l-485 1030l-219 -883l166 -43l-25 -104h-506zM543 1696q18 20 49 50t115 79t153 49q76 0 155 -54.5t134 -54.5q80 0 211 88l59 -88 q-16 -20 -47 -48.5t-112.5 -78t-153.5 -49.5q-74 0 -160 54.5t-131 54.5q-88 0 -209 -88z" />
<glyph unicode="&#xd2;" d="M92 477q0 252 103.5 472t302 360.5t446.5 140.5q252 0 385 -134t133 -360q0 -250 -102.5 -470t-300 -360t-447.5 -140q-254 0 -387 133t-133 358zM373 457q0 -156 62.5 -248t193.5 -92q135 0 244.5 82t175 212t100.5 277.5t35 288.5q0 156 -64.5 249t-195.5 93 q-133 0 -242 -83t-174.5 -214t-100 -277.5t-34.5 -287.5zM629 1696q29 66 77 123t99 73l323 -299l-49 -77z" />
<glyph unicode="&#xd3;" d="M92 477q0 252 103.5 472t302 360.5t446.5 140.5q252 0 385 -134t133 -360q0 -250 -102.5 -470t-300 -360t-447.5 -140q-254 0 -387 133t-133 358zM373 457q0 -156 62.5 -248t193.5 -92q135 0 244.5 82t175 212t100.5 277.5t35 288.5q0 156 -64.5 249t-195.5 93 q-133 0 -242 -83t-174.5 -214t-100 -277.5t-34.5 -287.5zM768 1573l332 303q51 -16 99 -73.5t77 -123.5l-461 -184z" />
<glyph unicode="&#xd4;" d="M92 477q0 252 103.5 472t302 360.5t446.5 140.5q252 0 385 -134t133 -360q0 -250 -102.5 -470t-300 -360t-447.5 -140q-254 0 -387 133t-133 358zM373 457q0 -156 62.5 -248t193.5 -92q135 0 244.5 82t175 212t100.5 277.5t35 288.5q0 156 -64.5 249t-195.5 93 q-133 0 -242 -83t-174.5 -214t-100 -277.5t-34.5 -287.5zM633 1630l315 250h223l199 -250l-139 -49l-197 133l-262 -133z" />
<glyph unicode="&#xd5;" d="M92 477q0 252 103.5 472t302 360.5t446.5 140.5q252 0 385 -134t133 -360q0 -250 -102.5 -470t-300 -360t-447.5 -140q-254 0 -387 133t-133 358zM373 457q0 -156 62.5 -248t193.5 -92q135 0 244.5 82t175 212t100.5 277.5t35 288.5q0 156 -64.5 249t-195.5 93 q-133 0 -242 -83t-174.5 -214t-100 -277.5t-34.5 -287.5zM584 1716q18 20 49 50t114.5 79t153.5 49q76 0 155 -54t134 -54q80 0 211 88l59 -88q-16 -20 -47 -49t-112.5 -78t-153.5 -49q-74 0 -160 54t-131 54q-88 0 -209 -88z" />
<glyph unicode="&#xd6;" d="M92 477q0 252 103.5 472t302 360.5t446.5 140.5q252 0 385 -134t133 -360q0 -250 -102.5 -470t-300 -360t-447.5 -140q-254 0 -387 133t-133 358zM373 457q0 -156 62.5 -248t193.5 -92q135 0 244.5 82t175 212t100.5 277.5t35 288.5q0 156 -64.5 249t-195.5 93 q-133 0 -242 -83t-174.5 -214t-100 -277.5t-34.5 -287.5zM645 1734.5q0 69.5 47 115.5t117 46q68 0 114 -46t46 -115.5t-46 -115.5t-114 -46q-70 0 -117 46t-47 115.5zM1073 1734.5q0 67.5 48 114.5t116 47q70 0 116 -46t46 -115.5t-46 -115.5t-116 -46q-68 0 -116 47 t-48 114.5z" />
<glyph unicode="&#xd7;" horiz-adv-x="1232" d="M199 399l333 332l-333 334l116 117l334 -332l334 334l117 -117l-334 -336l334 -334l-117 -116l-334 333l-332 -331z" />
<glyph unicode="&#xd8;" d="M92 477q0 252 103.5 472t302 360.5t446.5 140.5q78 0 154 -16l41 79h172l-70 -131q221 -125 221 -426q0 -250 -102.5 -470t-300 -360t-447.5 -140q-55 0 -100 6l-39 -74h-172l59 113q-268 111 -268 446zM373 457q0 -176 73 -262l580 1103q-47 20 -102 21q-133 0 -242 -83 t-174.5 -214t-100 -277.5t-34.5 -287.5zM580 121q29 -4 49 -4q135 0 244.5 82t175 212t100.5 277.5t35 288.5q0 127 -43 213z" />
<glyph unicode="&#xd9;" d="M174 346q0 84 31 205l180 733l-164 45l27 105h622l-26 -105l-191 -45l-184 -733q-27 -111 -27 -174q0 -96 65.5 -159.5t190.5 -63.5q154 0 264.5 107.5t155.5 289.5l182 733l-161 45l24 105h506l-27 -105l-190 -43l-182 -735q-139 -565 -647 -565q-215 0 -332 90 t-117 270zM621 1696q29 66 77 123t99 73l323 -299l-49 -77z" />
<glyph unicode="&#xda;" d="M174 346q0 84 31 205l180 733l-164 45l27 105h622l-26 -105l-191 -45l-184 -733q-27 -111 -27 -174q0 -96 65.5 -159.5t190.5 -63.5q154 0 264.5 107.5t155.5 289.5l182 733l-161 45l24 105h506l-27 -105l-190 -43l-182 -735q-139 -565 -647 -565q-215 0 -332 90 t-117 270zM883 1573l331 303q51 -16 99.5 -73.5t77.5 -123.5l-461 -184z" />
<glyph unicode="&#xdb;" d="M174 346q0 84 31 205l180 733l-164 45l27 105h622l-26 -105l-191 -45l-184 -733q-27 -111 -27 -174q0 -96 65.5 -159.5t190.5 -63.5q154 0 264.5 107.5t155.5 289.5l182 733l-161 45l24 105h506l-27 -105l-190 -43l-182 -735q-139 -565 -647 -565q-215 0 -332 90 t-117 270zM625 1630l315 250h223l199 -250l-139 -49l-197 133l-262 -133z" />
<glyph unicode="&#xdc;" d="M174 346q0 84 31 205l180 733l-164 45l27 105h622l-26 -105l-191 -45l-184 -733q-27 -111 -27 -174q0 -96 65.5 -159.5t190.5 -63.5q154 0 264.5 107.5t155.5 289.5l182 733l-161 45l24 105h506l-27 -105l-190 -43l-182 -735q-139 -565 -647 -565q-215 0 -332 90 t-117 270zM637 1734.5q0 69.5 47 115.5t117 46q68 0 114 -46t46 -115.5t-46.5 -115.5t-113.5 -46q-70 0 -117 46t-47 115.5zM1065 1734.5q0 67.5 48 114.5t116 47q70 0 116 -46t46 -115.5t-46.5 -115.5t-115.5 -46q-68 0 -116 47t-48 114.5z" />
<glyph unicode="&#xdd;" horiz-adv-x="1284" d="M152 1329l26 105h555l-24 -105l-125 -24l161 -469l359 454l-146 39l27 105h504l-29 -105l-170 -51l-487 -610l-129 -518l180 -46l-25 -104h-620l24 104l175 46l127 518l-218 616zM725 1573l332 303q51 -16 99 -73.5t77 -123.5l-461 -184z" />
<glyph unicode="&#xde;" horiz-adv-x="1193" d="M-74 0l25 94l188 45l287 1155l-166 45l23 95h622l-22 -95l-191 -45l-39 -161h84q207 0 327 -83t120 -253q0 -240 -182.5 -368t-446.5 -128h-111l-38 -162l167 -45l-22 -94h-625zM481 444h66q162 0 263 92.5t101 264.5q1 192 -235 192h-60z" />
<glyph unicode="&#xdf;" horiz-adv-x="1288" d="M0 -14l307 1188q68 258 219.5 368.5t380.5 110.5q170 0 271.5 -73t101.5 -200q0 -98 -50 -165.5t-121 -105.5t-141.5 -70.5t-120.5 -82t-50 -120.5q0 -70 35.5 -123.5t115.5 -114.5q86 -63 125 -98t73 -93.5t34 -127.5q0 -141 -112 -217t-312 -76q-387 0 -387 168 q0 61 41 107t127 106q10 -18 33.5 -60.5t34.5 -61t31.5 -49t36 -45t37 -32t45 -23.5t50.5 -6q63 0 101 36t38 91t-28.5 103.5t-71.5 81t-94.5 71.5t-94.5 76t-71.5 96.5t-28.5 130.5q0 92 48 155.5t118 100.5t138.5 73t116.5 98.5t48 150.5q0 84 -38 136t-112 52 q-94 0 -177 -88t-144 -332l-291 -1122z" />
<glyph unicode="&#xe0;" horiz-adv-x="1196" d="M35 281q0 324 196.5 540.5t481.5 216.5q201 0 368 -94l-202 -782h200v-86q-158 -43 -248 -66q-86 -25 -157 -24q-76 0 -76 67q0 33 12 78l11 39q-162 -184 -349 -184q-109 0 -173 75.5t-64 219.5zM307 301q0 -154 86 -154q70 0 149 72t136 172l139 527q-31 10 -90 10 q-166 0 -293 -196.5t-127 -430.5zM408 1528q102 86 233 102l162 -397l-117 -57z" />
<glyph unicode="&#xe1;" horiz-adv-x="1196" d="M35 281q0 324 196.5 540.5t481.5 216.5q201 0 368 -94l-202 -782h200v-86q-158 -43 -248 -66q-86 -25 -157 -24q-76 0 -76 67q0 33 12 78l11 39q-162 -184 -349 -184q-109 0 -173 75.5t-64 219.5zM307 301q0 -154 86 -154q70 0 149 72t136 172l139 527q-31 10 -90 10 q-166 0 -293 -196.5t-127 -430.5zM567 1219l172 407q135 -16 234 -102l-289 -363z" />
<glyph unicode="&#xe2;" horiz-adv-x="1196" d="M35 281q0 324 196.5 540.5t481.5 216.5q201 0 368 -94l-202 -782h200v-86q-158 -43 -248 -66q-86 -25 -157 -24q-76 0 -76 67q0 33 12 78l11 39q-162 -184 -349 -184q-109 0 -173 75.5t-64 219.5zM307 301q0 -154 86 -154q70 0 149 72t136 172l139 527q-31 10 -90 10 q-166 0 -293 -196.5t-127 -430.5zM313 1217l330 397h231l146 -397l-150 -50l-139 285l-276 -285z" />
<glyph unicode="&#xe3;" horiz-adv-x="1196" d="M35 281q0 324 196.5 540.5t481.5 216.5q201 0 368 -94l-202 -782h200v-86q-158 -43 -248 -66q-86 -25 -157 -24q-76 0 -76 67q0 33 12 78l11 39q-162 -184 -349 -184q-109 0 -173 75.5t-64 219.5zM307 301q0 -154 86 -154q70 0 149 72t136 172l139 527q-31 10 -90 10 q-166 0 -293 -196.5t-127 -430.5zM315 1362q6 8 15.5 19.5t40 43t63.5 55t79 43t89 19.5q63 0 142 -55t128 -55q45 0 87 20.5t112 69.5l59 -76q-6 -8 -16 -19.5t-44 -42t-67.5 -54t-83 -43t-94.5 -19.5q-63 0 -146 54t-124 54q-39 0 -74 -18.5t-104 -69.5z" />
<glyph unicode="&#xe4;" horiz-adv-x="1196" d="M35 281q0 324 196.5 540.5t481.5 216.5q201 0 368 -94l-202 -782h200v-86q-158 -43 -248 -66q-86 -25 -157 -24q-76 0 -76 67q0 33 12 78l11 39q-162 -184 -349 -184q-109 0 -173 75.5t-64 219.5zM307 301q0 -154 86 -154q70 0 149 72t136 172l139 527q-31 10 -90 10 q-166 0 -293 -196.5t-127 -430.5zM342 1394.5q0 69.5 47 115.5t117 46q68 0 114 -46t46 -115.5t-46.5 -115.5t-113.5 -46q-70 0 -117 46t-47 115.5zM791 1394.5q0 67.5 48 114.5t115 47q70 0 116 -46t46 -115.5t-46 -115.5t-116 -46q-68 0 -115.5 47t-47.5 114.5z" />
<glyph unicode="&#xe5;" horiz-adv-x="1196" d="M35 281q0 324 196.5 540.5t481.5 216.5q201 0 368 -94l-202 -782h200v-86q-158 -43 -248 -66q-86 -25 -157 -24q-76 0 -76 67q0 33 12 78l11 39q-162 -184 -349 -184q-109 0 -173 75.5t-64 219.5zM307 301q0 -154 86 -154q70 0 149 72t136 172l139 527q-31 10 -90 10 q-166 0 -293 -196.5t-127 -430.5zM504 1413.5q0 102.5 71.5 174t174 71.5t174 -71.5t71.5 -174t-71.5 -174.5t-174 -72t-174 72t-71.5 174.5zM643 1413q0 -45 31 -74.5t76 -29.5t74.5 29.5t29.5 74.5t-29.5 74t-74.5 29q-47 0 -77 -29t-30 -74z" />
<glyph unicode="&#xe6;" horiz-adv-x="1570" d="M8 223q0 176 170 262t461 86l14 43q35 104 35 177q0 152 -139 151q-166 0 -170 -285q-84 0 -161 43t-77 129q0 104 112 156.5t261 52.5q240 0 340 -133q160 133 365 133q166 0 248.5 -57.5t82.5 -159.5q0 -119 -97 -202.5t-242.5 -122.5t-329.5 -45q-4 -41 -4 -68 q0 -131 40.5 -204t153.5 -73q133 0 279 56l22 -74q-205 -102 -442 -102q-197 0 -279 129q-168 -129 -364 -129q-131 0 -205 64.5t-74 172.5zM289 246q0 -51 27.5 -84t82.5 -33q113 0 213 82q-12 51 -12 121q0 55 10 127q-150 -2 -235.5 -62.5t-85.5 -150.5zM899 565 q180 25 285.5 104t105.5 177q0 43 -23.5 68.5t-62.5 25.5q-98 0 -185 -99.5t-120 -275.5z" />
<glyph unicode="&#xe7;" horiz-adv-x="958" d="M35 348q0 166 74.5 321.5t227 262t349.5 106.5q123 0 199 -44t76 -122q0 -80 -66 -129t-162 -49q-8 43 -16 101.5t-12 76.5q-6 39 -20.5 51.5t-39.5 12.5q-121 0 -225.5 -163t-104.5 -408q0 -254 205 -254q111 0 248 55l27 -80q-133 -63 -207 -82l-43 -88 q72 -4 116 -39.5t44 -101.5q0 -127 -105.5 -195.5t-241.5 -68.5q-74 0 -141 20l31 98q31 -6 76 -6q66 0 118 29t52 92q0 100 -121 100l73 144q-14 -2 -43 -2q-172 0 -270 94t-98 268z" />
<glyph unicode="&#xe8;" horiz-adv-x="985" d="M33 332q0 131 44 255t125 225t209 163.5t281 62.5q137 0 207 -58t70 -146q0 -170 -176.5 -281t-485.5 -160v-41q0 -111 49.5 -176t145.5 -65q113 0 256 51l26 -78q-182 -98 -391 -98q-170 0 -265 89t-95 257zM317 504q391 152 392 350q0 82 -80 82q-100 0 -192.5 -126 t-119.5 -306zM346 1528q103 86 234 102l161 -397l-116 -57z" />
<glyph unicode="&#xe9;" horiz-adv-x="985" d="M33 332q0 131 44 255t125 225t209 163.5t281 62.5q137 0 207 -58t70 -146q0 -170 -176.5 -281t-485.5 -160v-41q0 -111 49.5 -176t145.5 -65q113 0 256 51l26 -78q-182 -98 -391 -98q-170 0 -265 89t-95 257zM317 504q391 152 392 350q0 82 -80 82q-100 0 -192.5 -126 t-119.5 -306zM586 1219l172 407q135 -16 233 -102l-289 -363z" />
<glyph unicode="&#xea;" horiz-adv-x="985" d="M33 332q0 131 44 255t125 225t209 163.5t281 62.5q137 0 207 -58t70 -146q0 -170 -176.5 -281t-485.5 -160v-41q0 -111 49.5 -176t145.5 -65q113 0 256 51l26 -78q-182 -98 -391 -98q-170 0 -265 89t-95 257zM211 1217l330 397h231l146 -397l-150 -50l-139 285l-277 -285 zM317 504q391 152 392 350q0 82 -80 82q-100 0 -192.5 -126t-119.5 -306z" />
<glyph unicode="&#xeb;" horiz-adv-x="985" d="M33 332q0 131 44 255t125 225t209 163.5t281 62.5q137 0 207 -58t70 -146q0 -170 -176.5 -281t-485.5 -160v-41q0 -111 49.5 -176t145.5 -65q113 0 256 51l26 -78q-182 -98 -391 -98q-170 0 -265 89t-95 257zM240 1394.5q0 69.5 47 115.5t116 46q68 0 114 -46t46 -115.5 t-46 -115.5t-114 -46q-70 0 -116.5 46t-46.5 115.5zM317 504q391 152 392 350q0 82 -80 82q-100 0 -192.5 -126t-119.5 -306zM688 1394.5q0 67.5 48 114.5t116 47q70 0 116 -46t46 -115.5t-46 -115.5t-116 -46q-68 0 -116 47t-48 114.5z" />
<glyph unicode="&#xec;" horiz-adv-x="679" d="M76 862v86l166 47q152 43 213 43q98 0 98 -71q0 -27 -21 -109l-174 -698h201v-84q-113 -35 -201 -60q-109 -31 -182 -30q-94 0 -94 80q0 20 18 98l176 698h-200zM106 1528q103 86 234 102l162 -397l-117 -57z" />
<glyph unicode="&#xed;" horiz-adv-x="679" d="M76 862v86l166 47q152 43 213 43q98 0 98 -71q0 -27 -21 -109l-174 -698h201v-84q-113 -35 -201 -60q-109 -31 -182 -30q-94 0 -94 80q0 20 18 98l176 698h-200zM328 1219l172 407q135 -16 233 -102l-289 -363z" />
<glyph unicode="&#xee;" horiz-adv-x="679" d="M35 1217l330 397h231l145 -397l-149 -50l-139 285l-277 -285zM76 862v86l166 47q152 43 213 43q98 0 98 -71q0 -27 -21 -109l-174 -698h201v-84q-113 -35 -201 -60q-109 -31 -182 -30q-94 0 -94 80q0 20 18 98l176 698h-200z" />
<glyph unicode="&#xef;" horiz-adv-x="679" d="M0 1394.5q0 69.5 47 115.5t117 46q68 0 114 -46t46 -115.5t-46.5 -115.5t-113.5 -46q-70 0 -117 46t-47 115.5zM76 862v86l166 47q152 43 213 43q98 0 98 -71q0 -27 -21 -109l-174 -698h201v-84q-113 -35 -201 -60q-109 -31 -182 -30q-94 0 -94 80q0 20 18 98l176 698 h-200zM449 1394.5q0 67.5 48 114.5t115 47q70 0 116 -46t46 -115.5t-46 -115.5t-116 -46q-68 0 -115.5 47t-47.5 114.5z" />
<glyph unicode="&#xf0;" horiz-adv-x="1202" d="M37 381q0 256 204.5 431t503.5 175q29 0 74 -4q-6 150 -55 242l-264 -162v160l182 108q-115 100 -295 101l31 120q270 0 432 -116l233 143v-160l-133 -82q145 -178 146 -503q0 -113 -18.5 -223.5t-65.5 -226.5t-119 -202t-189.5 -141t-265.5 -55q-188 0 -294.5 107.5 t-106.5 287.5zM313 334q1 -246 146 -246q84 0 152.5 70.5t111.5 185.5t66.5 250t27.5 274q-12 2 -33 2q-123 0 -218 -51t-147 -133t-79 -172t-27 -180z" />
<glyph unicode="&#xf1;" horiz-adv-x="1241" d="M51 -14l219 876h-196v86q162 43 252 64q125 27 153 26q72 0 72 -61q0 -39 -10 -82l-27 -92q201 236 393 235q94 0 140.5 -53t46.5 -143q0 -104 -68 -336l-98 -342h200v-88q-166 -43 -256 -64q-125 -27 -157 -26q-72 0 -72 59q1 23 19 82q41 156 79.5 296t56 198.5 t29 105.5t11.5 74q0 53 -43 53q-57 0 -149.5 -72.5t-186.5 -197.5l-146 -584zM352 1362q6 8 15.5 19.5t40 43t63.5 55t79 43t89 19.5q63 0 142 -55t128 -55q45 0 87 20.5t112 69.5l59 -76q-6 -8 -16 -19.5t-44 -42t-67.5 -54t-83 -43t-94.5 -19.5q-63 0 -146 54t-124 54 q-39 0 -74 -18.5t-104 -69.5z" />
<glyph unicode="&#xf2;" horiz-adv-x="1128" d="M37 360q0 170 80 325t229.5 254t329.5 99q170 0 270.5 -102t100.5 -274.5t-77 -325t-227 -251.5t-340 -99q-367 0 -366 374zM313 324q0 -236 115 -236q80 0 147.5 61.5t107.5 154.5t61.5 196.5t21.5 197.5q0 238 -115 238q-104 0 -185 -108.5t-117 -246t-36 -257.5z M362 1528q103 86 234 102l162 -397l-117 -57z" />
<glyph unicode="&#xf3;" horiz-adv-x="1128" d="M37 360q0 170 80 325t229.5 254t329.5 99q170 0 270.5 -102t100.5 -274.5t-77 -325t-227 -251.5t-340 -99q-367 0 -366 374zM313 324q0 -236 115 -236q80 0 147.5 61.5t107.5 154.5t61.5 196.5t21.5 197.5q0 238 -115 238q-104 0 -185 -108.5t-117 -246t-36 -257.5z M563 1219l172 407q135 -16 234 -102l-289 -363z" />
<glyph unicode="&#xf4;" horiz-adv-x="1128" d="M37 360q0 170 80 325t229.5 254t329.5 99q170 0 270.5 -102t100.5 -274.5t-77 -325t-227 -251.5t-340 -99q-367 0 -366 374zM313 324q0 -236 115 -236q80 0 147.5 61.5t107.5 154.5t61.5 196.5t21.5 197.5q0 238 -115 238q-104 0 -185 -108.5t-117 -246t-36 -257.5z M330 1217l329 397h232l145 -397l-149 -50l-139 285l-277 -285z" />
<glyph unicode="&#xf5;" horiz-adv-x="1128" d="M37 360q0 170 80 325t229.5 254t329.5 99q170 0 270.5 -102t100.5 -274.5t-77 -325t-227 -251.5t-340 -99q-367 0 -366 374zM250 1362q6 8 15 19.5t40 43t63.5 55t79 43t89.5 19.5q63 0 142 -55t128 -55q45 0 87 20.5t112 69.5l59 -76q-6 -8 -16.5 -19.5t-44 -42 t-67.5 -54t-83 -43t-94 -19.5q-63 0 -146.5 54t-124.5 54q-39 0 -73.5 -18.5t-104.5 -69.5zM313 324q0 -236 115 -236q80 0 147.5 61.5t107.5 154.5t61.5 196.5t21.5 197.5q0 238 -115 238q-104 0 -185 -108.5t-117 -246t-36 -257.5z" />
<glyph unicode="&#xf6;" horiz-adv-x="1128" d="M37 360q0 170 80 325t229.5 254t329.5 99q170 0 270.5 -102t100.5 -274.5t-77 -325t-227 -251.5t-340 -99q-367 0 -366 374zM297 1394.5q0 69.5 47 115.5t117 46q68 0 114 -46t46 -115.5t-46.5 -115.5t-113.5 -46q-70 0 -117 46t-47 115.5zM313 324q0 -236 115 -236 q80 0 147.5 61.5t107.5 154.5t61.5 196.5t21.5 197.5q0 238 -115 238q-104 0 -185 -108.5t-117 -246t-36 -257.5zM745 1394.5q0 67.5 48.5 114.5t115.5 47q70 0 116 -46t46 -115.5t-46 -115.5t-116 -46q-68 0 -116 47t-48 114.5z" />
<glyph unicode="&#xf7;" horiz-adv-x="1134" d="M139 647v168h922v-168h-922zM424 342q0 72 52 124t124 52t122 -52t50 -124q0 -70 -50 -122t-122 -52t-124 52t-52 122zM424 1130.5q0 71.5 52 123t124 51.5t123 -51.5t51 -123t-51 -124t-123 -52.5t-124 52.5t-52 124z" />
<glyph unicode="&#xf8;" horiz-adv-x="1128" d="M37 360q0 170 80 325t229.5 254t329.5 99q23 0 63 -4l72 131h156l-97 -174q176 -92 177 -329q0 -172 -77 -325t-227 -252t-340 -99q-43 0 -79 6l-74 -137h-158l96 176q-152 84 -151 329zM313 324q0 -43 2 -62l367 668q-12 6 -31 6q-104 0 -185 -108.5t-117 -245.5 t-36 -258zM383 98q20 -10 45 -10q80 0 147.5 61.5t107.5 154.5t61.5 196.5t21.5 197.5q0 51 -6 90z" />
<glyph unicode="&#xf9;" horiz-adv-x="1243" d="M68 860v88q166 43 256 64q125 27 155 26q74 0 74 -61q0 -19 -18 -82q-41 -156 -80 -296t-56.5 -199.5t-29 -105.5t-11.5 -75q0 -51 43 -51q57 0 149.5 72.5t184.5 195.5l148 588l262 14l-219 -878h198v-84q-164 -43 -254 -64q-121 -27 -153 -26q-72 0 -72 59q0 39 12 82 l25 92q-195 -233 -393 -233q-186 0 -187 194q0 94 68 336l98 344h-200zM440 1528q103 86 234 102l162 -397l-117 -57z" />
<glyph unicode="&#xfa;" horiz-adv-x="1243" d="M68 860v88q166 43 256 64q125 27 155 26q74 0 74 -61q0 -19 -18 -82q-41 -156 -80 -296t-56.5 -199.5t-29 -105.5t-11.5 -75q0 -51 43 -51q57 0 149.5 72.5t184.5 195.5l148 588l262 14l-219 -878h198v-84q-164 -43 -254 -64q-121 -27 -153 -26q-72 0 -72 59q0 39 12 82 l25 92q-195 -233 -393 -233q-186 0 -187 194q0 94 68 336l98 344h-200zM639 1219l172 407q135 -16 233 -102l-288 -363z" />
<glyph unicode="&#xfb;" horiz-adv-x="1243" d="M68 860v88q166 43 256 64q125 27 155 26q74 0 74 -61q0 -19 -18 -82q-41 -156 -80 -296t-56.5 -199.5t-29 -105.5t-11.5 -75q0 -51 43 -51q57 0 149.5 72.5t184.5 195.5l148 588l262 14l-219 -878h198v-84q-164 -43 -254 -64q-121 -27 -153 -26q-72 0 -72 59q0 39 12 82 l25 92q-195 -233 -393 -233q-186 0 -187 194q0 94 68 336l98 344h-200zM408 1217l329 397h232l145 -397l-149 -50l-140 285l-276 -285z" />
<glyph unicode="&#xfc;" horiz-adv-x="1243" d="M68 860v88q166 43 256 64q125 27 155 26q74 0 74 -61q0 -19 -18 -82q-41 -156 -80 -296t-56.5 -199.5t-29 -105.5t-11.5 -75q0 -51 43 -51q57 0 149.5 72.5t184.5 195.5l148 588l262 14l-219 -878h198v-84q-164 -43 -254 -64q-121 -27 -153 -26q-72 0 -72 59q0 39 12 82 l25 92q-195 -233 -393 -233q-186 0 -187 194q0 94 68 336l98 344h-200zM311 1394.5q0 69.5 47.5 115.5t116.5 46q68 0 114 -46t46 -115.5t-46 -115.5t-114 -46q-70 0 -117 46t-47 115.5zM760 1394.5q0 67.5 48 114.5t116 47q70 0 115.5 -46t45.5 -115.5t-46 -115.5t-115 -46 q-68 0 -116 47t-48 114.5z" />
<glyph unicode="&#xfd;" horiz-adv-x="1128" d="M-2 -492q0 61 46 121t165 168.5t182 175.5l-160 889h-206v86q82 27 151 45q152 45 189 45q88 0 104 -82l133 -741q276 365 277 543q0 35 -22.5 68.5t-47.5 54t-70 53.5q88 104 211 104q63 0 106.5 -41t43.5 -112q0 -248 -453 -795q-84 -100 -164 -191.5t-115.5 -130 t-65.5 -76.5t-38 -58.5t-8 -47.5q0 -47 68 -121q-72 -80 -191 -79q-59 0 -97 32.5t-38 89.5zM567 1219l172 407q135 -16 234 -102l-289 -363z" />
<glyph unicode="&#xfe;" horiz-adv-x="1148" d="M-145 -614l475 1890h-201v84q162 43 252 63q125 27 154 27q74 0 73 -61q0 -29 -12 -82l-109 -455q164 186 357 186q98 0 163.5 -72.5t65.5 -222.5q0 -326 -197.5 -541.5t-480.5 -215.5q-74 0 -127 14l-149 -584zM295 104q49 -8 80 -8q123 0 225 105.5t152.5 242 t50.5 254.5q0 179 -88 179q-131 0 -283 -242z" />
<glyph unicode="&#xff;" horiz-adv-x="1128" d="M-2 -492q0 61 46 121t165 168.5t182 175.5l-160 889h-206v86q82 27 151 45q152 45 189 45q88 0 104 -82l133 -741q276 365 277 543q0 35 -22.5 68.5t-47.5 54t-70 53.5q88 104 211 104q63 0 106.5 -41t43.5 -112q0 -248 -453 -795q-84 -100 -164 -191.5t-115.5 -130 t-65.5 -76.5t-38 -58.5t-8 -47.5q0 -47 68 -121q-72 -80 -191 -79q-59 0 -97 32.5t-38 89.5zM260 1394.5q0 69.5 47 115.5t117 46q68 0 114 -46t46 -115.5t-46 -115.5t-114 -46q-70 0 -117 46t-47 115.5zM709 1394.5q0 67.5 48 114.5t115 47q70 0 116 -46t46 -115.5 t-46 -115.5t-116 -46q-68 0 -115.5 47t-47.5 114.5z" />
<glyph unicode="&#x152;" horiz-adv-x="2082" d="M92 477q0 248 104.5 468t306.5 362.5t453 142.5q238 0 349 -180l41 164h806l-104 -420h-98l-13 272h-378l-125 -493l385 38l-45 -192l-369 35l-135 -527h385l209 295h98l-166 -442h-807l43 168q-182 -182 -440 -182q-500 0 -500 491zM371 436q0 -147 62 -233t185 -86 q115 0 214.5 64.5t163 163.5t109.5 220t66.5 231.5t20.5 200.5q0 150 -67.5 236t-188.5 86q-129 0 -239.5 -89t-179 -224.5t-107.5 -286t-39 -283.5z" />
<glyph unicode="&#x153;" horiz-adv-x="1710" d="M37 360q0 274 180 476t461 202q221 0 313 -170q180 170 418 170q287 1 287 -204q0 -92 -59.5 -167t-167 -126.5t-210 -83t-233.5 -60.5q-2 -14 -2 -45q0 -143 43 -194.5t147 -51.5q125 0 271 56l22 -74q-197 -102 -397 -102q-231 0 -311 151q-172 -152 -393 -151 q-182 0 -275.5 96t-93.5 278zM315 324q0 -236 121 -236q94 0 174 107.5t120 246t40 256.5q0 238 -121 238q-82 0 -148.5 -63.5t-105.5 -160t-59.5 -198.5t-20.5 -190zM1036 498q156 53 273.5 150t117.5 216q1 76 -67 76q-113 0 -201 -126t-123 -316z" />
<glyph unicode="&#x178;" horiz-adv-x="1284" d="M521 1733.5q0 69.5 47 115.5t117 46q68 0 114 -46t46 -115.5t-46.5 -115.5t-113.5 -46q-70 0 -117 46t-47 115.5zM969 1733.5q0 67.5 48.5 114.5t115.5 47q70 0 116 -46t46 -115.5t-46 -115.5t-116 -46q-68 0 -116 47t-48 114.5zM152 1329l26 105h555l-24 -105l-125 -24 l161 -469l359 454l-146 39l27 105h504l-29 -105l-170 -51l-487 -610l-129 -518l180 -46l-25 -104h-620l24 104l175 46l127 518l-218 616z" />
<glyph unicode="&#x2c6;" horiz-adv-x="716" d="M-14 1217l329 397h232l145 -397l-149 -50l-140 285l-276 -285z" />
<glyph unicode="&#x2dc;" horiz-adv-x="899" d="M57 1362q6 8 15.5 19.5t40 43t63.5 55t79 43t89 19.5q63 0 142 -55t128 -55q45 0 87 20.5t112 69.5l59 -76q-6 -8 -16 -19.5t-44 -42t-67.5 -54t-83 -43t-94.5 -19.5q-63 0 -146 54t-124 54q-39 0 -74 -18.5t-104 -69.5z" />
<glyph unicode="&#x2000;" horiz-adv-x="948" />
<glyph unicode="&#x2001;" horiz-adv-x="1896" />
<glyph unicode="&#x2002;" horiz-adv-x="948" />
<glyph unicode="&#x2003;" horiz-adv-x="1896" />
<glyph unicode="&#x2004;" horiz-adv-x="632" />
<glyph unicode="&#x2005;" horiz-adv-x="474" />
<glyph unicode="&#x2006;" horiz-adv-x="316" />
<glyph unicode="&#x2007;" horiz-adv-x="316" />
<glyph unicode="&#x2008;" horiz-adv-x="237" />
<glyph unicode="&#x2009;" horiz-adv-x="379" />
<glyph unicode="&#x200a;" horiz-adv-x="105" />
<glyph unicode="&#x2010;" horiz-adv-x="733" d="M131 467v186h447v-186h-447z" />
<glyph unicode="&#x2011;" horiz-adv-x="733" d="M131 467v186h447v-186h-447z" />
<glyph unicode="&#x2012;" horiz-adv-x="733" d="M131 467v186h447v-186h-447z" />
<glyph unicode="&#x2013;" horiz-adv-x="1261" d="M109 473v172h1044v-172h-1044z" />
<glyph unicode="&#x2014;" horiz-adv-x="2285" d="M109 473v170h2068v-170h-2068z" />
<glyph unicode="&#x2018;" horiz-adv-x="536" d="M180 991q0 152 131.5 293t274.5 219l67 -88q-168 -135 -239 -305l116 -119q0 -72 -52 -123t-124 -51q-74 0 -124 49t-50 125z" />
<glyph unicode="&#x2019;" horiz-adv-x="526" d="M156 903q170 139 239 307l-116 119q0 72 52 123t124 51q74 0 124 -49t50 -125q0 -152 -131.5 -293t-274.5 -219z" />
<glyph unicode="&#x201a;" horiz-adv-x="528" d="M-139 -264q170 139 239 307l-116 119q0 72 52 123t124 51q74 0 124 -50t50 -124q0 -152 -132.5 -295t-273.5 -217z" />
<glyph unicode="&#x201c;" horiz-adv-x="960" d="M180 991q0 152 131.5 293t274.5 219l67 -88q-168 -135 -239 -305l116 -119q0 -72 -52 -123t-124 -51q-74 0 -124 49t-50 125zM606 991q0 152 131.5 294t274.5 218l67 -88q-170 -135 -241 -305l116 -119q0 -72 -52 -123t-124 -51q-74 0 -123 49t-49 125z" />
<glyph unicode="&#x201d;" horiz-adv-x="952" d="M156 903q170 139 239 307l-116 119q0 72 52 123t124 51q74 0 124 -49t50 -125q0 -152 -131.5 -293t-274.5 -219zM580 903q170 139 241 307l-116 119q0 72 52 123t124 51q74 0 124 -49t50 -125q0 -152 -132.5 -293t-275.5 -219z" />
<glyph unicode="&#x201e;" horiz-adv-x="952" d="M-147 -317q170 139 239 307l-117 119q0 72 52.5 123t124.5 51q74 0 124 -49.5t50 -124.5q0 -152 -132.5 -295t-273.5 -217zM276 -317q170 139 242 307l-117 119q0 72 52.5 123t124.5 51q74 0 124 -49.5t50 -124.5q0 -152 -133.5 -295t-274.5 -217z" />
<glyph unicode="&#x2022;" horiz-adv-x="931" d="M147 731q0 141 101.5 242.5t243.5 101.5q139 0 241.5 -101.5t102.5 -242.5t-102.5 -242.5t-241.5 -101.5q-141 0 -243 101.5t-102 242.5z" />
<glyph unicode="&#x2026;" horiz-adv-x="1572" d="M1036 161.5q0 71.5 52 123t124 51.5t123 -51.5t51 -123t-51 -123.5t-123 -52t-124 52t-52 123.5zM512 161.5q0 71.5 52 123t124 51.5t123 -51.5t51 -123t-51 -123.5t-123 -52t-124 52t-52 123.5zM-12 161.5q0 71.5 52 123t124 51.5t123 -51.5t51 -123t-51 -123.5 t-123 -52t-124 52t-52 123.5z" />
<glyph unicode="&#x202f;" horiz-adv-x="379" />
<glyph unicode="&#x2039;" horiz-adv-x="651" d="M72 520l18 66l385 356h146l-293 -389l98 -389h-145z" />
<glyph unicode="&#x203a;" horiz-adv-x="651" d="M6 164l295 389l-98 389h145l207 -356l-16 -66l-385 -356h-148z" />
<glyph unicode="&#x205f;" horiz-adv-x="474" />
<glyph unicode="&#x20ac;" horiz-adv-x="1394" d="M70 487l30 109l101 6q8 86 35 176h-95l29 107l104 6q100 246 305 402.5t474 156.5q111 0 210 -20.5t144 -40.5l45 -21l-94 -379h-121l-12 305q-57 16 -123 17q-176 0 -321.5 -109.5t-229.5 -294.5l510 31l-62 -160h-495q-20 -76 -31 -162l481 29l-61 -158h-426 q2 -174 75.5 -264t192.5 -90q84 0 150 19l235 311h119l-145 -377q-174 -100 -412 -100q-248 0 -367.5 140t-119.5 361h-125z" />
<glyph unicode="&#x2122;" horiz-adv-x="3139" d="M1102 0l26 104l197 50l344 1132l-160 43l27 105h422l155 -1037l658 1037h454l-26 -105l-181 -41l-223 -1138l178 -46l-28 -104h-621l27 104l178 43l184 924l-690 -1081h-108l-164 1083l-275 -926l162 -43l-26 -104h-510zM145 0l25 104l188 46l285 1136h-240l-153 -287 h-100l108 435h1106l-109 -435h-98l-10 287h-240l-284 -1136l168 -46l-27 -104h-619z" />
<glyph unicode="&#xe000;" horiz-adv-x="1040" d="M0 1040h1040v-1040h-1040v1040z" />
<glyph unicode="&#xfb01;" horiz-adv-x="1438" d="M835 862v86l166 47q152 43 213 43q98 0 98 -71q0 -27 -21 -109l-174 -698h201v-84q-111 -35 -199 -60q-111 -30 -180 -30h-4q-92 0 -92 80q0 28 16 98l176 698h-200zM1109 1329q0 74 51.5 124t122.5 50q74 0 124 -50t50 -124q0 -72 -50 -123t-124 -51q-72 0 -123 51 t-51 123zM-627 -453q0 133 187 226q6 -20 22.5 -64.5t22.5 -62t20.5 -50t24.5 -47t26.5 -32t35 -23.5t40.5 -6q84 0 157 94t118 283l254 1044h-154l25 88l153 13l39 164q111 479 600 479q178 0 264 -48.5t86 -131.5q0 -66 -51 -126.5t-133 -97.5l-20 52q-13 36 -18 50.5 t-17.5 43t-20.5 41t-20.5 33t-23.5 29.5t-26.5 19.5t-32 14.5t-36.5 4q-39 0 -74 -13.5t-78 -53t-82.5 -128t-72.5 -219.5l-25 -98l299 25l-35 -140h-290l-254 -1048q-119 -492 -576 -492q-150 0 -242 45t-92 133z" />
<glyph unicode="&#xfb02;" horiz-adv-x="1402" d="M804 66q0 24 18 98l328 1313h-198v86l165 47q150 43 213 43q98 0 99 -74q0 -25 -21 -106l-330 -1313h203v-84q-113 -35 -200 -60q-106 -30 -178 -30h-5q-94 0 -94 80zM-627 -453q0 133 187 226q6 -20 22.5 -64.5t22.5 -62t20.5 -50t24.5 -47t26.5 -32t35 -23.5t40.5 -6 q84 0 157 94t118 283l254 1044h-154l25 88l153 13l39 164q111 479 600 479q178 0 264 -48.5t86 -131.5q0 -66 -51 -126.5t-133 -97.5l-20 52q-13 36 -18 50.5t-17.5 43t-20.5 41t-20.5 33t-23.5 29.5t-26.5 19.5t-32 14.5t-36.5 4q-39 0 -74 -13.5t-78 -53t-82.5 -128 t-72.5 -219.5l-25 -98l299 25l-35 -140h-290l-254 -1048q-119 -492 -576 -492q-150 0 -242 45t-92 133z" />
<glyph unicode="&#xfb03;" horiz-adv-x="2197" d="M1594 862v86l166 47q152 43 213 43q98 0 98 -71q0 -27 -21 -109l-174 -698h201v-84q-111 -35 -199 -60q-111 -30 -180 -30h-4q-92 0 -92 80q0 28 16 98l176 698h-200zM1868 1329q0 74 51.5 124t122.5 50q74 0 124 -50t50 -124q0 -72 -50 -123t-124 -51q-72 0 -123 51 t-51 123zM132 -453q0 133 187 226q6 -20 22.5 -64.5t22.5 -62t20.5 -50t24.5 -47t26.5 -32t35 -23.5t40.5 -6q84 0 157 94t118 283l254 1044h-154l25 88l153 13l39 164q111 479 600 479q178 0 264 -48.5t86 -131.5q0 -66 -51 -126.5t-133 -97.5l-20 52q-13 36 -18 50.5 t-17.5 43t-20.5 41t-20.5 33t-23.5 29.5t-26.5 19.5t-32 14.5t-36.5 4q-39 0 -74 -13.5t-78 -53t-82.5 -128t-72.5 -219.5l-25 -98l299 25l-35 -140h-290l-254 -1048q-119 -492 -576 -492q-150 0 -242 45t-92 133zM-627 -453q0 133 187 226q6 -20 22.5 -64.5t22.5 -62 t20.5 -50t24.5 -47t26.5 -32t35 -23.5t40.5 -6q84 0 157 94t118 283l254 1044h-154l25 88l153 13l39 164q111 479 600 479q178 0 264 -48.5t86 -131.5q0 -66 -51 -126.5t-133 -97.5l-20 52q-13 36 -18 50.5t-17.5 43t-20.5 41t-20.5 33t-23.5 29.5t-26.5 19.5t-32 14.5 t-36.5 4q-39 0 -74 -13.5t-78 -53t-82.5 -128t-72.5 -219.5l-25 -98l299 25l-35 -140h-290l-254 -1048q-119 -492 -576 -492q-150 0 -242 45t-92 133z" />
<glyph unicode="&#xfb04;" horiz-adv-x="2161" d="M1563 66q0 24 18 98l328 1313h-198v86l165 47q150 43 213 43q98 0 99 -74q0 -25 -21 -106l-330 -1313h203v-84q-113 -35 -200 -60q-106 -30 -178 -30h-5q-94 0 -94 80zM132 -453q0 133 187 226q6 -20 22.5 -64.5t22.5 -62t20.5 -50t24.5 -47t26.5 -32t35 -23.5t40.5 -6 q84 0 157 94t118 283l254 1044h-154l25 88l153 13l39 164q111 479 600 479q178 0 264 -48.5t86 -131.5q0 -66 -51 -126.5t-133 -97.5l-20 52q-13 36 -18 50.5t-17.5 43t-20.5 41t-20.5 33t-23.5 29.5t-26.5 19.5t-32 14.5t-36.5 4q-39 0 -74 -13.5t-78 -53t-82.5 -128 t-72.5 -219.5l-25 -98l299 25l-35 -140h-290l-254 -1048q-119 -492 -576 -492q-150 0 -242 45t-92 133zM-627 -453q0 133 187 226q6 -20 22.5 -64.5t22.5 -62t20.5 -50t24.5 -47t26.5 -32t35 -23.5t40.5 -6q84 0 157 94t118 283l254 1044h-154l25 88l153 13l39 164 q111 479 600 479q178 0 264 -48.5t86 -131.5q0 -66 -51 -126.5t-133 -97.5l-20 52q-13 36 -18 50.5t-17.5 43t-20.5 41t-20.5 33t-23.5 29.5t-26.5 19.5t-32 14.5t-36.5 4q-39 0 -74 -13.5t-78 -53t-82.5 -128t-72.5 -219.5l-25 -98l299 25l-35 -140h-290l-254 -1048 q-119 -492 -576 -492q-150 0 -242 45t-92 133z" />
</font>
</defs>
</svg>
