<?xml version="1.0" standalone="no"?>
<!DOCTYPE svg PUBLIC "-//W3C//DTD SVG 1.1//EN" "http://www.w3.org/Graphics/SVG/1.1/DTD/svg11.dtd" >
<svg xmlns="http://www.w3.org/2000/svg">
<metadata>
This is a custom SVG webfont generated by Font Squirrel.
Copyright   : Copyright c 2011 Cyreal wwwcyrealorgwith Reserved Font Name Volkhov and Volkhov BoldThis Font Software is licensed under the SIL Open Font LicenseVersion 11 This license is available with a FAQ athttpscriptssilorgOFL
Designer    : Cyreal wwwcyrealorg
Foundry     : Cyreal wwwcyrealorg
Foundry URL : httpcyrealorg
</metadata>
<defs>
<font id="VolkhovBold" horiz-adv-x="1585" >
<font-face units-per-em="2048" ascent="1638" descent="-410" />
<missing-glyph horiz-adv-x="456" />
<glyph unicode=" "  horiz-adv-x="456" />
<glyph unicode="&#x09;" horiz-adv-x="456" />
<glyph unicode="&#xa0;" horiz-adv-x="456" />
<glyph unicode="!" horiz-adv-x="612" d="M131 145q0 72 52.5 123t124 51t122.5 -51t51 -123q0 -70 -51 -123t-123 -53q-70 0 -123 53t-53 123zM154 1434h303l-41 -1008h-221z" />
<glyph unicode="&#x22;" horiz-adv-x="768" d="M78 1464h258l-62 -481h-135zM434 1464h256l-61 -481h-135z" />
<glyph unicode="#" horiz-adv-x="1247" d="M94 391v170h195l67 352h-206v170h237l70 381h176l-72 -381h236l71 381h176l-73 -381h184v-170h-215l-68 -352h228v-170h-260l-72 -391h-174l72 391h-234l-74 -391h-174l72 391h-162zM463 561h235l68 352h-236z" />
<glyph unicode="$" horiz-adv-x="1261" d="M113 66v376h114l105 -303q98 -31 227 -30h8v514l-59 26q-174 76 -276.5 178.5t-102.5 266.5q0 156 121 254t317 114v129h152v-129q217 -12 356 -61v-377h-114l-101 289q-53 10 -141 14v-448q23 -10 41 -17q100 -35 182 -87t148.5 -143t74.5 -202q0 -203 -120.5 -318.5 t-325.5 -136.5v-145h-152v139q-266 11 -454 97zM399 1151q0 -113 168 -205v371q-80 -18 -124 -62.5t-44 -103.5zM719 133q82 29 130 84t48 123q0 125 -178 217v-424z" />
<glyph unicode="%" horiz-adv-x="1527" d="M80 1112.5q0 151.5 85 251.5t236.5 100t235.5 -100t84 -251.5t-84 -252t-235.5 -100.5t-236.5 100.5t-85 252zM297 1112q0 -252 104 -252q103 0 103 252t-103 252q-104 0 -104 -252zM317 0l715 1434h174l-712 -1434h-177zM805 321.5q0 151.5 85 252t236.5 100.5 t236.5 -100.5t85 -252t-85 -252t-236.5 -100.5t-236.5 100.5t-85 252zM1022 322q0 -252 104.5 -252t104.5 252q0 250 -104.5 249.5t-104.5 -249.5z" />
<glyph unicode="&#x26;" horiz-adv-x="1581" d="M74 340q0 258 311 408q-98 111 -141 197.5t-43 189.5q0 154 111.5 241.5t310.5 87.5q195 0 306 -93t111 -228q0 -221 -299 -381l303 -299q37 88 54 199l-123 45v112h440v-112l-174 -45q-25 -166 -90 -302l205 -194l227 -53v-113h-426l-151 145q-172 -176 -435 -176 q-236 0 -366.5 96.5t-130.5 274.5zM354 354q0 -106 67.5 -168.5t180.5 -62.5q184 0 303 119l-411 393q-139 -119 -140 -281zM463 1157q0 -25 4 -46t17.5 -46t20.5 -39t29.5 -41t29.5 -35t37 -38.5t34 -34.5q143 115 143 274q0 82 -43 129t-117 47q-70 0 -112.5 -45 t-42.5 -125z" />
<glyph unicode="'" horiz-adv-x="434" d="M78 1464h278l-61 -481h-156z" />
<glyph unicode="(" horiz-adv-x="704" d="M61 512q0 360 160 661.5t412 479.5l72 -94q-193 -193 -297.5 -469.5t-104.5 -577.5q0 -305 105.5 -583t298.5 -468l-74 -90q-252 170 -412 472t-160 669z" />
<glyph unicode=")" horiz-adv-x="704" d="M-2 -539q193 190 297 468t104 583q0 303 -104.5 579.5t-296.5 467.5l72 94q252 -178 412.5 -480.5t160.5 -660.5q0 -367 -160.5 -669t-412.5 -472z" />
<glyph unicode="*" horiz-adv-x="976" d="M90 1194l66 201l272 -142l-47 303h213l-47 -303l274 140l66 -199l-301 -57l213 -217l-170 -125l-142 270l-141 -272l-174 133l219 213z" />
<glyph unicode="+" horiz-adv-x="1116" d="M88 641v178h381v381h176v-381h383v-178h-383v-381h-176v381h-381z" />
<glyph unicode="," horiz-adv-x="542" d="M51 -276q121 125 191 266l-166 104q0 84 56 139.5t132 55.5q92 0 141.5 -52.5t49.5 -148.5q0 -119 -99.5 -249.5t-208.5 -200.5z" />
<glyph unicode="-" horiz-adv-x="686" d="M119 463v196h448v-196h-448z" />
<glyph unicode="." horiz-adv-x="518" d="M84 129q0 72 52 123t124 51t123 -51t51 -123q0 -70 -51 -123t-123 -53q-70 0 -123 53t-53 123z" />
<glyph unicode="/" horiz-adv-x="946" d="M59 0l637 1434h193l-635 -1434h-195z" />
<glyph unicode="0" horiz-adv-x="1294" d="M98 717q0 201 58.5 366.5t186.5 273t304 107.5t304 -107.5t186.5 -273t58.5 -366.5t-58.5 -367t-186.5 -273.5t-304 -107.5t-304 107.5t-186.5 273.5t-58.5 367zM438 717q0 -606 209 -606t209 606t-209 606t-209 -606z" />
<glyph unicode="1" horiz-adv-x="905" d="M53 1206l432 228h179v-1293l174 -32v-109h-742v109l236 41v1056l-246 -104z" />
<glyph unicode="2" horiz-adv-x="1114" d="M63 0v143q31 31 75 79t135.5 161t161 221.5t124.5 244.5t55 245q0 102 -45 175.5t-116 73.5l-242 -241q-109 100 -117 260q199 102 434 102q190 0 309 -84t119 -258q0 -379 -538 -862h428l80 160h110l-57 -420h-916z" />
<glyph unicode="3" horiz-adv-x="1118" d="M43 53l43 121q158 -57 289 -57q143 0 227 78.5t84 195.5q0 139 -99.5 217t-264.5 78v133q123 0 206.5 82t83.5 217q0 100 -56 165t-118 65l-229 -230q-35 25 -70 108t-39 140q18 10 51 26.5t134.5 44t206.5 27.5q240 0 350 -90.5t110 -240.5q0 -119 -86 -214.5 t-241 -142.5q195 -31 299 -132t104 -249q0 -211 -159.5 -318.5t-409.5 -107.5q-225 0 -416 84z" />
<glyph unicode="4" horiz-adv-x="1191" d="M25 262v121l780 1051h149v-1010h162v-162h-162v-293h-301v293h-628zM270 424h383v508z" />
<glyph unicode="5" horiz-adv-x="1101" d="M43 55l49 111q123 -51 230 -51q150 0 247 84t97 247q0 156 -80 237t-215 81q-76 0 -172 -23l-45 29l59 664h584l137 145l104 -49l-143 -354h-549l-27 -275q109 23 199 23q236 0 361 -128t125 -331q0 -160 -87.5 -275.5t-215.5 -168t-275 -52.5q-228 0 -379 84z" />
<glyph unicode="6" horiz-adv-x="1187" d="M94 614q0 371 231.5 602.5t610.5 231.5h16l-4 -139q-217 0 -350 -139.5t-174 -374.5q121 106 274 106q207 0 316.5 -133t109.5 -334q0 -197 -132 -331t-359 -134q-254 0 -396.5 178.5t-142.5 466.5zM408 596q0 -154 15 -256t59 -170t118 -68q78 0 133 90.5t55 206.5 q0 147 -61.5 231.5t-161.5 84.5q-92 0 -155 -45q-2 -25 -2 -74z" />
<glyph unicode="7" horiz-adv-x="1017" d="M53 1014l58 420h905v-91q-406 -552 -486 -1343h-327q35 281 177 606.5t308 567.5h-448l-76 -160h-111z" />
<glyph unicode="8" horiz-adv-x="1206" d="M115 334q0 211 270 405q-233 176 -233 373q0 174 128 263t324 89q188 0 315.5 -88t127.5 -246q0 -186 -191 -333q244 -172 244 -410q0 -184 -147.5 -301t-366.5 -117q-221 0 -346 97.5t-125 267.5zM360 332q0 -100 60.5 -164t154.5 -64q88 0 147.5 59t59.5 161 q0 66 -42 128t-89 100t-135 97q-156 -158 -156 -317zM467 1163q0 -57 38 -110.5t82 -84t126 -81.5q92 115 92 241q0 90 -48 142.5t-132 52.5q-61 0 -109.5 -45t-48.5 -115z" />
<glyph unicode="9" horiz-adv-x="1187" d="M63 997q0 199 132.5 333t359.5 134q254 0 396.5 -178t142.5 -467q0 -373 -232.5 -611.5t-609.5 -238.5h-16l2 140q219 0 352 144t174 386q-117 -109 -275 -109q-207 0 -316.5 133.5t-109.5 333.5zM399 1032q0 -147 62 -231t162 -84q88 0 155 45q0 12 1 36.5t1 39.5 q0 236 -43 364.5t-151 128.5q-76 0 -131.5 -91t-55.5 -208z" />
<glyph unicode=":" horiz-adv-x="583" d="M117 143q0 72 52 123t124 51t123 -51t51 -123q0 -70 -51 -123t-123 -53q-70 0 -123 53t-53 123zM117 825q0 72 52 123t124 51t123 -51t51 -123q0 -70 -51 -123t-123 -53q-70 0 -123 53t-53 123z" />
<glyph unicode=";" horiz-adv-x="602" d="M88 -276q121 125 191 266l-166 104q0 84 56 139.5t132 55.5q92 0 141.5 -52.5t49.5 -148.5q0 -119 -99.5 -249.5t-208.5 -200.5zM121 825q0 72 52 123t124 51t123 -51t51 -123q0 -70 -51 -123t-123 -53q-70 0 -123 53t-53 123z" />
<glyph unicode="&#x3c;" horiz-adv-x="1107" d="M80 664v137l881 473v-205l-627 -338l627 -336v-205z" />
<glyph unicode="=" horiz-adv-x="1206" d="M133 473v176h940v-176h-940zM133 811v178h940v-178h-940z" />
<glyph unicode="&#x3e;" horiz-adv-x="1107" d="M147 190v205l627 336l-627 338v205l881 -473v-137z" />
<glyph unicode="?" horiz-adv-x="1005" d="M74 1366q18 10 53 26.5t141.5 44t214.5 27.5q219 0 329 -92t110 -258q0 -152 -96.5 -264.5t-303.5 -265.5l-30 -191h-123l-31 250q96 109 141 168t83 146t38 178q0 94 -56 158.5t-132 64.5l-242 -232q-88 86 -96 240zM254 145q0 72 52 123t124 51t123 -51t51 -123 q0 -70 -51 -123t-123 -53q-70 0 -123 53t-53 123z" />
<glyph unicode="@" horiz-adv-x="1880" d="M106 588q0 379 267.5 627.5t664.5 248.5q338 0 549 -180t211 -461q0 -272 -210 -446t-503 -174q-94 0 -94 78q0 25 17 90q-141 -168 -303 -168q-96 0 -143.5 67.5t-47.5 182.5q0 264 177 453.5t411 189.5q184 0 338 -80l-170 -660q160 41 258 171t98 313q0 217 -167 354 t-417 137q-182 0 -340.5 -87t-261 -260t-102.5 -398q0 -315 201.5 -493.5t500.5 -178.5q199 0 381 76l41 -94q-207 -121 -475 -121q-395 0 -638 213t-243 600zM791 436q0 -78 43 -78q49 0 121.5 81t117.5 177l94 367q-20 4 -41 4q-90 0 -168.5 -88t-122.5 -214t-44 -249z " />
<glyph unicode="A" horiz-adv-x="1499" d="M-20 0v115l200 47l490 1282h178l459 -1282l196 -47v-115h-694v115l145 35l-88 245h-430l-92 -239l172 -41v-115h-536zM492 537h323l-160 436z" />
<glyph unicode="B" horiz-adv-x="1384" d="M68 0v115l188 45v1114l-188 45v115h626q240 0 381.5 -83t141.5 -266q0 -111 -80 -199.5t-189 -115.5v-6q170 -31 270.5 -126t100.5 -235q0 -182 -155.5 -292.5t-393.5 -110.5h-702zM590 145h72q317 0 317 258q0 125 -77 195t-230 70h-82v-523zM590 817h28q109 0 184 65.5 t75 184.5q0 221 -271 221h-16v-471z" />
<glyph unicode="C" horiz-adv-x="1343" d="M88 717q0 358 191.5 552.5t560.5 194.5q98 0 212.5 -23.5t186.5 -56.5v-378h-115l-90 288q-70 12 -116 13q-256 0 -373 -142.5t-117 -447.5q0 -303 110.5 -446.5t344.5 -143.5q49 0 114 10l152 309h115l-54 -376q-72 -39 -183.5 -70t-221.5 -31q-344 0 -530.5 195.5 t-186.5 552.5z" />
<glyph unicode="D" horiz-adv-x="1538" d="M68 0v115l188 45v1114l-188 45v115h614q373 0 570.5 -198t197.5 -519q0 -319 -197.5 -518t-570.5 -199h-614zM590 158h61q88 0 164 25.5t145.5 85t109.5 174t40 274.5t-40 274.5t-109.5 174t-145.5 85t-164 25.5h-61v-1118z" />
<glyph unicode="E" horiz-adv-x="1290" d="M68 0v115l188 45v1114l-188 45v115h1087v-420h-121l-82 262h-362v-475l381 35v-203l-381 31v-506h366l140 284h121l-62 -442h-1087z" />
<glyph unicode="F" horiz-adv-x="1191" d="M68 0v115l188 45v1114l-188 45v115h1077v-420h-115l-82 262h-358v-471l381 31v-203l-381 29v-502l229 -45v-115h-751z" />
<glyph unicode="G" horiz-adv-x="1492" d="M86 716.5q0 356.5 206 552t587 195.5q215 0 399 -80v-378h-115l-94 303q-70 8 -113 8q-248 0 -389 -151.5t-141 -448.5q0 -600 489 -600q35 0 60 2v389l-234 72v94h719v-94l-151 -72v-438q-82 -43 -213 -72t-258 -29q-360 0 -556 195.5t-196 552z" />
<glyph unicode="H" horiz-adv-x="1689" d="M68 0v115l188 45v1114l-188 45v115h710v-115l-188 -45v-471h510v471l-189 45v115h711v-115l-188 -45v-1114l188 -45v-115h-711v115l189 45v485h-510v-485l188 -45v-115h-710z" />
<glyph unicode="I" horiz-adv-x="845" d="M68 0v115l188 45v1114l-188 45v115h710v-115l-188 -45v-1114l188 -45v-115h-710z" />
<glyph unicode="J" horiz-adv-x="804" d="M8 -211q231 164 232 518v967l-189 45v115h711v-115l-189 -45v-967q0 -215 -142 -393t-302 -248z" />
<glyph unicode="K" horiz-adv-x="1558" d="M68 0v115l188 45v1114l-188 45v115h710v-115l-188 -45v-1114l188 -45v-115h-710zM635 715l442 563l-125 41v115h533v-115l-195 -45l-344 -428l438 -645l193 -86v-115h-475z" />
<glyph unicode="L" horiz-adv-x="1236" d="M68 0v115l188 45v1114l-188 45v115h710v-115l-188 -45v-1116h373l139 284h115l-62 -442h-1087z" />
<glyph unicode="M" horiz-adv-x="2091" d="M33 0v115l194 47l64 1114l-180 43l4 115h508l421 -977l439 977h495v-115l-182 -43l72 -1116l196 -45v-115h-718v115l180 43l-56 860l-458 -1028h-133l-445 1034l-47 -866l182 -43v-115h-536z" />
<glyph unicode="N" horiz-adv-x="1705" d="M68 0v115l188 45v1114l-188 45v115h352l878 -963v803l-188 45v115h547v-115l-189 -45v-1274h-198l-850 930v-770l188 -45v-115h-540z" />
<glyph unicode="O" d="M86 717q0 328 180 537.5t526.5 209.5t526.5 -211t180 -536q0 -328 -180 -538t-526 -210q-233 0 -396.5 102.5t-237 267.5t-73.5 378zM430 716.5q0 -276.5 88.5 -441t274.5 -164.5q184 0 273 164.5t89 441t-89 441.5t-273 165q-186 0 -274.5 -165t-88.5 -441.5z" />
<glyph unicode="P" horiz-adv-x="1316" d="M68 0v115l188 45v1114l-188 45v115h579q297 0 461 -103.5t164 -345.5q0 -123 -52.5 -214t-142.5 -143.5t-198.5 -78t-235.5 -25.5h-53v-364l250 -45v-115h-772zM590 674h43q125 0 212 78.5t87 232.5q0 147 -81 223t-204 76h-57v-610z" />
<glyph unicode="Q" d="M86 717q0 328 180 537.5t526.5 209.5t526.5 -211t180 -536q0 -242 -100.5 -425t-296.5 -265q78 -66 189.5 -108t183.5 -50l71 -8l-76 -148q-455 0 -733 258q-322 18 -486.5 224t-164.5 522zM430 716.5q0 -276.5 88.5 -441t274.5 -164.5q184 0 273 164.5t89 441t-89 441.5 t-273 165q-186 0 -274.5 -165t-88.5 -441.5z" />
<glyph unicode="R" horiz-adv-x="1462" d="M68 0v115l188 45v1114l-188 45v115h641q285 0 427 -103.5t142 -294.5q0 -129 -74 -225t-203 -135l287 -518l197 -49v-109h-498l-325 621h-72v-461l178 -45v-115h-700zM590 764h59q143 0 219 73.5t76 198.5q0 113 -78 180.5t-219 67.5h-57v-520z" />
<glyph unicode="S" horiz-adv-x="1234" d="M100 66v376h115l104 -286q86 -31 216 -31q139 0 240.5 49t101.5 145q0 23 -5.5 43.5t-17.5 39t-24.5 34t-37 32.5t-43 28.5t-54.5 30t-58.5 28.5t-68.5 32.5t-72 35.5q-203 98 -291 205.5t-88 265.5q0 168 139 269t360 101q262 0 447 -63v-377h-115l-100 274 q-84 18 -162 19q-121 0 -207 -41t-86 -123q0 -72 68.5 -120t261.5 -133q16 -7 25 -11q209 -94 307 -209t98 -279q0 -154 -80 -253t-201.5 -139t-281.5 -40q-275 1 -490 97z" />
<glyph unicode="T" horiz-adv-x="1349" d="M45 999v435h1260v-435h-125l-84 277h-254v-1116l188 -45v-115h-711v115l189 45v1116h-256l-84 -277h-123z" />
<glyph unicode="U" horiz-adv-x="1574" d="M10 1319v115h711v-115l-189 -45v-737q0 -393 326 -394q160 0 257 99.5t97 294.5v737l-188 45v115h545v-115l-189 -45v-737q0 -274 -164.5 -421t-416.5 -147q-262 0 -431 146.5t-169 421.5v737z" />
<glyph unicode="V" horiz-adv-x="1460" d="M-14 1319v115h708v-115l-168 -35l310 -848l280 838l-162 45v115h516v-115l-188 -45l-446 -1288h-199l-469 1288z" />
<glyph unicode="W" horiz-adv-x="2146" d="M-20 1319v115h704v-115l-172 -37l256 -750l250 902h272l303 -904l199 744l-166 45v115h516v-115l-188 -45l-348 -1288h-199l-344 1036l-293 -1036h-186l-426 1290z" />
<glyph unicode="X" horiz-adv-x="1519" d="M14 0v115l189 45l385 532l-379 580l-189 47v115h691v-115l-119 -27l248 -377l254 363l-131 41v115h503v-115l-188 -45l-350 -481l428 -637l174 -41v-115h-690v115l118 22l-282 426l-289 -407l131 -41v-115h-504z" />
<glyph unicode="Y" horiz-adv-x="1435" d="M-18 1319v115h671v-115l-133 -27l293 -430l262 416l-151 41v115h522v-115l-189 -45l-368 -586v-528l188 -45v-115h-710v115l188 45v530l-408 588z" />
<glyph unicode="Z" horiz-adv-x="1359" d="M86 0v127l737 1149h-514l-88 -293h-117v451h1143v-127l-735 -1149h526l144 284h112l-59 -442h-1149z" />
<glyph unicode="[" horiz-adv-x="659" d="M168 -262v1818h436v-133h-192v-1552h192v-133h-436z" />
<glyph unicode="\" horiz-adv-x="946" d="M57 1434h193l637 -1434h-195z" />
<glyph unicode="]" horiz-adv-x="659" d="M55 -129h193v1552h-193v133h437v-1818h-437v133z" />
<glyph unicode="^" horiz-adv-x="1236" d="M115 547l430 917h143l432 -917h-194l-312 684l-307 -684h-192z" />
<glyph unicode="_" horiz-adv-x="1488" d="M274 -139h940v-152h-940v152z" />
<glyph unicode="`" horiz-adv-x="452" d="M-219 1464q92 84 242 107l208 -354l-125 -62z" />
<glyph unicode="a" horiz-adv-x="1171" d="M61 254q0 178 146.5 271t474.5 93v62q0 61 -1 89t-9 66.5t-23.5 55t-46.5 30t-76 13.5l-260 -225q-139 80 -139 247q23 10 61.5 26.5t151.5 44.5t219 28q440 0 440 -353v-548h160v-88q-10 -10 -28.5 -26.5t-79.5 -43.5t-127 -27q-156 0 -232 105q-137 -104 -299 -105 q-141 0 -236.5 72t-95.5 213zM391 272q0 -59 40 -94t97 -35q92 0 154 68v281q-115 0 -203 -61t-88 -159z" />
<glyph unicode="b" horiz-adv-x="1245" d="M-37 1452v109l328 77h162v-688q127 104 295 105q190 0 308 -126t118 -378q0 -186 -95.5 -321.5t-236 -198t-301.5 -62.5q-233 0 -404 105v1378h-174zM453 109q25 -4 69 -5q139 0 232.5 113t93.5 326q0 338 -207 338q-80 0 -188 -62v-710z" />
<glyph unicode="c" horiz-adv-x="1007" d="M70 516q0 242 156.5 390.5t369.5 148.5q178 0 350 -86q-4 -174 -149 -250l-176 203h-13q-86 -25 -151.5 -126.5t-65.5 -283.5q-1 -219 93 -308q88 -83 230 -83h19q88 2 211 39l25 -121q-166 -70 -340 -70q-231 0 -395 147.5t-164 399.5z" />
<glyph unicode="d" horiz-adv-x="1298" d="M72 475q0 276 175 428t427 152q63 0 119 -13v410h-175v109l328 77h164v-1484h160v-88q-12 -10 -34 -26.5t-85.5 -43.5t-120.5 -27q-86 0 -144.5 41t-82.5 88q-113 -129 -277 -129q-186 0 -320 130t-134 376zM395 483q0 -168 73 -254t144 -86q102 0 181 76v688 q-57 14 -101 15q-135 0 -216 -108t-81 -331z" />
<glyph unicode="e" horiz-adv-x="1116" d="M72 524q0 242 136 386.5t370 144.5q238 0 359.5 -161.5t121.5 -399.5h-672q14 -152 108.5 -261.5t241.5 -109.5q111 0 238 47l43 -117q-190 -84 -373 -84q-264 0 -418.5 155t-154.5 400zM387 621l346 22v17q0 99 -42 177q-46 85 -120 85q-82 0 -135 -84q-49 -78 -49 -199 v-18z" />
<glyph unicode="f" horiz-adv-x="870" d="M55 0v109l174 41v743h-172v117l172 12v154q0 240 110 366.5t314 126.5q86 0 180.5 -17.5t145.5 -33.5l51 -16v-8q0 -68 -34 -132q-36 -69 -91 -98l-170 172q-41 0 -70.5 -12.5t-59.5 -47t-45 -110.5t-15 -190v-134l280 19v-168h-280v-743l241 -41v-109h-731z" />
<glyph unicode="g" horiz-adv-x="1251" d="M16 -311q0 164 183 260q-55 39 -87 98q-26 47 -26 100q0 13 2 27l236 203q-106 47 -166 128t-60 179q0 147 139.5 250.5t352.5 103.5q184 0 319 -82l320 119q25 -49 24 -108q0 -70 -8 -105h-225q66 -86 65 -178q0 -152 -134 -253t-361 -101q-74 0 -109 2l-90 -125 q23 -39 63 -49.5t121 -10.5h60h119q203 0 312.5 -90t109.5 -252q0 -158 -153 -275.5t-427 -117.5q-580 0 -580 277zM328 -266q0 -188 262 -189q172 0 264 57.5t92 143.5q0 66 -53.5 99.5t-194.5 33.5h-325q-45 -63 -45 -145zM395 684q0 -98 46.5 -160.5t148.5 -62.5 q100 0 149 63.5t49 159.5q0 98 -48 162.5t-150.5 64.5t-148.5 -64.5t-46 -162.5z" />
<glyph unicode="h" horiz-adv-x="1363" d="M31 0v109l174 41v1302h-174v109l327 77h162v-714q127 131 309 131q160 0 253.5 -90.5t93.5 -231.5v-583l174 -41v-109h-623v109l133 41v526q0 109 -25.5 153.5t-111.5 44.5t-203 -90v-634l133 -41v-109h-622z" />
<glyph unicode="i" horiz-adv-x="755" d="M61 0v109l175 41v688h-175v108l328 78h162v-874l174 -41v-109h-664zM203 1339q0 80 55 134.5t135 54.5q82 0 136.5 -54.5t54.5 -134.5q0 -82 -54.5 -137t-136.5 -55q-80 0 -135 55t-55 137z" />
<glyph unicode="j" horiz-adv-x="665" d="M-10 -537q109 92 162 217t53 320v838h-174v108l327 78h162v-1024q0 -409 -446 -653zM172 1339q0 80 55.5 134.5t134.5 54.5q82 0 136.5 -54.5t54.5 -134.5q0 -82 -54.5 -137t-136.5 -55q-80 0 -135 55t-55 137z" />
<glyph unicode="k" horiz-adv-x="1323" d="M31 0v109l174 41v1302h-174v109l327 77h162v-1488l133 -41v-109h-622zM557 494l361 391l-123 30v109h481v-109l-186 -38l-236 -261l289 -469l164 -38v-109h-451z" />
<glyph unicode="l" horiz-adv-x="724" d="M31 0v109l174 41v1302h-174v109l327 77h162v-1488l174 -41v-109h-663z" />
<glyph unicode="m" horiz-adv-x="2045" d="M61 0v109l175 41v688h-175v108l328 78h162v-84q139 115 303 115q207 0 303 -148q162 147 352 148q160 0 255.5 -90.5t95.5 -231.5v-583l174 -41v-109h-623v109l133 41v557q0 94 -37 130.5t-114 36.5q-86 0 -193 -81q6 -31 6 -60v-583l133 -41v-109h-583v109l133 41v557 q0 94 -37 130.5t-113 36.5q-84 0 -188 -73v-651l133 -41v-109h-623z" />
<glyph unicode="n" horiz-adv-x="1394" d="M61 0v109l175 41v688h-175v108l328 78h162v-100q127 131 309 131q160 0 253 -90.5t93 -231.5v-583l174 -41v-109h-622v109l133 41v526q0 109 -25.5 153.5t-111.5 44.5t-203 -90v-634l133 -41v-109h-623z" />
<glyph unicode="o" horiz-adv-x="1239" d="M68 514q0 238 158.5 389.5t394 151.5t393 -151.5t157.5 -389.5t-158.5 -391.5t-391.5 -153.5q-236 0 -394.5 153.5t-158.5 391.5zM397 514q0 -190 56.5 -301t167 -111t167 111t56.5 301q0 188 -56.5 298t-167 110t-167 -110t-56.5 -298z" />
<glyph unicode="p" horiz-adv-x="1312" d="M31 -506l174 41v1303h-174v108l327 78h162v-98q125 129 299 129t298 -131t124 -373q0 -276 -176 -429t-426 -153q-78 0 -119 13v-447l215 -41v-108h-704v108zM520 123q49 -20 101 -21q131 0 212.5 113t81.5 328q0 166 -57 245.5t-158 79.5q-45 0 -97 -20.5t-83 -50.5 v-674z" />
<glyph unicode="q" horiz-adv-x="1245" d="M72 475q0 274 188.5 427t444.5 153q233 0 403 -105v-1415l174 -41v-108h-707v108l216 41v528q-92 -94 -267 -94q-82 0 -160.5 31t-145 89t-106.5 158.5t-40 227.5zM395 483q0 -160 72 -243.5t176 -83.5q86 0 148 47v712q-33 6 -68 7q-328 -1 -328 -439z" />
<glyph unicode="r" horiz-adv-x="956" d="M61 0v109l175 41v688h-175v108l328 78h162v-123q154 154 364 154q12 -39 13 -86q0 -94 -21 -176l-258 43q-49 -23 -98 -66v-620l215 -41v-109h-705z" />
<glyph unicode="s" horiz-adv-x="985" d="M86 16v293h115l73 -203q74 -4 117 -4q240 0 240 105q0 18 -6.5 33.5t-26.5 32t-36.5 27.5t-55.5 30.5t-64.5 31t-83.5 35.5q-141 61 -205.5 140t-64.5 204q0 154 124 234t325 80q182 0 313 -39v-279h-107l-63 181q-61 10 -123 10q-197 0 -197 -97q0 -25 14.5 -46 t46.5 -41.5t53.5 -32t67.5 -32t56 -24.5q186 -84 251.5 -162.5t65.5 -211.5q0 -152 -124.5 -232t-331.5 -80q-209 0 -373 47z" />
<glyph unicode="t" horiz-adv-x="774" d="M57 881v82l349 247h75v-196l254 10v-143h-254v-586q0 -100 22.5 -141t92.5 -41q51 0 137 37l33 -115q-123 -66 -260 -66q-340 0 -340 316v596h-109z" />
<glyph unicode="u" horiz-adv-x="1366" d="M18 915v109h490v-707q0 -104 25.5 -144t103.5 -40q59 0 122.5 31t102.5 82v628l-133 41v109h451v-870h159v-88q-14 -10 -38.5 -26.5t-95 -43.5t-136.5 -27q-147 0 -207 133q-145 -133 -356 -133q-313 0 -313 322v583z" />
<glyph unicode="v" horiz-adv-x="1187" d="M-8 915v109h626v-109l-139 -32l207 -490l203 488l-135 34v109h444v-109l-172 -45l-364 -884h-144l-379 886z" />
<glyph unicode="w" horiz-adv-x="1701" d="M-6 915v109h618v-109l-145 -36l168 -451l201 596h208l211 -588l152 443l-164 36v109h465v-109l-166 -45l-295 -884h-168l-233 653l-219 -653h-168l-328 893z" />
<glyph unicode="x" horiz-adv-x="1259" d="M18 0v109l179 34l272 324l-262 414l-162 34v109h645v-109l-106 -20l133 -207l164 195l-113 32v109h459v-109l-178 -38l-258 -306l274 -432l168 -30v-109h-662v109l111 16l-139 225l-181 -213l109 -28v-109h-453z" />
<glyph unicode="y" horiz-adv-x="1255" d="M-10 915v109h633v-109l-136 -24l265 -526l192 512l-156 38v109h476v-109l-170 -47l-572 -1480h-37q-61 0 -115.5 26.5t-76.5 65.5l297 473l-447 919z" />
<glyph unicode="z" horiz-adv-x="1042" d="M57 0v102l518 791h-278l-98 -207h-95l23 338h836v-100l-514 -791h307l106 227h101l-21 -360h-885z" />
<glyph unicode="{" horiz-adv-x="845" d="M16 590v117q115 6 178.5 53t63.5 162v342q0 141 75 216.5t220 75.5h258v-118h-61q-88 0 -128 -53.5t-40 -161.5v-320q0 -215 -228 -252v-2q227 -39 228 -254v-323q0 -215 168 -215h61v-119h-258q-141 0 -218 80t-77 215v340q0 119 -62.5 165t-179.5 52z" />
<glyph unicode="|" horiz-adv-x="526" d="M166 -492v2048h194v-2048h-194z" />
<glyph unicode="}" horiz-adv-x="843" d="M35 -143h61q90 0 129 53t39 162v323q0 215 228 254v2q-227 37 -228 252v320q0 109 -39 162t-129 53h-61v118h258q145 0 220 -75.5t75 -216.5v-342q0 -115 63.5 -162t177.5 -53v-117q-117 -6 -179 -52t-62 -165v-340q0 -127 -132 -211t-286 -84h-135v119z" />
<glyph unicode="~" horiz-adv-x="1124" d="M90 578q37 332 277 331q86 0 212 -72.5t183 -72.5q106 0 125 145l162 -24q-18 -139 -94 -236.5t-201 -97.5q-86 0 -212 72.5t-184 72.5q-45 0 -71.5 -27.5t-36.5 -117.5z" />
<glyph unicode="&#xa1;" horiz-adv-x="573" d="M113 879q0 70 53 123t123 53q72 0 123 -53.5t51 -122.5q0 -72 -51.5 -123t-123 -51t-123.5 51t-52 123zM135 -410l41 1008h221l41 -1008h-303z" />
<glyph unicode="&#xa2;" horiz-adv-x="1079" d="M86 512q0 223 123 363.5t326 171.5v280h149v-274q160 -8 299 -84q2 -63 -28.5 -136t-90.5 -120l-178 209h-2v-799h12q123 -4 265 37l24 -121q-150 -61 -301 -70v-256h-149v267q-199 31 -324 170t-125 362zM408 512q0 -250 127 -338v709q-127 -80 -127 -371z" />
<glyph unicode="&#xa3;" horiz-adv-x="1157" d="M106 0v113q264 197 265 434q0 55 -29 135h-221v117l160 10q-6 10 -32 55t-34 60.5t-26.5 53.5t-24.5 61.5t-13.5 55t-7.5 60.5q0 158 137.5 233.5t321.5 75.5q236 0 434 -102q-4 -68 -36.5 -142.5t-88.5 -117.5l-233 241q-109 0 -151 -67.5t-42 -159.5q0 -106 82 -287 l283 21l-21 -168h-204q18 -59 18 -121q0 -152 -164 -301h398l77 160h111l-57 -420h-902z" />
<glyph unicode="&#xa4;" horiz-adv-x="1253" d="M119 360l143 144q-68 102 -67 231q0 119 65 228l-141 143l137 135l141 -139q100 63 230 63q125 0 229 -67l141 141l138 -135l-142 -141q66 -115 66 -228q0 -125 -70 -231l144 -139l-136 -138l-141 140q-106 -63 -229 -64q-129 0 -230 64l-143 -144zM385 735 q0 -100 70.5 -170.5t171.5 -70.5q98 0 169.5 70.5t71.5 170.5q0 98 -71.5 169t-169.5 71q-100 0 -171 -70.5t-71 -169.5z" />
<glyph unicode="&#xa5;" horiz-adv-x="1601" d="M70 1319v115h669v-115l-133 -27l295 -430l260 416l-149 41v115h522v-115l-191 -45l-311 -498l262 15l-18 -168h-299v-86l317 16l-18 -168h-299v-225l186 -45v-115h-708v115l188 45v225h-342v117l342 16v105h-342v116l297 15l-365 524z" />
<glyph unicode="&#xa6;" horiz-adv-x="497" d="M172 328h154v-820h-154v820zM172 737v819h154v-819h-154z" />
<glyph unicode="&#xa7;" horiz-adv-x="1097" d="M113 709q0 168 176 264q-172 113 -172 268q0 139 126 226t302 87q209 0 362 -53v-321h-102l-84 229q-76 14 -111 14q-106 0 -154 -37.5t-48 -93.5q0 -137 188 -211q70 -27 115 -48t105.5 -58t96 -75t61 -95t25.5 -123q0 -80 -43 -153.5t-108 -125.5q145 -106 145 -256 q0 -152 -137 -234.5t-334 -82.5q-215 0 -383 82v319h103l88 -239q78 -25 125 -25q231 0 231 160q0 66 -44 109t-163 96q-195 82 -280.5 166t-85.5 211zM301 762q0 -43 19.5 -77t63.5 -61.5t79 -43t100 -39.5q137 -55 174 -74q55 61 56 143q0 88 -68 143.5t-211 112.5 q-74 29 -113 47q-100 -63 -100 -151z" />
<glyph unicode="&#xa8;" horiz-adv-x="870" d="M66 1409q0 70 47 116t116.5 46t115.5 -46t46 -116t-46 -117t-115.5 -47t-116.5 47t-47 117zM475 1409q0 70 47 116t117 46t116 -46t46 -116t-46 -117t-116 -47t-117 47t-47 117z" />
<glyph unicode="&#xa9;" horiz-adv-x="1697" d="M96 731q0 311 220.5 532.5t533.5 221.5q311 0 531.5 -221.5t220.5 -532.5t-220.5 -531t-531.5 -220q-313 0 -533.5 220t-220.5 531zM231 731q0 -256 181.5 -437t437.5 -181q260 0 439 180t179 438q0 262 -179 441.5t-439 179.5q-256 0 -437.5 -182.5t-181.5 -438.5z M444 731q0 215 116 332t337 117q135 0 238 -47v-228h-97l-49 158q-33 4 -47 4q-270 0 -270 -336t264 -336h35l84 174h96l-33 -227q-111 -59 -244 -59q-205 0 -317.5 117.5t-112.5 330.5z" />
<glyph unicode="&#xaa;" horiz-adv-x="823" d="M78 981q0 104 97 161.5t276 57.5v37q0 57 -4.5 84t-22.5 46t-55 19l-154 -135q-88 47 -88 154q117 57 260 57q137 0 206 -56t69 -155v-327h96v-56q-58 -57 -152 -57q-93 1 -139 63q-82 -63 -195 -63q-84 0 -139 44t-55 126zM297 993q0 -35 19.5 -53t52.5 -18q49 0 82 34 v164q-61 -6 -107.5 -40t-46.5 -87z" />
<glyph unicode="&#xab;" horiz-adv-x="1005" d="M88 520v66l313 356h134l-146 -389l146 -389h-134zM512 524v58l240 321h118l-90 -350l90 -350h-118z" />
<glyph unicode="&#xac;" horiz-adv-x="1146" d="M106 647v170h900v-565h-175v395h-725z" />
<glyph unicode="&#xad;" horiz-adv-x="745" d="M106 629v205h533v-205h-533z" />
<glyph unicode="&#xae;" horiz-adv-x="1697" d="M96 731q0 311 220.5 532.5t533.5 221.5q311 0 531.5 -221.5t220.5 -532.5t-220.5 -531t-531.5 -220q-313 0 -533.5 220t-220.5 531zM229 731q0 -256 182.5 -437t438.5 -181t436 181t180 437t-180 438.5t-436 182.5t-438.5 -182.5t-182.5 -438.5zM451 307v70l114 26v668 l-114 27v69h385q342 0 342 -237q0 -160 -177 -234l160 -295l99 -30v-64h-263l-190 373h-41v-277l113 -26v-70h-428zM766 766h33q86 0 130 44t44 120q0 66 -45 106.5t-129 40.5h-33v-311z" />
<glyph unicode="&#xaf;" horiz-adv-x="940" d="M0 1264v170h940v-170h-940z" />
<glyph unicode="&#xb0;" horiz-adv-x="765" d="M70 1247q0 131 91 222.5t222 91.5t223 -91.5t92 -222.5t-92 -223t-223 -92t-222 92t-91 223zM231 1247q0 -63 45.5 -108t106.5 -45q63 0 108.5 45t45.5 108q0 61 -45.5 106.5t-108.5 45.5q-61 0 -106.5 -45.5t-45.5 -106.5z" />
<glyph unicode="&#xb1;" horiz-adv-x="1138" d="M109 0v178h919v-178h-919zM109 641v178h360v381h176v-381h383v-178h-383v-381h-176v381h-360z" />
<glyph unicode="&#xb2;" horiz-adv-x="778" d="M90 584v86q35 33 99.5 106.5t146.5 213.5t82 245q0 63 -21.5 105t-64.5 42l-144 -163q-82 76 -90 174q117 61 279 61q115 0 189.5 -50t74.5 -153q0 -123 -92 -242.5t-238 -248.5h264l48 94h65l-35 -270h-563z" />
<glyph unicode="&#xb3;" horiz-adv-x="763" d="M70 614l26 82q88 -33 172 -32q86 0 140.5 45t54.5 112q0 82 -57.5 126t-149.5 44v78q72 12 117 60.5t45 117.5q0 57 -28 93t-66 44l-136 -137q-33 25 -57.5 70t-26.5 78q113 59 252 59q145 0 215 -54.5t70 -142.5q0 -80 -56.5 -138t-148.5 -75q250 -29 250 -227 q0 -123 -103.5 -187.5t-265.5 -64.5q-133 0 -247 49z" />
<glyph unicode="&#xb4;" horiz-adv-x="520" d="M160 1210l207 361q145 -25 241 -107l-325 -309z" />
<glyph unicode="&#xb5;" horiz-adv-x="1382" d="M184 -393v1417h316v-698q0 -102 33.5 -147.5t121.5 -45.5q96 0 185 76v815h315v-711q0 -94 42 -127.5t93 -33.5h25v-86q-10 -10 -28.5 -26.5t-84 -43.5t-141.5 -27q-158 0 -213 115q-106 -115 -268 -115q-143 0 -220 97q0 -281 172 -510q-115 -68 -239 -68 q-109 0 -109 119z" />
<glyph unicode="&#x3bc;" horiz-adv-x="1382" d="M184 -393v1417h316v-698q0 -102 33.5 -147.5t121.5 -45.5q96 0 185 76v815h315v-711q0 -94 42 -127.5t93 -33.5h25v-86q-10 -10 -28.5 -26.5t-84 -43.5t-141.5 -27q-158 0 -213 115q-106 -115 -268 -115q-143 0 -220 97q0 -281 172 -510q-115 -68 -239 -68 q-109 0 -109 119z" />
<glyph unicode="&#xb6;" horiz-adv-x="1355" d="M74 1192q0 365 461 364h729v-108l-174 -41v-1636h-189v1626h-162v-1626h-188v1020h-21q-457 0 -456 401z" />
<glyph unicode="&#xb7;" horiz-adv-x="548" d="M92 612.5q0 73.5 54.5 128t128 54.5t128 -54.5t54.5 -128t-54.5 -128t-128 -54.5t-128 54.5t-54.5 128z" />
<glyph unicode="&#xb8;" horiz-adv-x="743" d="M123 -334q78 -16 102 -16q59 0 95 26.5t36 71.5q0 57 -34.5 82t-104.5 29l43 159h127l-20 -88q109 2 177 -52t68 -136q0 -109 -89 -171.5t-242 -62.5q-49 0 -158 23v135z" />
<glyph unicode="&#xb9;" horiz-adv-x="641" d="M80 1319l258 135h125v-786l104 -19v-65h-461v65l140 25v645l-146 -64z" />
<glyph unicode="&#xba;" horiz-adv-x="804" d="M76 1139q0 143 83 234t242 91q162 0 245 -91t83 -234q0 -147 -83 -239.5t-245 -92.5q-160 0 -242.5 92t-82.5 240zM291 1139q-1 -246 110 -246q113 0 113 246q0 242 -113 241q-111 0 -110 -241z" />
<glyph unicode="&#xbb;" horiz-adv-x="1007" d="M135 203l90 350l-90 350h121l238 -321v-58l-238 -321h-121zM473 164l145 389l-145 389h133l314 -356v-66l-314 -356h-133z" />
<glyph unicode="&#xbc;" horiz-adv-x="1671" d="M84 1319l258 135h125v-786l104 -19v-65h-460v65l139 25v645l-146 -64zM451 0l731 1462h164l-730 -1462h-165zM920 174v70l462 624h107v-600h94v-94h-94v-174h-205v174h-364zM1081 279h203v268z" />
<glyph unicode="&#xbd;" horiz-adv-x="1812" d="M86 1319l258 135h125v-786l104 -19v-65h-460v65l139 25v645l-146 -64zM453 0l731 1462h164l-730 -1462h-165zM1130 0v86q35 33 99.5 106.5t146.5 214t82 244.5q0 63 -21.5 105.5t-64.5 42.5l-143 -164q-82 76 -90 174q117 61 278 61q115 0 189.5 -50t74.5 -152 q0 -123 -92 -243t-237 -249h264l47 94h66l-35 -270h-564z" />
<glyph unicode="&#xbe;" horiz-adv-x="1732" d="M82 614l27 82q88 -33 172 -32q86 0 140 45t54 112q0 82 -57.5 126t-149.5 44v78q72 12 117 60.5t45 117.5q0 57 -27.5 93t-66.5 44l-135 -137q-33 25 -57.5 70t-26.5 78q113 59 252 59q145 0 214.5 -54.5t69.5 -142.5q0 -80 -56 -138t-148 -75q250 -29 249 -227 q0 -123 -103 -187.5t-265 -64.5q-133 0 -248 49zM510 0l731 1462h164l-729 -1462h-166zM979 174v70l463 624h106v-600h94v-94h-94v-174h-205v174h-364zM1141 279h202v268z" />
<glyph unicode="&#xbf;" horiz-adv-x="993" d="M78 -90q0 152 96 264.5t303 265.5l31 191h123l31 -250q-96 -109 -141.5 -168t-83.5 -146t-38 -178q0 -94 56.5 -158.5t132.5 -64.5l241 232q88 -86 97 -240q-18 -10 -53 -26.5t-141.5 -44t-215.5 -27.5q-219 0 -328.5 92t-109.5 258zM395 879q0 70 51.5 123t122.5 53 q70 0 123 -53t53 -123q0 -72 -52 -123t-123.5 -51t-123 51t-51.5 123z" />
<glyph unicode="&#xc0;" horiz-adv-x="1499" d="M-20 0v115l200 47l490 1282h178l459 -1282l196 -47v-115h-694v115l145 35l-88 245h-430l-92 -239l172 -41v-115h-536zM422 1698q27 61 84 119.5t110 74.5l293 -262l-80 -98zM492 537h323l-160 436z" />
<glyph unicode="&#xc1;" horiz-adv-x="1499" d="M-20 0v115l200 47l490 1282h178l459 -1282l196 -47v-115h-694v115l145 35l-88 245h-430l-92 -239l172 -41v-115h-536zM492 537h323l-160 436zM586 1632l303 262q53 -16 110.5 -74.5t83.5 -119.5l-417 -166z" />
<glyph unicode="&#xc2;" horiz-adv-x="1499" d="M-20 0v115l200 47l490 1282h178l459 -1282l196 -47v-115h-694v115l145 35l-88 245h-430l-92 -239l172 -41v-115h-536zM391 1614l256 248h223l258 -248l-139 -49l-231 129l-230 -129zM492 537h323l-160 436z" />
<glyph unicode="&#xc3;" horiz-adv-x="1499" d="M-20 0v115l200 47l490 1282h178l459 -1282l196 -47v-115h-694v115l145 35l-88 245h-430l-92 -239l172 -41v-115h-536zM307 1683q14 18 38 47t100.5 77t154.5 48q59 0 153.5 -55t145.5 -55q72 0 195 90l75 -80q-4 -8 -12 -21.5t-36.5 -46t-60.5 -58t-85 -47t-109 -21.5 q-59 0 -151 55t-146 55q-14 0 -29.5 -3t-25.5 -5t-28.5 -11.5t-27.5 -14.5t-37 -19t-40 -23zM492 537h323l-160 436z" />
<glyph unicode="&#xc4;" horiz-adv-x="1499" d="M-20 0v115l200 47l490 1282h178l459 -1282l196 -47v-115h-694v115l145 35l-88 245h-430l-92 -239l172 -41v-115h-536zM371 1722.5q0 69.5 47 115.5t116.5 46t115.5 -46t46 -115.5t-46 -116.5t-115.5 -47t-116.5 47t-47 116.5zM492 537h323l-160 436zM821 1722.5 q0 69.5 47 115.5t117 46t116 -46t46 -115.5t-46 -116.5t-116 -47t-117 47t-47 116.5z" />
<glyph unicode="&#xc5;" horiz-adv-x="1499" d="M-20 0v115l200 47l486 1274q-68 27 -112 89t-44 138q0 102 71.5 174t172 72t172 -72t71.5 -174q0 -74 -41 -134.5t-106 -90.5l457 -1276l196 -47v-115h-694v115l145 35l-88 245h-430l-92 -239l172 -41v-115h-536zM492 537h323l-160 436zM666 1663q0 -35 26.5 -60.5 t61 -25.5t61.5 26.5t27 59.5t-28 60.5t-60 27.5q-35 0 -61.5 -26.5t-26.5 -61.5z" />
<glyph unicode="&#xc6;" horiz-adv-x="2109" d="M-29 0v115l189 45l884 1274h930v-420h-114l-82 262h-400v-481l412 41v-203l-412 37v-512h404l139 284h115l-62 -442h-1118v115l188 45v305h-469l-208 -307l182 -43v-115h-578zM680 616h364v533z" />
<glyph unicode="&#xc7;" horiz-adv-x="1335" d="M80 717q0 358 191.5 552.5t559.5 194.5q98 0 213 -23.5t187 -56.5v-378h-115l-90 288q-70 12 -117 13q-256 0 -372.5 -142.5t-116.5 -447.5q0 -303 110.5 -446.5t343.5 -143.5q49 0 115 10l152 309h114l-53 -376q-72 -39 -183.5 -70t-221.5 -31q-72 0 -123 8l-10 -47 q109 2 177 -52t68 -136q0 -109 -89 -171.5t-242 -62.5q-49 0 -158 23v135q78 -16 102 -16q59 0 95 26.5t36 71.5q0 57 -34.5 82t-104.5 29l37 141q-229 63 -350 247.5t-121 469.5z" />
<glyph unicode="&#xc8;" horiz-adv-x="1290" d="M68 0v115l188 45v1114l-188 45v115h1087v-420h-121l-82 262h-362v-475l381 35v-203l-381 31v-506h366l140 284h121l-62 -442h-1087zM389 1698q27 61 84.5 119.5t110.5 74.5l293 -262l-80 -98z" />
<glyph unicode="&#xc9;" horiz-adv-x="1290" d="M68 0v115l188 45v1114l-188 45v115h1087v-420h-121l-82 262h-362v-475l381 35v-203l-381 31v-506h366l140 284h121l-62 -442h-1087zM573 1632l304 262q53 -16 110 -74.5t84 -119.5l-418 -166z" />
<glyph unicode="&#xca;" horiz-adv-x="1290" d="M68 0v115l188 45v1114l-188 45v115h1087v-420h-121l-82 262h-362v-475l381 35v-203l-381 31v-506h366l140 284h121l-62 -442h-1087zM379 1614l256 248h223l258 -248l-139 -49l-232 129l-229 -129z" />
<glyph unicode="&#xcb;" horiz-adv-x="1290" d="M68 0v115l188 45v1114l-188 45v115h1087v-420h-121l-82 262h-362v-475l381 35v-203l-381 31v-506h366l140 284h121l-62 -442h-1087zM317 1722.5q0 69.5 47.5 115.5t117 46t115.5 -46t46 -115.5t-46 -116.5t-115.5 -47t-117 47t-47.5 116.5zM768 1722.5q0 69.5 47 115.5 t116.5 46t116 -46t46.5 -115.5t-46.5 -116.5t-116 -47t-116.5 47t-47 116.5z" />
<glyph unicode="&#xcc;" horiz-adv-x="845" d="M68 0v115l188 45v1114l-188 45v115h710v-115l-188 -45v-1114l188 -45v-115h-710zM131 1698q27 61 84.5 119.5t110.5 74.5l292 -262l-79 -98z" />
<glyph unicode="&#xcd;" horiz-adv-x="845" d="M68 0v115l188 45v1114l-188 45v115h710v-115l-188 -45v-1114l188 -45v-115h-710zM254 1632l303 262q53 -16 110.5 -74.5t84.5 -119.5l-418 -166z" />
<glyph unicode="&#xce;" horiz-adv-x="845" d="M59 1614l256 248h224l258 -248l-140 -49l-231 129l-229 -129zM68 0v115l188 45v1114l-188 45v115h710v-115l-188 -45v-1114l188 -45v-115h-710z" />
<glyph unicode="&#xcf;" horiz-adv-x="845" d="M39 1722.5q0 69.5 47 115.5t116.5 46t116 -46t46.5 -115.5t-46.5 -116.5t-116 -47t-116.5 47t-47 116.5zM68 0v115l188 45v1114l-188 45v115h710v-115l-188 -45v-1114l188 -45v-115h-710zM489 1722.5q0 69.5 47.5 115.5t117 46t115.5 -46t46 -115.5t-46 -116.5 t-115.5 -47t-117 47t-47.5 116.5z" />
<glyph unicode="&#xd0;" horiz-adv-x="1542" d="M72 0v115l188 45v481h-188v158h188v475l-188 45v115h614q373 0 570.5 -198t197.5 -519q0 -319 -197.5 -518t-570.5 -199h-614zM594 158h61q88 0 164 25.5t145.5 85t109.5 174t40 274.5t-40 274.5t-109.5 174t-145.5 85t-164 25.5h-61v-477h334v-158h-334v-483z" />
<glyph unicode="&#xd1;" horiz-adv-x="1705" d="M68 0v115l188 45v1114l-188 45v115h352l878 -963v803l-188 45v115h547v-115l-189 -45v-1274h-198l-850 930v-770l188 -45v-115h-540zM434 1683q14 18 38 47t100.5 77t154.5 48q59 0 153.5 -55t145.5 -55q72 0 195 90l75 -80q-4 -8 -12 -21.5t-36.5 -46t-60.5 -58t-85 -47 t-109 -21.5q-59 0 -151 55t-146 55q-14 0 -29.5 -3t-25.5 -5t-28.5 -11.5t-28 -14.5t-37 -19t-39.5 -23z" />
<glyph unicode="&#xd2;" d="M86 717q0 328 180 537.5t526.5 209.5t526.5 -211t180 -536q0 -328 -180 -538t-526 -210q-233 0 -396.5 102.5t-237 267.5t-73.5 378zM430 716.5q0 -276.5 88.5 -441t274.5 -164.5q184 0 273 164.5t89 441t-89 441.5t-273 165q-186 0 -274.5 -165t-88.5 -441.5zM455 1698 q27 61 84 119.5t110 74.5l293 -262l-80 -98z" />
<glyph unicode="&#xd3;" d="M86 717q0 328 180 537.5t526.5 209.5t526.5 -211t180 -536q0 -328 -180 -538t-526 -210q-233 0 -396.5 102.5t-237 267.5t-73.5 378zM430 716.5q0 -276.5 88.5 -441t274.5 -164.5q184 0 273 164.5t89 441t-89 441.5t-273 165q-186 0 -274.5 -165t-88.5 -441.5zM700 1632 l304 262q53 -16 110 -74.5t84 -119.5l-418 -166z" />
<glyph unicode="&#xd4;" d="M86 717q0 328 180 537.5t526.5 209.5t526.5 -211t180 -536q0 -328 -180 -538t-526 -210q-233 0 -396.5 102.5t-237 267.5t-73.5 378zM424 1614l256 248h223l258 -248l-139 -49l-231 129l-230 -129zM430 716.5q0 -276.5 88.5 -441t274.5 -164.5q184 0 273 164.5t89 441 t-89 441.5t-273 165q-186 0 -274.5 -165t-88.5 -441.5z" />
<glyph unicode="&#xd5;" d="M86 717q0 328 180 537.5t526.5 209.5t526.5 -211t180 -536q0 -328 -180 -538t-526 -210q-233 0 -396.5 102.5t-237 267.5t-73.5 378zM340 1683q14 18 37.5 47t100.5 77t155 48q59 0 153.5 -55t145.5 -55q72 0 194 90l76 -80q-4 -8 -12 -21.5t-37 -46t-60.5 -58t-85 -47 t-108.5 -21.5q-59 0 -151.5 55t-145.5 55q-14 0 -29.5 -3t-25.5 -5t-28.5 -11.5t-28 -14.5t-37 -19t-39.5 -23zM430 716.5q0 -276.5 88.5 -441t274.5 -164.5q184 0 273 164.5t89 441t-89 441.5t-273 165q-186 0 -274.5 -165t-88.5 -441.5z" />
<glyph unicode="&#xd6;" d="M86 717q0 328 180 537.5t526.5 209.5t526.5 -211t180 -536q0 -328 -180 -538t-526 -210q-233 0 -396.5 102.5t-237 267.5t-73.5 378zM403 1722.5q0 69.5 47.5 115.5t117 46t115.5 -46t46 -115.5t-46 -116.5t-115.5 -47t-117 47t-47.5 116.5zM430 716.5 q0 -276.5 88.5 -441t274.5 -164.5q184 0 273 164.5t89 441t-89 441.5t-273 165q-186 0 -274.5 -165t-88.5 -441.5zM854 1722.5q0 69.5 47 115.5t116.5 46t116 -46t46.5 -115.5t-46.5 -116.5t-116 -47t-116.5 47t-47 116.5z" />
<glyph unicode="&#xd7;" horiz-adv-x="1116" d="M102 1061l125 125l330 -330l330 330l125 -125l-330 -330l330 -332l-123 -123l-330 330l-330 -327l-125 124l328 328z" />
<glyph unicode="&#xd8;" d="M86 717q0 328 180 537.5t527 209.5q141 0 266 -43l49 92h145l-75 -145q158 -92 239.5 -264t81.5 -387q0 -328 -180 -538t-526 -210q-174 0 -320 60l-57 -111h-150l92 176q-272 195 -272 623zM430 717q0 -227 57 -379l490 926q-82 59 -184 59q-186 0 -274.5 -165 t-88.5 -441zM567 207q87 -96 226 -96q184 0 273 164.5t89 441.5q0 285 -88 440z" />
<glyph unicode="&#xd9;" horiz-adv-x="1574" d="M10 1319v115h711v-115l-189 -45v-737q0 -393 326 -394q160 0 257 99.5t97 294.5v737l-188 45v115h545v-115l-189 -45v-737q0 -274 -164.5 -421t-416.5 -147q-262 0 -431 146.5t-169 421.5v737zM586 1698q27 61 84 119.5t110 74.5l293 -262l-80 -98z" />
<glyph unicode="&#xda;" horiz-adv-x="1574" d="M10 1319v115h711v-115l-189 -45v-737q0 -393 326 -394q160 0 257 99.5t97 294.5v737l-188 45v115h545v-115l-189 -45v-737q0 -274 -164.5 -421t-416.5 -147q-262 0 -431 146.5t-169 421.5v737zM709 1632l303 262q53 -16 110.5 -74.5t83.5 -119.5l-418 -166z" />
<glyph unicode="&#xdb;" horiz-adv-x="1574" d="M10 1319v115h711v-115l-189 -45v-737q0 -393 326 -394q160 0 257 99.5t97 294.5v737l-188 45v115h545v-115l-189 -45v-737q0 -274 -164.5 -421t-416.5 -147q-262 0 -431 146.5t-169 421.5v737zM514 1614l256 248h223l258 -248l-139 -49l-231 129l-230 -129z" />
<glyph unicode="&#xdc;" horiz-adv-x="1574" d="M10 1319v115h711v-115l-189 -45v-737q0 -393 326 -394q160 0 257 99.5t97 294.5v737l-188 45v115h545v-115l-189 -45v-737q0 -274 -164.5 -421t-416.5 -147q-262 0 -431 146.5t-169 421.5v737zM494 1722.5q0 69.5 47 115.5t116.5 46t115.5 -46t46 -115.5t-46 -116.5 t-115.5 -47t-116.5 47t-47 116.5zM944 1722.5q0 69.5 47 115.5t117 46t116 -46t46 -115.5t-46 -116.5t-116 -47t-117 47t-47 116.5z" />
<glyph unicode="&#xdd;" horiz-adv-x="1435" d="M-18 1319v115h671v-115l-133 -27l293 -430l262 416l-151 41v115h522v-115l-189 -45l-368 -586v-528l188 -45v-115h-710v115l188 45v530l-408 588zM629 1632l303 262q53 -16 110.5 -74.5t83.5 -119.5l-417 -166z" />
<glyph unicode="&#xde;" horiz-adv-x="1323" d="M68 0v115l188 45v1114l-188 45v115h710v-115l-188 -45v-146h119q272 0 420.5 -102t148.5 -309q0 -209 -148.5 -312.5t-420.5 -103.5h-119v-141l188 -45v-115h-710zM590 444h26q322 0 322 273q0 143 -83 202.5t-239 59.5h-26v-535z" />
<glyph unicode="&#xdf;" horiz-adv-x="1456" d="M31 0v109l174 41v952q0 217 141 335.5t383 118.5q252 0 382 -115.5t130 -338.5v-148h-231q-201 0 -201 -108q0 -57 63.5 -108.5t219.5 -108.5q178 -68 252.5 -147t74.5 -206q0 -145 -132 -226t-341 -81q-154 0 -307 47v293h115l86 -203q8 0 15 -2t19 -2q113 0 189 35 t76 101q0 29 -13.5 51t-46 41.5t-60.5 31t-82 32t-85 32.5q-276 115 -277 338q0 131 97.5 215t255.5 104v50q0 158 -49.5 224t-149.5 66q-209 0 -209 -321v-1102h-489z" />
<glyph unicode="&#xe0;" horiz-adv-x="1171" d="M61 254q0 178 146.5 271t474.5 93v62q0 61 -1 89t-9 66.5t-23.5 55t-46.5 30t-76 13.5l-260 -225q-139 80 -139 247q23 10 61.5 26.5t151.5 44.5t219 28q440 0 440 -353v-548h160v-88q-10 -10 -28.5 -26.5t-79.5 -43.5t-127 -27q-156 0 -232 105q-137 -104 -299 -105 q-141 0 -236.5 72t-95.5 213zM252 1464q92 84 242 107l208 -354l-124 -62zM391 272q0 -59 40 -94t97 -35q92 0 154 68v281q-115 0 -203 -61t-88 -159z" />
<glyph unicode="&#xe1;" horiz-adv-x="1171" d="M61 254q0 178 146.5 271t474.5 93v62q0 61 -1 89t-9 66.5t-23.5 55t-46.5 30t-76 13.5l-260 -225q-139 80 -139 247q23 10 61.5 26.5t151.5 44.5t219 28q440 0 440 -353v-548h160v-88q-10 -10 -28.5 -26.5t-79.5 -43.5t-127 -27q-156 0 -232 105q-137 -104 -299 -105 q-141 0 -236.5 72t-95.5 213zM391 272q0 -59 40 -94t97 -35q92 0 154 68v281q-115 0 -203 -61t-88 -159zM512 1210l207 361q145 -25 242 -107l-326 -309z" />
<glyph unicode="&#xe2;" horiz-adv-x="1171" d="M61 254q0 178 146.5 271t474.5 93v62q0 61 -1 89t-9 66.5t-23.5 55t-46.5 30t-76 13.5l-260 -225q-139 80 -139 247q23 10 61.5 26.5t151.5 44.5t219 28q440 0 440 -353v-548h160v-88q-10 -10 -28.5 -26.5t-79.5 -43.5t-127 -27q-156 0 -232 105q-137 -104 -299 -105 q-141 0 -236.5 72t-95.5 213zM242 1200l235 369h223l240 -369l-139 -49l-211 256l-209 -256zM391 272q0 -59 40 -94t97 -35q92 0 154 68v281q-115 0 -203 -61t-88 -159z" />
<glyph unicode="&#xe3;" horiz-adv-x="1171" d="M61 254q0 178 146.5 271t474.5 93v62q0 61 -1 89t-9 66.5t-23.5 55t-46.5 30t-76 13.5l-260 -225q-139 80 -139 247q23 10 61.5 26.5t151.5 44.5t219 28q440 0 440 -353v-548h160v-88q-10 -10 -28.5 -26.5t-79.5 -43.5t-127 -27q-156 0 -232 105q-137 -104 -299 -105 q-141 0 -236.5 72t-95.5 213zM160 1358q14 18 37.5 47t100.5 77t155 48q59 0 153.5 -55.5t145.5 -55.5q72 0 194 90l76 -79q-4 -8 -12.5 -21.5t-37 -46.5t-60 -58.5t-85 -47t-108.5 -21.5q-59 0 -151.5 55.5t-145.5 55.5q-14 0 -29.5 -3.5t-26 -5.5t-29 -11t-27.5 -14 t-36.5 -19.5t-40.5 -22.5zM391 272q0 -59 40 -94t97 -35q92 0 154 68v281q-115 0 -203 -61t-88 -159z" />
<glyph unicode="&#xe4;" horiz-adv-x="1171" d="M61 254q0 178 146.5 271t474.5 93v62q0 61 -1 89t-9 66.5t-23.5 55t-46.5 30t-76 13.5l-260 -225q-139 80 -139 247q23 10 61.5 26.5t151.5 44.5t219 28q440 0 440 -353v-548h160v-88q-10 -10 -28.5 -26.5t-79.5 -43.5t-127 -27q-156 0 -232 105q-137 -104 -299 -105 q-141 0 -236.5 72t-95.5 213zM221 1409q0 70 47 116t117 46t116 -46t46 -116t-46 -117t-116 -47t-117 47t-47 117zM391 272q0 -59 40 -94t97 -35q92 0 154 68v281q-115 0 -203 -61t-88 -159zM631 1409q0 70 47 116t116.5 46t115.5 -46t46 -116t-46 -117t-115.5 -47 t-116.5 47t-47 117z" />
<glyph unicode="&#xe5;" horiz-adv-x="1171" d="M61 254q0 178 146.5 271t474.5 93v62q0 61 -1 89t-9 66.5t-23.5 55t-46.5 30t-76 13.5l-260 -225q-139 80 -139 247q23 10 61.5 26.5t151.5 44.5t219 28q440 0 440 -353v-548h160v-88q-10 -10 -28.5 -26.5t-79.5 -43.5t-127 -27q-156 0 -232 105q-137 -104 -299 -105 q-141 0 -236.5 72t-95.5 213zM346 1405q0 100 71.5 172t172 72t172.5 -72t72 -172q0 -102 -72 -174t-172.5 -72t-172 72t-71.5 174zM391 272q0 -59 40 -94t97 -35q92 0 154 68v281q-115 0 -203 -61t-88 -159zM502 1405q0 -35 26.5 -61.5t61.5 -26.5t61.5 26.5t26.5 61.5 q0 33 -27.5 60.5t-60.5 27.5q-35 0 -61.5 -26.5t-26.5 -61.5z" />
<glyph unicode="&#xe6;" horiz-adv-x="1724" d="M63 254q0 178 146.5 271t474.5 93v62q0 61 -1 89t-9 66.5t-23.5 55t-46.5 30t-76 13.5l-260 -225q-141 82 -141 247q23 10 61.5 26.5t152.5 44.5t220 28q221 0 328 -133q133 133 328 133q162 0 266 -82t144 -202.5t40 -276.5h-663q12 -162 104 -266.5t238 -104.5 q109 0 235 47l31 -117q-190 -84 -359 -84q-119 0 -241.5 48.5t-192.5 160.5q-80 -94 -191.5 -151.5t-232.5 -57.5q-141 0 -236.5 72t-95.5 213zM393 272q0 -59 40 -94t97 -35q92 0 154 68v281q-115 0 -203 -61t-88 -159zM1004 610l339 27q0 59 -3 99t-15 88t-42 73t-77 25 q-86 0 -144 -96.5t-58 -215.5z" />
<glyph unicode="&#xe7;" horiz-adv-x="1007" d="M70 516q0 242 156.5 390.5t369.5 148.5q178 0 350 -86q-4 -174 -149 -250l-176 203h-13q-86 -25 -151.5 -126.5t-65.5 -283.5q0 -219 93.5 -308t248.5 -83q88 2 211 39l25 -121q-166 -70 -340 -70q-55 0 -97 8l-10 -47q109 2 177.5 -52t68.5 -136q0 -109 -89 -171.5 t-243 -62.5q-49 0 -157 23v135q78 -16 102 -16q59 0 95 26.5t36 71.5q0 57 -35 82t-104 29l39 147q-154 57 -248 189.5t-94 320.5z" />
<glyph unicode="&#xe8;" horiz-adv-x="1116" d="M72 524q0 242 136 386.5t370 144.5q238 0 359.5 -161.5t121.5 -399.5h-672q14 -152 108.5 -261.5t241.5 -109.5q111 0 238 47l43 -117q-190 -84 -373 -84q-264 0 -418.5 155t-154.5 400zM240 1464q91 84 241 107l209 -354l-125 -62zM387 621l346 22q4 109 -42 194 t-120 85q-82 0 -135 -84t-49 -217z" />
<glyph unicode="&#xe9;" horiz-adv-x="1116" d="M72 524q0 242 136 386.5t370 144.5q238 0 359.5 -161.5t121.5 -399.5h-672q14 -152 108.5 -261.5t241.5 -109.5q111 0 238 47l43 -117q-190 -84 -373 -84q-264 0 -418.5 155t-154.5 400zM387 621l346 22q4 109 -42 194t-120 85q-82 0 -135 -84t-49 -217zM500 1210 l207 361q145 -25 241 -107l-325 -309z" />
<glyph unicode="&#xea;" horiz-adv-x="1116" d="M72 524q0 242 136 386.5t370 144.5q238 0 359.5 -161.5t121.5 -399.5h-672q14 -152 108.5 -261.5t241.5 -109.5q111 0 238 47l43 -117q-190 -84 -373 -84q-264 0 -418.5 155t-154.5 400zM229 1200l236 369h223l240 -369l-140 -49l-210 256l-209 -256zM387 621l346 22 q4 109 -42 194t-120 85q-82 0 -135 -84t-49 -217z" />
<glyph unicode="&#xeb;" horiz-adv-x="1116" d="M72 524q0 242 136 386.5t370 144.5q238 0 359.5 -161.5t121.5 -399.5h-672q14 -152 108.5 -261.5t241.5 -109.5q111 0 238 47l43 -117q-190 -84 -373 -84q-264 0 -418.5 155t-154.5 400zM209 1409q0 70 47 116t116.5 46t116 -46t46.5 -116t-46.5 -117t-116 -47t-116.5 47 t-47 117zM387 621l346 22q4 109 -42 194t-120 85q-82 0 -135 -84t-49 -217zM618 1409q0 70 47.5 116t117 46t115.5 -46t46 -116t-46 -117t-115.5 -47t-117 47t-47.5 117z" />
<glyph unicode="&#xec;" horiz-adv-x="759" d="M61 0v109l175 41v688h-175v108l328 78h166v-874l174 -41v-109h-668zM68 1464q91 84 241 107l209 -354l-125 -62z" />
<glyph unicode="&#xed;" horiz-adv-x="759" d="M61 0v109l175 41v688h-175v108l328 78h166v-874l174 -41v-109h-668zM295 1210l207 361q145 -25 241 -107l-325 -309z" />
<glyph unicode="&#xee;" horiz-adv-x="759" d="M4 1200l236 369h223l239 -369l-139 -49l-211 256l-209 -256zM61 0v109l175 41v688h-175v108l328 78h166v-874l174 -41v-109h-668z" />
<glyph unicode="&#xef;" horiz-adv-x="759" d="M8 1409q0 70 47 116t117 46t116 -46t46 -116t-46 -117t-116 -47t-117 47t-47 117zM61 0v109l175 41v688h-175v108l328 78h166v-874l174 -41v-109h-668zM418 1409q0 70 47 116t116.5 46t115.5 -46t46 -116t-46 -117t-115.5 -47t-116.5 47t-47 117z" />
<glyph unicode="&#xf0;" horiz-adv-x="1300" d="M76 492q0 211 133 349t344 138q68 0 147.5 -26.5t122.5 -61.5q-49 211 -186 336l-270 -166v160l147 90q-90 47 -209 65v174q217 -16 408 -118l237 145v-160l-110 -67q348 -264 348 -715q0 -305 -150.5 -486.5t-443.5 -181.5q-260 0 -389 138.5t-129 386.5zM403 483 q0 -164 55.5 -273.5t155.5 -109.5q229 0 230 461q0 18 -10 172q-78 82 -170 82q-127 0 -194 -74.5t-67 -257.5z" />
<glyph unicode="&#xf1;" horiz-adv-x="1394" d="M61 0v109l175 41v688h-175v108l328 78h162v-100q127 131 309 131q160 0 253 -90.5t93 -231.5v-583l174 -41v-109h-622v109l133 41v526q0 109 -25.5 153.5t-111.5 44.5t-203 -90v-634l133 -41v-109h-623zM299 1358q14 18 37.5 47t100.5 77t155 48q59 0 153.5 -55.5 t145.5 -55.5q72 0 194 90l76 -79q-4 -8 -12 -21.5t-37 -46.5t-60.5 -58.5t-85 -47t-108.5 -21.5q-59 0 -151.5 55.5t-145.5 55.5q-14 0 -29.5 -3.5t-25.5 -5.5t-28.5 -11t-28 -14t-37 -19.5t-39.5 -22.5z" />
<glyph unicode="&#xf2;" horiz-adv-x="1239" d="M68 514q0 238 158.5 389.5t394 151.5t393 -151.5t157.5 -389.5t-158.5 -391.5t-391.5 -153.5q-236 0 -394.5 153.5t-158.5 391.5zM285 1464q91 84 241 107l209 -354l-125 -62zM397 514q0 -190 56.5 -301t167 -111t167 111t56.5 301q0 188 -56.5 298t-167 110t-167 -110 t-56.5 -298z" />
<glyph unicode="&#xf3;" horiz-adv-x="1239" d="M68 514q0 238 158.5 389.5t394 151.5t393 -151.5t157.5 -389.5t-158.5 -391.5t-391.5 -153.5q-236 0 -394.5 153.5t-158.5 391.5zM397 514q0 -190 56.5 -301t167 -111t167 111t56.5 301q0 188 -56.5 298t-167 110t-167 -110t-56.5 -298zM545 1210l207 361 q145 -25 241 -107l-325 -309z" />
<glyph unicode="&#xf4;" horiz-adv-x="1239" d="M68 514q0 238 158.5 389.5t394 151.5t393 -151.5t157.5 -389.5t-158.5 -391.5t-391.5 -153.5q-236 0 -394.5 153.5t-158.5 391.5zM274 1200l236 369h223l240 -369l-139 -49l-211 256l-209 -256zM397 514q0 -190 56.5 -301t167 -111t167 111t56.5 301q0 188 -56.5 298 t-167 110t-167 -110t-56.5 -298z" />
<glyph unicode="&#xf5;" horiz-adv-x="1239" d="M68 514q0 238 158.5 389.5t394 151.5t393 -151.5t157.5 -389.5t-158.5 -391.5t-391.5 -153.5q-236 0 -394.5 153.5t-158.5 391.5zM193 1358q14 18 37.5 47t100.5 77t154 48q59 0 153.5 -55.5t145.5 -55.5q72 0 195 90l76 -79q-4 -8 -12.5 -21.5t-37 -46.5t-60.5 -58.5 t-85 -47t-108 -21.5q-59 0 -151.5 55.5t-145.5 55.5q-14 0 -29.5 -3.5t-26 -5.5t-29 -11t-27.5 -14t-36.5 -19.5t-40.5 -22.5zM397 514q0 -190 56.5 -301t167 -111t167 111t56.5 301q0 188 -56.5 298t-167 110t-167 -110t-56.5 -298z" />
<glyph unicode="&#xf6;" horiz-adv-x="1239" d="M68 514q0 238 158.5 389.5t394 151.5t393 -151.5t157.5 -389.5t-158.5 -391.5t-391.5 -153.5q-236 0 -394.5 153.5t-158.5 391.5zM274 1409q0 70 47.5 116t117 46t115.5 -46t46 -116t-46 -117t-115.5 -47t-117 47t-47.5 117zM397 514q0 -190 56.5 -301t167 -111t167 111 t56.5 301q0 188 -56.5 298t-167 110t-167 -110t-56.5 -298zM684 1409q0 70 47 116t117 46t116 -46t46 -116t-46 -117t-116 -47t-117 47t-47 117z" />
<glyph unicode="&#xf7;" horiz-adv-x="1112" d="M96 641v178h920v-178h-920zM420 383q0 57 41 97t96 40q57 0 97 -40t40 -97q0 -55 -40 -97t-97 -42q-55 0 -96 42t-41 97zM420 1079q0 57 41 98.5t96 41.5q57 0 97 -41t40 -99q0 -55 -40 -97t-97 -42q-55 0 -96 42t-41 97z" />
<glyph unicode="&#xf8;" horiz-adv-x="1239" d="M68 514q0 238 158.5 389.5t394.5 151.5q111 0 215 -39l82 149h131l-111 -202q109 -72 171 -189t62 -260q0 -238 -158.5 -391.5t-391.5 -153.5q-109 0 -207 35l-82 -149h-133l110 202q-113 72 -177 191t-64 266zM397 514q0 -141 31 -240l324 588q-53 59 -131 60 q-111 0 -167.5 -110t-56.5 -298zM496 154q51 -52 125 -52q111 0 167 111t56 301q0 129 -29 225z" />
<glyph unicode="&#xf9;" horiz-adv-x="1366" d="M18 915v109h490v-707q0 -104 25.5 -144t103.5 -40q59 0 122.5 31t102.5 82v628l-133 41v109h451v-870h159v-88q-14 -10 -38.5 -26.5t-95 -43.5t-136.5 -27q-147 0 -207 133q-145 -133 -356 -133q-313 0 -313 322v583zM315 1464q92 84 242 107l209 -354l-125 -62z" />
<glyph unicode="&#xfa;" horiz-adv-x="1366" d="M18 915v109h490v-707q0 -104 25.5 -144t103.5 -40q59 0 122.5 31t102.5 82v628l-133 41v109h451v-870h159v-88q-14 -10 -38.5 -26.5t-95 -43.5t-136.5 -27q-147 0 -207 133q-145 -133 -356 -133q-313 0 -313 322v583zM575 1210l207 361q145 -25 242 -107l-326 -309z" />
<glyph unicode="&#xfb;" horiz-adv-x="1366" d="M18 915v109h490v-707q0 -104 25.5 -144t103.5 -40q59 0 122.5 31t102.5 82v628l-133 41v109h451v-870h159v-88q-14 -10 -38.5 -26.5t-95 -43.5t-136.5 -27q-147 0 -207 133q-145 -133 -356 -133q-313 0 -313 322v583zM305 1200l236 369h223l240 -369l-140 -49l-211 256 l-209 -256z" />
<glyph unicode="&#xfc;" horiz-adv-x="1366" d="M18 915v109h490v-707q0 -104 25.5 -144t103.5 -40q59 0 122.5 31t102.5 82v628l-133 41v109h451v-870h159v-88q-14 -10 -38.5 -26.5t-95 -43.5t-136.5 -27q-147 0 -207 133q-145 -133 -356 -133q-313 0 -313 322v583zM285 1409q0 70 47 116t116.5 46t115.5 -46t46 -116 t-46 -117t-115.5 -47t-116.5 47t-47 117zM694 1409q0 70 47 116t117 46t116 -46t46 -116t-46 -117t-116 -47t-117 47t-47 117z" />
<glyph unicode="&#xfd;" horiz-adv-x="1255" d="M-10 915v109h633v-109l-136 -24l265 -526l192 512l-156 38v109h476v-109l-170 -47l-572 -1480h-37q-61 0 -115.5 26.5t-76.5 65.5l297 473l-447 919zM592 1210l207 361q145 -25 241 -107l-325 -309z" />
<glyph unicode="&#xfe;" horiz-adv-x="1214" d="M-29 -506l174 41v1919h-174v109l328 77h168v-657q104 72 248 72q184 0 305 -128t121 -378q0 -281 -158 -430.5t-414 -149.5q-61 0 -102 8v-442l215 -41v-108h-711v108zM467 111q33 -8 84 -9q250 1 250 439q0 340 -193 340q-70 0 -141 -33v-737z" />
<glyph unicode="&#xff;" horiz-adv-x="1255" d="M-10 915v109h633v-109l-136 -24l265 -526l192 512l-156 38v109h476v-109l-170 -47l-572 -1480h-37q-61 0 -115.5 26.5t-76.5 65.5l297 473l-447 919zM301 1409q0 70 47 116t117 46t116 -46t46 -116t-46 -117t-116 -47t-117 47t-47 117zM711 1409q0 70 47 116t116.5 46 t115.5 -46t46 -116t-46 -117t-115.5 -47t-116.5 47t-47 117z" />
<glyph unicode="&#x152;" horiz-adv-x="2230" d="M86 717q0 332 181.5 539.5t504.5 207.5q123 0 235.5 -53t188.5 -143v166h899v-420h-115l-77 262h-420v-481l428 41v-203l-428 37v-512h418l141 284h115l-62 -442h-899v164q-162 -195 -424 -195q-176 0 -311 58.5t-215 162t-120 236.5t-40 291zM430 717q0 -268 95.5 -437 t267.5 -169q186 0 305 166.5t119 418.5q0 283 -115 455t-309 172q-178 0 -270.5 -167t-92.5 -439z" />
<glyph unicode="&#x153;" horiz-adv-x="1878" d="M70 512q0 240 151.5 391.5t384.5 151.5q250 0 398 -195q131 195 376 195q225 0 331 -158.5t106 -402.5h-629q29 -371 321 -371q109 0 236 47l31 -117q-190 -84 -359 -84q-266 0 -407 203q-145 -203 -404 -203q-233 0 -384.5 151.5t-151.5 391.5zM395 512q0 -410 211 -410 q207 0 207 410t-207 410q-211 0 -211 -410zM1188 614l332 35q6 53 -3.5 112.5t-44.5 110t-92 50.5q-168 0 -192 -308z" />
<glyph unicode="&#x178;" horiz-adv-x="1435" d="M346 1750q0 70 47 116t116.5 46t115.5 -46t46 -116t-46 -117t-115.5 -47t-116.5 47t-47 117zM755 1750q0 70 47 116t117 46t116 -46t46 -116t-46 -117t-116 -47t-117 47t-47 117zM-18 1319v115h671v-115l-133 -27l293 -430l262 416l-151 41v115h522v-115l-189 -45 l-368 -586v-528l188 -45v-115h-710v115l188 45v530l-408 588z" />
<glyph unicode="&#x2c6;" horiz-adv-x="651" d="M-18 1200l235 369h223l240 -369l-139 -49l-211 256l-209 -256z" />
<glyph unicode="&#x2dc;" horiz-adv-x="999" d="M49 1354q14 18 38 47t100.5 77t154.5 48q59 0 153.5 -55.5t145.5 -55.5q72 0 195 90l75 -80q-4 -8 -12 -21t-36.5 -46t-60.5 -58.5t-85 -47t-109 -21.5q-59 0 -151 55t-146 55q-14 0 -29.5 -3t-25.5 -5t-28.5 -11t-28 -14t-37 -19.5t-39.5 -22.5z" />
<glyph unicode="&#x2000;" horiz-adv-x="956" />
<glyph unicode="&#x2001;" horiz-adv-x="1912" />
<glyph unicode="&#x2002;" horiz-adv-x="956" />
<glyph unicode="&#x2003;" horiz-adv-x="1912" />
<glyph unicode="&#x2004;" horiz-adv-x="637" />
<glyph unicode="&#x2005;" horiz-adv-x="478" />
<glyph unicode="&#x2006;" horiz-adv-x="318" />
<glyph unicode="&#x2007;" horiz-adv-x="318" />
<glyph unicode="&#x2008;" horiz-adv-x="239" />
<glyph unicode="&#x2009;" horiz-adv-x="382" />
<glyph unicode="&#x200a;" horiz-adv-x="106" />
<glyph unicode="&#x2010;" horiz-adv-x="686" d="M119 463v196h448v-196h-448z" />
<glyph unicode="&#x2011;" horiz-adv-x="686" d="M119 463v196h448v-196h-448z" />
<glyph unicode="&#x2012;" horiz-adv-x="686" d="M119 463v196h448v-196h-448z" />
<glyph unicode="&#x2013;" horiz-adv-x="1261" d="M109 473v172h1044v-172h-1044z" />
<glyph unicode="&#x2014;" horiz-adv-x="2285" d="M109 473v170h2068v-170h-2068z" />
<glyph unicode="&#x2018;" horiz-adv-x="534" d="M74 1077q0 119 99 250t208 201l96 -86q-121 -125 -190 -266l166 -105q0 -84 -56.5 -139t-132.5 -55q-92 0 -141 52t-49 148z" />
<glyph unicode="&#x2019;" horiz-adv-x="532" d="M76 944q121 125 190 266l-166 105q0 84 56.5 139t132.5 55q92 0 141 -52t49 -148q0 -119 -99 -250t-208 -201z" />
<glyph unicode="&#x201a;" horiz-adv-x="542" d="M51 -276q121 125 191 266l-166 104q0 84 56 139.5t132 55.5q92 0 141.5 -52.5t49.5 -148.5q0 -119 -99.5 -249.5t-208.5 -200.5z" />
<glyph unicode="&#x201c;" horiz-adv-x="954" d="M76 1081q0 119 99 250t208 201l96 -86q-121 -125 -190 -266l166 -105q0 -84 -56.5 -139t-132.5 -55q-92 0 -141 52t-49 148zM496 1081q0 119 99 250t208 201l96 -86q-121 -125 -190 -266l165 -105q0 -84 -56 -139t-132 -55q-92 0 -141 52t-49 148z" />
<glyph unicode="&#x201d;" horiz-adv-x="952" d="M76 944q121 125 190 266l-166 105q0 84 56.5 139t132.5 55q92 0 141 -52t49 -148q0 -119 -99 -250t-208 -201zM496 944q121 125 190 266l-166 105q0 84 56.5 139t132.5 55q92 0 141 -52t49 -148q0 -119 -99 -250t-208 -201z" />
<glyph unicode="&#x201e;" horiz-adv-x="960" d="M51 -276q121 125 191 266l-166 104q0 84 56 139.5t132 55.5q92 0 141.5 -52.5t49.5 -148.5q0 -119 -99.5 -249.5t-208.5 -200.5zM471 -276q121 125 191 266l-166 104q0 84 56 139.5t132 55.5q92 0 141 -52.5t49 -148.5q0 -119 -99 -249.5t-208 -200.5z" />
<glyph unicode="&#x2022;" horiz-adv-x="888" d="M113 731q0 135 98 233.5t233.5 98.5t233.5 -98.5t98 -233.5t-98 -233.5t-233.5 -98.5t-233.5 98.5t-98 233.5z" />
<glyph unicode="&#x2026;" horiz-adv-x="1554" d="M1120 129q0 72 52 123t124 51t123 -51t51 -123q0 -70 -51 -123t-123 -53q-70 0 -123 53t-53 123zM602 129q0 72 52 123t124 51t123 -51t51 -123q0 -70 -51 -123t-123 -53q-70 0 -123 53t-53 123zM84 129q0 72 52 123t124 51t123 -51t51 -123q0 -70 -51 -123t-123 -53 q-70 0 -123 53t-53 123z" />
<glyph unicode="&#x202f;" horiz-adv-x="382" />
<glyph unicode="&#x2039;" horiz-adv-x="645" d="M86 520v66l334 377l112 -41l-145 -369l145 -369l-112 -41z" />
<glyph unicode="&#x203a;" horiz-adv-x="645" d="M113 184l145 369l-145 369l112 41l334 -377v-66l-334 -377z" />
<glyph unicode="&#x205f;" horiz-adv-x="478" />
<glyph unicode="&#x20ac;" horiz-adv-x="1468" d="M88 481v117l129 6q-4 74 -4 113v55h-125v117l139 8q47 276 235.5 421.5t504.5 145.5q195 0 366 -80v-378h-116l-89 288q-68 12 -141 13q-186 0 -288.5 -94.5t-133.5 -297.5l516 31l-59 -174h-469v-55q0 -63 2 -94l422 24l-57 -166h-351q68 -354 383 -354q72 0 142 12 l149 307h115l-55 -376q-170 -100 -383 -101q-276 0 -452.5 131t-234.5 381h-145z" />
<glyph unicode="&#x2122;" horiz-adv-x="3440" d="M1382 0v115l194 47l64 1114l-180 43l4 115h508l421 -977l439 977h495v-115l-182 -43l72 -1116l196 -45v-115h-718v115l180 43l-56 860l-458 -1028h-133l-445 1034l-47 -866l182 -43v-115h-536zM45 999v435h1260v-435h-125l-84 277h-254v-1116l188 -45v-115h-711v115 l189 45v1116h-256l-84 -277h-123z" />
<glyph unicode="&#xe000;" horiz-adv-x="1025" d="M0 1025h1025v-1025h-1025v1025z" />
<glyph unicode="&#xfb01;" horiz-adv-x="1625" d="M931 0v109l175 41v688h-175v108l328 78h162v-874l174 -41v-109h-664zM1073 1339q0 80 55 134.5t135 54.5q82 0 136.5 -54.5t54.5 -134.5q0 -82 -54.5 -137t-136.5 -55q-80 0 -135 55t-55 137zM55 0v109l174 41v743h-172v117l172 12v154q0 240 110 366.5t314 126.5 q86 0 180.5 -17.5t145.5 -33.5l51 -16v-8q0 -68 -34 -132q-36 -69 -91 -98l-170 172q-41 0 -70.5 -12.5t-59.5 -47t-45 -110.5t-15 -190v-134l280 19v-168h-280v-743l241 -41v-109h-731z" />
<glyph unicode="&#xfb02;" horiz-adv-x="1594" d="M901 0v109l174 41v1302h-174v109l327 77h162v-1488l174 -41v-109h-663zM55 0v109l174 41v743h-172v117l172 12v154q0 240 110 366.5t314 126.5q86 0 180.5 -17.5t145.5 -33.5l51 -16v-8q0 -68 -34 -132q-36 -69 -91 -98l-170 172q-41 0 -70.5 -12.5t-59.5 -47t-45 -110.5 t-15 -190v-134l280 19v-168h-280v-743l241 -41v-109h-731z" />
<glyph unicode="&#xfb03;" horiz-adv-x="2495" d="M1801 0v109l175 41v688h-175v108l328 78h162v-874l174 -41v-109h-664zM1943 1339q0 80 55 134.5t135 54.5q82 0 136.5 -54.5t54.5 -134.5q0 -82 -54.5 -137t-136.5 -55q-80 0 -135 55t-55 137zM925 0v109l174 41v743h-172v117l172 12v154q0 240 110 366.5t314 126.5 q86 0 180.5 -17.5t145.5 -33.5l51 -16v-8q0 -68 -34 -132q-36 -69 -91 -98l-170 172q-41 0 -70.5 -12.5t-59.5 -47t-45 -110.5t-15 -190v-134l280 19v-168h-280v-743l241 -41v-109h-731zM55 0v109l174 41v743h-172v117l172 12v154q0 240 110 366.5t314 126.5 q86 0 180.5 -17.5t145.5 -33.5l51 -16v-8q0 -68 -34 -132q-36 -69 -91 -98l-170 172q-41 0 -70.5 -12.5t-59.5 -47t-45 -110.5t-15 -190v-134l280 19v-168h-280v-743l241 -41v-109h-731z" />
<glyph unicode="&#xfb04;" horiz-adv-x="2464" d="M1771 0v109l174 41v1302h-174v109l327 77h162v-1488l174 -41v-109h-663zM925 0v109l174 41v743h-172v117l172 12v154q0 240 110 366.5t314 126.5q86 0 180.5 -17.5t145.5 -33.5l51 -16v-8q0 -68 -34 -132q-36 -69 -91 -98l-170 172q-41 0 -70.5 -12.5t-59.5 -47 t-45 -110.5t-15 -190v-134l280 19v-168h-280v-743l241 -41v-109h-731zM55 0v109l174 41v743h-172v117l172 12v154q0 240 110 366.5t314 126.5q86 0 180.5 -17.5t145.5 -33.5l51 -16v-8q0 -68 -34 -132q-36 -69 -91 -98l-170 172q-41 0 -70.5 -12.5t-59.5 -47t-45 -110.5 t-15 -190v-134l280 19v-168h-280v-743l241 -41v-109h-731z" />
</font>
</defs>
</svg>
