<?xml version="1.0" standalone="no"?>
<!DOCTYPE svg PUBLIC "-//W3C//DTD SVG 1.1//EN" "http://www.w3.org/Graphics/SVG/1.1/DTD/svg11.dtd" >
<svg xmlns="http://www.w3.org/2000/svg">
<metadata>
This is a custom SVG webfont generated by Font Squirrel.
Copyright   : Copyright c 2011 Cyreal wwwcyrealorgwith Reserved Font Name Volkhov and Volkhov ItalicThis Font Software is licensed under the SIL Open Font LicenseVersion 11 This license is available with a FAQ athttpscriptssilorgOFL
Designer    : Cyreal wwwcyrealorg
Foundry     : Cyreal wwwcyrealorg
Foundry URL : httpcyrealorg
</metadata>
<defs>
<font id="VolkhovRegular" horiz-adv-x="1316" >
<font-face units-per-em="2048" ascent="1638" descent="-410" />
<missing-glyph horiz-adv-x="493" />
<glyph unicode=" "  horiz-adv-x="493" />
<glyph unicode="&#x09;" horiz-adv-x="493" />
<glyph unicode="&#xa0;" horiz-adv-x="493" />
<glyph unicode="!" horiz-adv-x="571" d="M37 125q0 57 41 96t98 39t97 -39t40 -96t-40 -98t-97 -41t-98 41t-41 98zM168 426l213 1008h197l-293 -1008h-117z" />
<glyph unicode="&#x22;" horiz-adv-x="747" d="M240 969l51 481h213l-162 -481h-102zM592 969l51 481h213l-162 -481h-102z" />
<glyph unicode="#" horiz-adv-x="1126" d="M47 0l160 412h-152l31 131h172l154 391h-191l31 131h211l145 369h131l-145 -369h248l145 369h131l-147 -369h170l-29 -131h-190l-156 -391h209l-31 -131h-229l-160 -412h-131l160 412h-248l-160 -412h-129zM387 543h250l154 391h-248z" />
<glyph unicode="$" horiz-adv-x="1153" d="M10 82l115 377h80v-330q86 -35 190 -35l140 561q-70 51 -104 80t-82 81t-69.5 109.5t-21.5 127.5q0 180 131 283.5t340 111.5l37 143h119l-37 -143q164 -10 289 -64l-113 -376h-78v313q-47 12 -125 16l-133 -530q72 -57 109 -89t89 -89.5t75.5 -117.5t23.5 -128 q0 -188 -134 -287.5t-368 -107.5l-39 -158h-114l39 160q-212 14 -359 92zM455 1104q0 -104 135 -219l110 446q-109 -14 -177 -69.5t-68 -157.5zM512 102q113 20 184.5 79t71.5 161q0 125 -137 240z" />
<glyph unicode="%" horiz-adv-x="1484" d="M193 0l1034 1436h133l-1030 -1436h-137zM199 967q0 199 100 341t270 142q92 0 146.5 -54.5t54.5 -156.5q0 -199 -100.5 -341t-270.5 -142q-92 0 -146 54t-54 157zM348 965q0 -146 76 -146q80 0 139.5 141.5t59.5 280.5q0 143 -76 143q-82 0 -140.5 -134t-58.5 -285z M772 195q0 199 100.5 341t270.5 142q92 0 147.5 -54.5t55.5 -154.5q0 -199 -101.5 -341t-271.5 -142q-92 0 -146.5 53t-54.5 156zM922 195q-1 -146 75 -146q80 0 139.5 141.5t59.5 278.5q0 145 -76 145q-82 0 -140 -134t-58 -285z" />
<glyph unicode="&#x26;" horiz-adv-x="1554" d="M94 354q0 201 133 331t353 157l2 4q-100 20 -160 90t-60 162q0 164 129.5 258t348.5 94q154 0 240.5 -52t86.5 -138q0 -74 -56 -109t-136 -35q-18 0 -27 2q18 49 19 94q0 66 -37 110t-109 44q-106 0 -177 -82t-71 -199q0 -98 64.5 -153t183.5 -55l-12 -105 q-78 0 -161 -22.5t-159.5 -66.5t-126 -123t-49.5 -179q0 -125 81 -195.5t233 -70.5q188 0 336.5 125t216.5 280h-60q-190 0 -274 -22.5t-164 -116.5q0 2 -19.5 15.5t-21.5 13.5q37 76 93.5 127t129 74.5t138 32.5t149.5 9h70q115 0 196.5 26t110.5 109q47 -35 47 -112 q0 -66 -53.5 -111t-175.5 -45h-62q-100 -246 -283.5 -390t-455.5 -144q-213 0 -332 97t-119 271z" />
<glyph unicode="'" horiz-adv-x="395" d="M238 969l53 481h213l-162 -481h-104z" />
<glyph unicode="(" horiz-adv-x="653" d="M16 166q0 426 215 820t586 650l45 -59q-313 -274 -491 -655t-178 -816q0 -414 176 -659l-58 -59q-295 301 -295 778z" />
<glyph unicode=")" horiz-adv-x="649" d="M-254 -553q311 274 490.5 655t179.5 816q0 416 -178 659l57 59q295 -299 295 -778q0 -426 -215 -820t-584 -650z" />
<glyph unicode="*" horiz-adv-x="983" d="M242 1219l47 143l286 -115l-20 309h152l-21 -309l287 113l47 -141l-299 -80l197 -238l-121 -90l-166 262l-164 -262l-125 90l199 240z" />
<glyph unicode="+" horiz-adv-x="1138" d="M131 662v139h399v399h138v-399h403v-139h-403v-402h-138v402h-399z" />
<glyph unicode="," horiz-adv-x="471" d="M-168 -291q162 131 250 297l-98 103q0 57 41 97t98 40t97 -39t40 -98q0 -119 -126 -253t-255 -206z" />
<glyph unicode="-" horiz-adv-x="753" d="M143 481v158h449v-158h-449z" />
<glyph unicode="." horiz-adv-x="473" d="M-10 125q0 57 41 96t98 39t97 -39t40 -96t-40 -98t-97 -41t-98 41t-41 98z" />
<glyph unicode="/" horiz-adv-x="886" d="M-72 0l955 1434h135l-955 -1434h-135z" />
<glyph unicode="0" horiz-adv-x="1251" d="M113 428q0 184 52 366.5t143 328t228.5 236.5t294.5 91q182 0 273.5 -115.5t91.5 -324.5q0 -260 -87 -492.5t-254 -382t-378 -149.5q-184 0 -274 120.5t-90 321.5zM319 414q0 -145 46.5 -234.5t138.5 -89.5q131 0 246.5 156.5t177 370.5t61.5 405q0 145 -46 232t-140 87 q-131 0 -246 -146t-176.5 -358t-61.5 -423z" />
<glyph unicode="1" horiz-adv-x="710" d="M139 0l320 1251l-256 -104l-13 74l463 227h52l-363 -1448h-203z" />
<glyph unicode="2" horiz-adv-x="1081" d="M-37 0l27 123q115 121 258 270.5t211.5 221t148.5 161.5t112 142.5t54.5 112t22.5 116.5q0 94 -47.5 155.5t-141.5 61.5q-88 0 -140 -60.5t-52 -154.5q0 -53 14 -105q-29 -4 -39 -4q-72 0 -118 39t-46 111q0 115 105.5 187.5t283.5 72.5q174 0 278.5 -79t104.5 -220 q0 -84 -28.5 -154.5t-102 -155.5t-152.5 -160t-229.5 -220.5t-281.5 -282.5h520l149 221h82l-139 -399h-854z" />
<glyph unicode="3" horiz-adv-x="1112" d="M-27 115l41 80q164 -100 336 -101q164 0 274.5 88t110.5 236q0 141 -80 214t-260 75l25 102q164 4 274.5 104.5t110.5 270.5q0 80 -47 131t-129 51q-98 0 -155.5 -58.5t-57.5 -156.5q0 -37 14 -98q-74 -18 -133 20.5t-59 118.5q0 121 112.5 189.5t265.5 68.5 q164 0 277 -73.5t113 -219t-98.5 -248t-262.5 -151.5v-4q143 -23 221 -104t78 -201q0 -213 -152.5 -338t-367.5 -125q-244 0 -451 129z" />
<glyph unicode="4" horiz-adv-x="1126" d="M-39 362l19 72l995 1014h102l-235 -950h151l-35 -136h-151l-90 -362h-199l90 362h-647zM197 498h446l148 596z" />
<glyph unicode="5" horiz-adv-x="1042" d="M-66 72l56 84q111 -57 235 -58q190 0 331.5 122t141.5 323q0 104 -66.5 178t-201.5 74q-98 0 -184 -19l-37 29l209 629h416q188 0 295 123q12 15 12 16l55 -31q-39 -59 -57.5 -85.5t-60.5 -71t-82 -65t-105.5 -36.5t-145.5 -16h-266l-121 -373l19 6q106 27 192 27 q176 0 262.5 -101.5t86.5 -240.5q0 -238 -195 -419t-463 -181q-100 0 -182 21.5t-113 42.5z" />
<glyph unicode="6" horiz-adv-x="1103" d="M88 403q0 256 115.5 481.5t338 379t507.5 186.5l12 -96q-258 -49 -448.5 -212t-280.5 -394q166 129 352 129q156 0 236.5 -95.5t80.5 -240.5q0 -236 -150.5 -395.5t-395.5 -159.5q-178 0 -272.5 115.5t-94.5 301.5zM266 408q0 -145 57.5 -233.5t159.5 -88.5 q123 0 214 127t91 291q0 98 -49 162.5t-149 64.5q-141 0 -295 -98q-29 -109 -29 -225z" />
<glyph unicode="7" horiz-adv-x="944" d="M145 0q115 311 326 660.5t430 594.5h-520l-143 -211h-82l133 390h805l-29 -129q-504 -659 -707 -1305h-213z" />
<glyph unicode="8" horiz-adv-x="1183" d="M94 264q0 152 110.5 281t272.5 219q-170 152 -170 299q0 172 135.5 279.5t325.5 107.5q160 0 254 -70.5t94 -197.5q0 -139 -91 -237.5t-239 -180.5q98 -82 149.5 -160t51.5 -184q0 -203 -152.5 -318.5t-381.5 -115.5q-147 0 -253 73.5t-106 204.5zM285 291 q0 -98 61.5 -152.5t153.5 -54.5q129 0 215 75.5t86 196.5q0 45 -15.5 88t-34 72t-59.5 68t-62.5 57t-74.5 59q-113 -78 -191.5 -184t-78.5 -225zM498 1137q0 -61 33.5 -121t70.5 -95.5t109 -95.5q227 154 227 338q0 90 -61.5 138.5t-145.5 48.5q-94 0 -163.5 -58.5 t-69.5 -154.5z" />
<glyph unicode="9" horiz-adv-x="1103" d="M102 80q258 49 448.5 212t280.5 394q-166 -129 -352 -129q-156 0 -236.5 95.5t-80.5 240.5q0 236 150.5 395.5t396.5 159.5q178 0 272 -115.5t94 -302.5q0 -256 -115.5 -481t-337.5 -378.5t-507 -186.5zM375 930q0 -98 49 -163t149 -65q141 0 295 99q29 109 29 225 q0 145 -57.5 233.5t-159.5 88.5q-123 0 -214 -127t-91 -291z" />
<glyph unicode=":" horiz-adv-x="559" d="M20 125q0 57 41 97t97 40q57 0 97 -40t40 -97t-40 -98t-97 -41q-55 0 -96.5 41t-41.5 98zM199 805q0 55 42 96t97 41q57 0 97 -40t40 -97t-40 -98t-97 -41q-55 0 -97 41t-42 98z" />
<glyph unicode=";" horiz-adv-x="563" d="M-133 -272q92 74 147.5 139t102.5 158l-99 102q0 57 41 96t98.5 39t97.5 -38t40 -97q0 -121 -125 -254t-254 -205zM201 805q0 57 41 97t98 40t97 -40t40 -97t-40 -98t-97 -41t-98 41t-41 98z" />
<glyph unicode="&#x3c;" horiz-adv-x="1187" d="M123 676v112l878 474v-158l-688 -373l688 -369v-157z" />
<glyph unicode="=" horiz-adv-x="1222" d="M141 494v137h940v-137h-940zM141 831v140h940v-140h-940z" />
<glyph unicode="&#x3e;" horiz-adv-x="1183" d="M250 205v157l688 369l-688 373v158l878 -474v-112z" />
<glyph unicode="?" horiz-adv-x="956" d="M231 125q0 57 41 96t98.5 39t97.5 -39t40 -96t-40 -98t-97.5 -41t-98.5 41t-41 98zM242 1208q0 104 106.5 173t294.5 69q154 0 252 -69.5t98 -190.5q0 -109 -61.5 -188.5t-148.5 -126t-175 -85t-149.5 -93t-61.5 -124.5q0 -45 26 -72.5t64 -27.5q49 0 101 39l49 -63 q-68 -66 -172 -66q-76 0 -136.5 51t-60.5 137q0 92 53.5 164t130 119t152.5 92t129 109.5t53 148.5q0 76 -46 118t-122 42q-82 0 -130 -57.5t-48 -149.5q0 -39 15 -102q-96 0 -154.5 39t-58.5 114z" />
<glyph unicode="@" horiz-adv-x="1792" d="M115 475q0 410 263 692.5t687 282.5q295 0 487.5 -167t192.5 -431q0 -289 -210 -476.5t-519 -187.5q-55 1 -55 48q0 35 38 122q-156 -170 -325 -170q-76 0 -124 51.5t-48 159.5q0 279 184 480.5t420 201.5q160 0 299 -80l-246 -704q193 29 338 182.5t145 372.5 q0 225 -165.5 367.5t-415.5 142.5q-227 0 -405.5 -125t-270.5 -321.5t-92 -421.5q0 -287 176 -454t451 -167q195 0 387 78l34 -70q-217 -121 -483 -121q-317 0 -530 186.5t-213 528.5zM698 446q0 -127 82 -127q61 0 139 63.5t144 156.5l156 446q-37 12 -86 12 q-170 0 -302.5 -166.5t-132.5 -384.5z" />
<glyph unicode="A" d="M-160 0l21 84l188 45l778 1305h113l96 -1307l162 -43l-20 -84h-512l20 84l156 37l-25 291h-469l-174 -285l162 -43l-21 -84h-475zM418 522h389l-37 596z" />
<glyph unicode="B" horiz-adv-x="1292" d="M-41 0l21 84l188 45l293 1176l-166 45l20 84h478q180 0 287.5 -75t107.5 -226q0 -137 -85 -242t-224 -139l-2 -7q111 -31 175 -111.5t64 -191.5q0 -213 -166 -327.5t-399 -114.5h-592zM360 115h179q158 4 265 94t107 246q0 102 -65.5 165.5t-183.5 63.5h-158zM532 803 h113q139 4 236.5 95t97.5 230q0 190 -217 191h-100z" />
<glyph unicode="C" horiz-adv-x="1259" d="M113 489q0 238 100 457t290.5 361.5t426.5 142.5q115 0 214 -20.5t141 -40.5l42 -21l-94 -379h-80l-12 322q-86 20 -152 20q-190 0 -346 -115.5t-241 -305t-85 -408.5q0 -166 70 -277.5t236 -111.5q90 0 180 18l233 332h80l-145 -377q-193 -100 -379 -100 q-131 0 -227.5 41t-149.5 112.5t-77.5 158.5t-24.5 191z" />
<glyph unicode="D" horiz-adv-x="1427" d="M-41 0l21 84l188 45l293 1176l-166 45l20 84h443q301 0 455.5 -128t154.5 -378q0 -225 -78 -405.5t-213 -293t-307 -171t-369 -58.5h-442zM365 127h67q322 0 527.5 235.5t205.5 573.5q0 371 -438 371h-68z" />
<glyph unicode="E" horiz-adv-x="1214" d="M-41 0l21 84l188 45l293 1176l-166 45l20 84h953l-105 -420h-78l-12 293h-414l-133 -527l416 41l-41 -172l-397 37l-139 -559h411l223 315h78l-166 -442h-952z" />
<glyph unicode="F" horiz-adv-x="1128" d="M-41 0l21 84l188 45l293 1176l-166 45l20 84h953l-105 -420h-78l-12 293h-414l-133 -527l416 41l-41 -172l-397 37l-139 -557l206 -45l-20 -84h-592z" />
<glyph unicode="G" horiz-adv-x="1368" d="M111 483q0 262 111.5 482.5t315 352.5t455.5 132q178 0 371 -80l-94 -379h-78l-14 328q-88 18 -168 18q-305 0 -499 -245.5t-194 -595.5q0 -199 106.5 -295.5t281.5 -96.5q53 0 145 19l102 412l-202 71l16 64h561l-16 -64l-162 -71l-113 -449q-211 -100 -407 -100 q-223 0 -370.5 122.5t-147.5 374.5z" />
<glyph unicode="H" horiz-adv-x="1576" d="M-41 0l21 84l188 45l293 1176l-166 45l20 84h553l-20 -84l-191 -45l-129 -517h613l129 517l-164 45l20 84h551l-20 -84l-189 -45l-292 -1176l165 -45l-20 -84h-551l21 84l186 45l133 533h-612l-133 -533l167 -45l-20 -84h-553z" />
<glyph unicode="I" horiz-adv-x="768" d="M-41 0l21 84l188 45l293 1176l-166 45l20 84h553l-20 -84l-191 -45l-292 -1176l167 -45l-20 -84h-553z" />
<glyph unicode="J" horiz-adv-x="727" d="M-170 -238q276 180 369 545l247 998l-163 45l20 84h553l-20 -84l-191 -45l-248 -998q-53 -215 -215 -379t-327 -233z" />
<glyph unicode="K" horiz-adv-x="1361" d="M-41 0l21 84l188 45l293 1176l-166 45l20 84h553l-20 -84l-191 -45l-292 -1176l167 -45l-20 -84h-553zM561 745l576 560l-125 45l20 84h488l-21 -84l-166 -41l-573 -545l104 -240q111 -254 172.5 -332.5t200.5 -121.5l-23 -84q-141 6 -232 55t-153.5 140t-140.5 272z" />
<glyph unicode="L" horiz-adv-x="1153" d="M-41 0l21 84l188 45l293 1176l-166 45l20 84h553l-20 -84l-191 -45l-292 -1178h411l223 315h78l-166 -442h-952z" />
<glyph unicode="M" horiz-adv-x="1921" d="M-80 0l21 84l194 47l359 1176l-160 43l20 84h369l164 -1090l692 1090h401l-20 -84l-182 -43l-232 -1178l176 -45l-20 -84h-555l20 84l181 43l202 1022l-739 -1159h-63l-175 1161l-305 -1024l162 -43l-20 -84h-490z" />
<glyph unicode="N" horiz-adv-x="1517" d="M-41 0l21 84l188 45l293 1176l-166 45l20 84h279l481 -1024l223 895l-163 45l20 84h485l-20 -84l-190 -45l-324 -1305h-53l-514 1090l-240 -961l166 -45l-21 -84h-485z" />
<glyph unicode="O" horiz-adv-x="1472" d="M111 477q0 248 100 469t291.5 362.5t429.5 141.5q240 0 363.5 -138t123.5 -356q0 -182 -59.5 -356t-162.5 -311t-260 -220t-337 -83q-240 0 -364.5 138t-124.5 353zM319 459q0 -168 75 -266.5t222 -98.5q139 0 255 86t187.5 220.5t111.5 286t40 292.5q0 166 -75.5 262 t-223.5 96q-135 0 -251.5 -86t-188.5 -219t-112 -283.5t-40 -289.5z" />
<glyph unicode="P" horiz-adv-x="1196" d="M-41 0l21 84l188 45l293 1176l-166 45l20 84h478q199 0 318.5 -91.5t119.5 -265.5q0 -254 -172 -395t-443 -141q-72 0 -145 12l-106 -424l225 -45l-21 -84h-610zM500 672q57 -8 129 -8q180 0 288.5 109.5t108.5 295.5q0 117 -66.5 181.5t-195.5 64.5h-102z" />
<glyph unicode="Q" horiz-adv-x="1470" d="M111 477q0 248 100 469t291.5 362.5t429.5 141.5q240 0 363.5 -138t123.5 -356q0 -336 -182 -611t-477 -343q113 -25 213 -87t180 -109.5t166 -47.5q133 0 227 133l53 -30q-76 -154 -154.5 -222.5t-174.5 -68.5q-70 0 -132.5 30.5t-117.5 81t-112.5 104.5t-143.5 110.5 t-184 89.5q-231 8 -350 144t-119 347zM319 459q0 -168 75 -266.5t222 -98.5q139 0 255 86t187.5 220.5t111.5 286t40 292.5q0 166 -75.5 262t-223.5 96q-135 0 -251.5 -86t-188.5 -219t-112 -283.5t-40 -289.5z" />
<glyph unicode="R" d="M-41 0l21 84l188 45l293 1176l-166 45l20 84h496q197 0 313.5 -82t116.5 -240q0 -190 -114.5 -306t-290.5 -136l57 -193q49 -174 113.5 -271t195.5 -136l-22 -84q-197 8 -298.5 113.5t-162.5 306.5l-74 233l-153 -2l-127 -508l167 -45l-20 -84h-553zM520 750h121 q168 2 281.5 96t113.5 262q0 98 -65.5 152.5t-188.5 54.5h-120z" />
<glyph unicode="S" horiz-adv-x="1128" d="M-2 82l115 377h80v-330q90 -35 198 -35q150 0 257.5 60.5t107.5 187.5q0 82 -52.5 151.5t-128 124t-150.5 111.5t-127 140t-52 184q0 190 143 293.5t367 103.5q213 0 368 -66l-112 -376h-78v313q-59 16 -158 16q-141 0 -237.5 -54t-96.5 -179q0 -59 39 -116.5 t98.5 -103.5t128 -101.5t128 -110t98.5 -130t39 -159.5q0 -199 -146.5 -298t-400.5 -99q-242 0 -428 96z" />
<glyph unicode="T" horiz-adv-x="1214" d="M164 999l108 435h1086l-109 -435h-78l-10 308h-276l-295 -1178l166 -45l-21 -84h-553l21 84l188 45l295 1178h-278l-164 -308h-80z" />
<glyph unicode="U" horiz-adv-x="1509" d="M199 346q0 92 28 205l189 754l-166 45l20 84h553l-20 -84l-191 -45l-188 -754q-29 -119 -29 -174q0 -125 80 -185.5t217 -60.5q156 0 268.5 110.5t161.5 309.5l189 754l-164 45l20 84h486l-21 -84l-190 -45l-189 -754q-70 -283 -232.5 -424t-404.5 -141q-186 0 -301.5 90 t-115.5 270z" />
<glyph unicode="V" horiz-adv-x="1310" d="M174 1350l21 84h516l-21 -84l-158 -35l78 -1016l559 1006l-143 45l21 84h475l-21 -84l-188 -45l-733 -1319h-144l-102 1319z" />
<glyph unicode="W" horiz-adv-x="1929" d="M172 1350l21 84h512l-21 -84l-158 -37l45 -973l555 1094h125l58 -1092l471 963l-162 45l20 84h490l-21 -84l-188 -45l-645 -1319h-141l-60 1071l-541 -1071h-141l-61 1321z" />
<glyph unicode="X" horiz-adv-x="1341" d="M-152 0l21 84l188 45l549 612l-196 562l-164 47l20 84h494l-21 -84l-129 -33l158 -449l381 441l-150 41l21 84h510l-21 -84l-190 -45l-504 -570l213 -608l164 -43l-21 -84h-495l20 84l129 31l-172 491l-424 -481l150 -41l-21 -84h-510z" />
<glyph unicode="Y" horiz-adv-x="1259" d="M158 1350l20 84h486l-21 -84l-131 -27l190 -535l418 521l-151 41l20 84h473l-20 -84l-156 -45l-530 -654l-129 -522l180 -45l-21 -84h-550l20 84l172 45l127 512l-246 668z" />
<glyph unicode="Z" horiz-adv-x="1245" d="M-41 0l31 127l1020 1180h-547l-158 -293h-78l105 420h962l-30 -127l-1018 -1180h581l222 315h79l-165 -442h-1004z" />
<glyph unicode="[" horiz-adv-x="653" d="M-31 -262l453 1818h430l-25 -102h-239l-404 -1614h240l-25 -102h-430z" />
<glyph unicode="\" horiz-adv-x="743" d="M326 -248l10 1804h102v-1804h-112z" />
<glyph unicode="]" horiz-adv-x="651" d="M-174 -262l24 102h238l404 1614h-238l25 102h428l-453 -1818h-428z" />
<glyph unicode="^" horiz-adv-x="1144" d="M219 547l631 917h84l178 -917h-129l-131 729l-490 -729h-143z" />
<glyph unicode="_" horiz-adv-x="1585" d="M115 -160h940v-131h-940v131z" />
<glyph unicode="`" horiz-adv-x="358" d="M-80 1464q72 87 193 107l206 -361l-71 -55z" />
<glyph unicode="a" horiz-adv-x="1161" d="M49 281q0 315 189.5 536t457.5 221q190 0 334 -94l-207 -803h205v-65q-152 -47 -240 -72q-70 -18 -96 -18q-71 0 -71 59q0 33 14 86l18 74q-172 -219 -377 -219q-98 0 -162.5 71.5t-64.5 223.5zM250 326q0 -199 127 -199q70 0 163 78t162 186l142 543q-43 14 -103 14 q-143 0 -258.5 -97t-174 -237.5t-58.5 -287.5z" />
<glyph unicode="b" horiz-adv-x="1105" d="M33 80l375 1417h-205v66q152 47 239 71q70 18 97 19q71 0 71 -60q0 -33 -14 -86l-180 -682q170 213 370 213q98 0 163 -71.5t65 -223.5q0 -315 -189.5 -536t-457.5 -221q-190 0 -334 94zM219 90q43 -14 103 -14q143 0 258.5 97t174 237.5t58.5 287.5q0 199 -127 199 q-70 0 -160 -76t-161 -182z" />
<glyph unicode="c" horiz-adv-x="946" d="M55 348q0 123 40 244t113 221t187.5 162.5t251.5 62.5q127 0 206 -48t79 -118q0 -61 -50 -103t-132 -44q-8 31 -19.5 80t-16.5 67.5t-16.5 43t-25 32.5t-35.5 8q-143 0 -257 -170t-114 -421q0 -127 57.5 -203t184.5 -76q100 0 240 53l20 -63q-180 -90 -373 -90 q-160 0 -250 94t-90 268z" />
<glyph unicode="d" horiz-adv-x="1171" d="M49 281q0 315 189.5 536t457.5 221q86 0 162 -20l117 477h-205v66q152 49 240 71q76 20 98 21q72 0 72 -64q0 -20 -15 -84l-334 -1364h205v-65q-152 -47 -239 -72q-70 -18 -99 -18q-71 0 -71 59q0 33 14 86l21 84q-178 -229 -386 -229q-98 0 -162.5 71.5t-64.5 223.5z M250 326q0 -199 127 -199q72 0 166 81t162 189l133 539q-47 12 -97 12q-143 0 -258.5 -97t-174 -237.5t-58.5 -287.5z" />
<glyph unicode="e" horiz-adv-x="968" d="M49 332q0 98 26.5 197.5t81 190.5t128 161.5t176 113.5t219.5 43q115 0 185.5 -52t70.5 -152q0 -76 -44 -138.5t-107.5 -105.5t-162 -80t-179.5 -58.5t-187 -43.5q-2 -18 -2 -56q0 -266 231 -266q106 0 252 55l21 -63q-184 -92 -377 -92q-332 0 -332 346zM266 487 q469 170 469 367q0 109 -96 109q-123 0 -230.5 -142.5t-142.5 -333.5z" />
<glyph unicode="f" horiz-adv-x="712" d="M-629 -453q0 98 156 183q8 -23 26.5 -74t25.5 -68.5t24.5 -50.5t32 -44t39 -22.5t55.5 -11.5q96 0 179 104.5t130 301.5l256 1055h-152l17 67l153 12l43 175q63 254 217 366.5t349 112.5q331 0 331 -169q0 -103 -147 -171q-10 20 -29.5 63t-28 58.5t-23.5 44t-26.5 38 t-28 23.5t-36 18.5t-41.5 4.5q-254 -1 -363 -441l-26 -108l299 24l-31 -118h-291l-258 -1059q-119 -492 -538 -492q-141 0 -227.5 49.5t-86.5 128.5z" />
<glyph unicode="g" horiz-adv-x="1112" d="M-109 -453q0 98 156 183q8 -20 26.5 -72.5t25.5 -70t24.5 -50.5t33 -44t41 -22.5t56.5 -11.5q217 0 332 453l76 305q-176 -231 -386 -231q-98 0 -162.5 71.5t-64.5 223.5q0 315 189.5 536t457.5 221q190 0 334 -94l-270 -1083q-70 -279 -210 -385.5t-339 -106.5 q-141 0 -230.5 50.5t-89.5 127.5zM250 326q0 -199 127 -199q74 0 168 82t164 192l135 533q-43 14 -103 14q-143 0 -258.5 -97t-174 -237.5t-58.5 -287.5z" />
<glyph unicode="h" horiz-adv-x="1173" d="M25 -14l376 1511h-204v66q152 47 239 71q70 18 99 19q71 0 71 -60q0 -33 -14 -86l-189 -743q203 274 414 274q190 0 191 -200q0 -96 -52 -273l-122 -424h204v-65q-152 -47 -239 -72q-70 -18 -99 -18q-71 0 -71 59q0 33 14 86q25 88 52.5 182.5t43 145.5t30.5 107.5 t22.5 84t14.5 57t9 48t2 35.5q0 98 -76 98q-78 0 -192.5 -92t-190.5 -215l-145 -582z" />
<glyph unicode="i" horiz-adv-x="641" d="M92 45q0 33 14 84l193 756h-207v63q154 47 242 74q82 16 96 16q74 0 74 -59q0 -27 -17 -84l-188 -756h205v-63q-154 -47 -242 -74q-82 -16 -96 -16q-74 0 -74 59zM340 1319q0 55 39 93t94 38t93 -38t38 -93q0 -57 -38 -95t-93 -38t-94 38t-39 95z" />
<glyph unicode="j" horiz-adv-x="606" d="M-618 -453q0 98 155 183q8 -20 26.5 -72.5t26 -70t24.5 -50.5t32.5 -44t40 -22.5t55.5 -11.5q90 0 182 98.5t154 354.5l235 971h-204v65q152 47 239 72q70 18 98 18q72 0 72 -61q0 -29 -14 -84l-256 -1032q-121 -492 -545 -492q-143 0 -232 50.5t-89 127.5zM371 1319 q0 55 39 93t94 38t93 -38t38 -93q0 -57 -38 -95t-93 -38t-94 38t-39 95z" />
<glyph unicode="k" horiz-adv-x="1095" d="M25 -14l374 1511h-204v66q152 47 239 71q70 18 98 19q72 0 72 -62q0 -20 -14 -84l-377 -1507zM383 532q399 182 399 299q1 56 -75 154q66 53 149 53q133 0 133 -123q0 -186 -395 -385l106 -196q78 -141 127.5 -194.5t147.5 -84.5l-17 -69q-158 0 -239.5 43t-159.5 184z " />
<glyph unicode="l" horiz-adv-x="606" d="M59 45q1 27 17 84l340 1368h-205v66q150 47 240 71q66 18 98 19q72 0 72 -62q0 -25 -17 -84l-340 -1368h205v-63q-152 -47 -240 -74q-76 -16 -98 -16q-72 0 -72 59z" />
<glyph unicode="m" horiz-adv-x="1779" d="M74 -14l225 897h-205v65q152 47 240 72q70 18 98 18q72 0 72 -61q0 -31 -15 -84l-26 -102q181 247 381 247h2q192 0 192 -202q0 -14 -4 -52q184 254 387 254q193 0 193 -204q0 -113 -176 -693h204v-65q-152 -47 -239 -72q-70 -18 -98 -18q-72 0 -72 61q0 31 14 84 q172 586 172 662q0 94 -73.5 94t-175 -84t-175.5 -201l-161 -602l-195 -14l156 573q49 182 49 234q0 94 -74 94t-178.5 -87t-179.5 -208l-150 -592z" />
<glyph unicode="n" horiz-adv-x="1224" d="M76 -14l223 897h-205v65q152 47 240 72q70 18 98 18q72 0 72 -61q-1 -31 -15 -84l-32 -127q205 272 411 272q190 0 191 -200q0 -96 -51 -273l-123 -424h205v-65q-152 -47 -240 -72q-70 -18 -98 -18q-72 0 -72 61q0 31 14 84q25 88 52.5 182.5t43 145.5t31 107.5t22.5 84 t14 57t9 48t2 35.5q0 96 -75.5 96t-190.5 -91t-190 -212l-148 -584z" />
<glyph unicode="o" horiz-adv-x="1101" d="M53 360q0 168 73 321t215 255t323 102q168 0 254 -100t86 -276q0 -166 -73 -320t-216.5 -255t-323.5 -101q-168 0 -253 99t-85 275zM260 324q0 -256 156 -256q94 0 170 66.5t120 166.5t66.5 203.5t22.5 193.5q0 258 -156 258q-92 0 -169 -66.5t-120 -166.5t-66.5 -204.5 t-23.5 -194.5z" />
<glyph unicode="p" horiz-adv-x="1169" d="M-80 -614l381 1497h-205v65q152 47 240 72q70 18 98 18q72 0 72 -61q0 -20 -14 -84l-19 -74q172 219 377 219q98 0 162.5 -71.5t64.5 -223.5q0 -315 -189.5 -536t-457.5 -221q-83 0 -166 18l-149 -588zM287 88q35 -12 98 -12q143 0 259 97t174.5 237.5t58.5 287.5 q0 199 -127 199q-72 0 -163 -78t-161 -184z" />
<glyph unicode="q" horiz-adv-x="1107" d="M49 281q0 315 189.5 536t457.5 221q190 0 334 -94l-399 -1546l-193 -27l217 836q-178 -221 -379 -221q-98 0 -162.5 71.5t-64.5 223.5zM250 326q0 -199 127 -199q72 0 164 79t161 187l142 541q-43 14 -103 14q-143 0 -258.5 -97t-174 -237.5t-58.5 -287.5z" />
<glyph unicode="r" horiz-adv-x="911" d="M74 -14l225 899h-205v63q152 47 240 74q82 16 98 16q72 0 72 -59q0 -33 -15 -84l-32 -125q201 268 366 268q61 0 97 -36.5t36 -92.5q0 -59 -41 -123q-139 63 -190 64q-43 0 -85 -21.5t-87 -70.5t-70.5 -82t-74.5 -103l-144 -573z" />
<glyph unicode="s" horiz-adv-x="909" d="M-23 162q0 31 11.5 54.5t39 46t46 33.5t59.5 34q43 -121 99.5 -189.5t160.5 -68.5q68 0 113 39.5t45 105.5q0 61 -39 112.5t-95.5 91.5t-111.5 82t-94 109.5t-39 151.5q0 131 99.5 202.5t269.5 71.5q145 0 234 -43t89 -116q0 -88 -164 -140q-66 209 -211 209 q-63 0 -104 -33.5t-41 -93.5q0 -45 28.5 -88t59.5 -68.5t94 -72.5q201 -145 201 -313q0 -135 -102.5 -214t-290.5 -79q-170 0 -263.5 49t-93.5 127z" />
<glyph unicode="t" horiz-adv-x="763" d="M121 184l186 742h-170l17 61l174 14l45 179l190 30l-49 -194l268 22l-28 -112h-262l-173 -703q-4 -20 -4 -24q0 -45 47 -45q12 0 22.5 1t20 2t24.5 5t25.5 6t33 9t38 12.5t51 16.5t60.5 19l20 -65q-10 -4 -70.5 -36t-96 -49.5t-92 -42t-101.5 -35.5t-78 -11 q-108 0 -108 121q0 33 10 77z" />
<glyph unicode="u" horiz-adv-x="1222" d="M90 883v65q152 47 240 72q70 18 98 18q72 0 72 -61q0 -31 -15 -84q-25 -88 -52 -182.5t-42.5 -145.5t-31 -107.5t-22.5 -84t-14.5 -57t-9.5 -48t-2 -35.5q0 -96 76 -96t190.5 91t190.5 212l147 584l189 14l-223 -897h204v-65q-152 -47 -239 -72q-70 -18 -98 -18 q-72 0 -72 61q0 31 14 84l33 127q-205 -272 -412 -272q-190 0 -190 200q0 96 51 273l123 424h-205z" />
<glyph unicode="v" horiz-adv-x="1107" d="M39 883v65l182 66q67 24 106 24h3q66 0 78 -61l153 -825q102 131 156.5 207.5t112 196.5t57.5 210q0 55 -34 92t-114 92q76 88 183 88q59 0 101 -34.5t42 -108.5q0 -129 -106.5 -323.5t-403.5 -571.5l-154 -14l-157 897h-205z" />
<glyph unicode="w" horiz-adv-x="1667" d="M39 883v65l190 66q67 24 106 24h3q68 0 78 -61l143 -827q260 330 285 581l-51 293l182 14l164 -882q282 359 282 608q0 57 -33.5 94t-113.5 92q76 88 182 88q57 0 100 -34.5t43 -108.5q0 -143 -91 -339t-378 -556l-157 -14l-90 522q-16 -25 -73.5 -127t-116 -192.5 t-136.5 -188.5l-156 -14l-157 897h-205z" />
<glyph unicode="x" horiz-adv-x="1132" d="M-61 111q0 49 26 118q106 -34 168 -34h4q27 0 47.5 4t43 19t37 26.5t40 44.5t40.5 53t52 72.5t62 85.5l-115 383h-207v65l174 66q63 24 100 24h3q70 0 88 -61l96 -326q166 221 250 304t164 83q57 0 92 -35.5t35 -91.5q0 -43 -29 -118q-108 34 -169 34h-3q-27 0 -47.5 -4 t-43 -19.5t-36.5 -26.5t-38.5 -43t-38 -50t-47.5 -66.5t-54 -74.5l123 -402h207v-65l-172 -68q-58 -22 -101 -22h-4q-70 0 -88 61l-104 346q-172 -229 -260.5 -318t-167.5 -89q-57 0 -92 34.5t-35 90.5z" />
<glyph unicode="y" horiz-adv-x="1112" d="M0 -502q0 47 31.5 98.5t73.5 92.5t135.5 131t165.5 166l-160 897h-205v65l182 66q67 24 106 24h3q68 0 78 -61l149 -819l16 18q178 215 246 350.5t68 239.5q0 35 -19.5 65.5t-44 52t-84.5 66.5q76 88 183 88q57 0 100 -34.5t43 -108.5q0 -272 -424 -784 q-84 -100 -166 -194.5t-122 -137.5t-73.5 -85t-44 -66.5t-10.5 -51.5q0 -55 52 -111q-71 -79 -158 -79h-2q-47 0 -83 27.5t-36 84.5z" />
<glyph unicode="z" horiz-adv-x="1044" d="M12 53l760 832q-55 -33 -233 -33h-115q-104 0 -165.5 -28.5t-92.5 -112.5l-68 16q47 195 83 253t87 58q45 0 197.5 -7t220.5 -7q154 0 266 14l35 -59l-786 -866q178 30 358 30h12q357 0 357 -168q0 -122 -165 -122h-3l-37 2v12q0 74 -86 117t-231 43q-119 0 -351 -27z " />
<glyph unicode="{" horiz-adv-x="718" d="M45 606l23 86q111 6 181 52.5t99 162.5l88 357q74 293 350 292h127l-22 -88h-57q-158 0 -211 -215l-88 -350q-53 -215 -275 -252v-2q162 -31 162 -176q0 -35 -12 -78l-91 -354q-16 -59 -16 -98q0 -117 121 -117h57l-20 -88h-127q-106 0 -161.5 52t-55.5 147q0 43 12 96 l90 356q10 39 10 78q0 74 -47 103.5t-137 35.5z" />
<glyph unicode="|" horiz-adv-x="649" d="M242 -492v2048h133v-2048h-133z" />
<glyph unicode="}" horiz-adv-x="718" d="M-170 -262l20 88h58q84 0 133 53t78 162l90 354q55 217 278 254v2q-164 31 -163 176q0 31 10 76l88 350q16 61 16 103q0 113 -121 112h-57l23 88h127q217 0 217 -188q0 -49 -15 -104l-88 -357q-10 -47 -10 -73q0 -135 184 -142l-22 -86q-109 -6 -179.5 -52t-101.5 -165 l-90 -356q-35 -135 -126 -215t-222 -80h-127z" />
<glyph unicode="~" horiz-adv-x="919" d="M236 1317q20 20 55 51t119 83t143 52q57 0 103 -32.5t85 -64.5t80 -32q96 0 230 101l32 -48q-20 -20 -54 -50.5t-118 -83t-143 -52.5q-57 0 -104.5 33t-86 64.5t-79.5 31.5q-90 0 -230 -100z" />
<glyph unicode="&#xa1;" horiz-adv-x="532" d="M-68 -410l293 1008h117l-213 -1008h-197zM197 899q0 57 39.5 98t97 41t98.5 -41t41 -98t-41 -96t-98.5 -39t-97 39t-39.5 96z" />
<glyph unicode="&#xa2;" horiz-adv-x="995" d="M68 348q0 156 59 303.5t182 256t285 126.5l74 293h114l-73 -291q109 -10 172 -55t63 -115q0 -55 -37 -84.5t-90 -29.5q-39 0 -74 14q8 45 9 68q0 94 -64 116l-215 -860q14 -2 47 -2q104 0 240 51l20 -63q-158 -82 -331 -88l-68 -275h-115l70 279q-127 20 -197.5 111.5 t-70.5 244.5zM279 365q0 -168 92 -234l200 811q-121 -45 -206.5 -203.5t-85.5 -373.5z" />
<glyph unicode="&#xa3;" horiz-adv-x="1200" d="M-25 74q410 272 410 565q0 29 -2 43h-252l21 86l215 14q-4 20 -15.5 67.5t-17.5 75t-11.5 66.5t-5.5 72q0 174 129 280.5t324 106.5q182 0 290.5 -68.5t108.5 -183.5q0 -72 -53 -108.5t-131 -36.5h-29q12 49 13 94q0 96 -53.5 155.5t-139.5 59.5q-123 0 -192.5 -89 t-69.5 -231q0 -37 35 -245l301 22l-53 -137h-238v-6q0 -246 -274 -477h542l152 221h80l-146 -420h-923z" />
<glyph unicode="&#xa4;" horiz-adv-x="1187" d="M80 352l158 133q-29 66 -29 148q0 201 162 368l-92 132l94 71l90 -127q127 90 276 90q129 0 215 -77l158 129l70 -89l-158 -131q25 -68 25 -139q0 -106 -47.5 -211.5t-122.5 -177.5l92 -133l-92 -72l-93 125q-123 -86 -258 -86q-131 0 -223 86l-153 -129zM371 678 q0 -113 55.5 -181.5t153.5 -68.5q123 0 210 112.5t87 245.5q0 109 -54.5 181.5t-154.5 72.5q-123 0 -210 -112.5t-87 -249.5z" />
<glyph unicode="&#xa5;" horiz-adv-x="1435" d="M250 1350l20 84h486l-21 -84l-131 -27l191 -535l417 521l-151 41l20 84h473l-20 -84l-156 -45l-442 -547l295 18l-53 -137h-334l-29 -121l356 21l-53 -138h-332l-67 -272l180 -45l-20 -84h-551l20 84l172 45l68 272h-330l23 86l331 19l33 133h-328l23 86l270 14l-209 570 z" />
<glyph unicode="&#xa6;" horiz-adv-x="636" d="M236 328h133v-820h-133v820zM236 737v819h133v-819h-133z" />
<glyph unicode="&#xa7;" horiz-adv-x="1060" d="M0 -88l80 319h67l17 -270q63 -25 158 -24q139 0 224 55t85 162q0 20 -5 38.5t-10.5 32t-19.5 28.5t-22.5 24.5t-33 25.5t-32.5 21.5t-40 25t-42 25.5q-63 41 -96 63.5t-79 64.5t-66.5 89t-20.5 102q0 178 225 285q-86 86 -86 205q0 172 134 271t325 99q168 0 299 -53 l-80 -321h-68l-14 260q-68 14 -129 14q-117 0 -209 -51t-92 -158q0 -37 13.5 -66.5t44 -56t58 -44t77.5 -46.5q70 -39 103.5 -61.5t85.5 -65.5t75.5 -93t23.5 -110q0 -197 -211 -313q76 -82 76 -196q0 -176 -135 -269.5t-336 -93.5q-207 0 -344 82zM330 745q0 -16 3 -29.5 t10 -26.5t14.5 -23.5t21.5 -23.5t23.5 -20.5t29 -20.5t28.5 -19.5t32.5 -20.5t33.5 -20q98 -57 142 -90q98 74 98 188q0 121 -205 225q-61 29 -100 58q-131 -68 -131 -177z" />
<glyph unicode="&#xa8;" horiz-adv-x="811" d="M61 1419.5q0 57.5 39 95t96.5 37.5t95.5 -37.5t38 -95t-38 -96.5t-95.5 -39t-96.5 39t-39 96.5zM471 1419.5q0 57.5 39 95t96.5 37.5t95 -37.5t37.5 -95t-37.5 -96.5t-95 -39t-96.5 39t-39 96.5z" />
<glyph unicode="&#xa9;" horiz-adv-x="1757" d="M160 735.5q0 311.5 220 533.5t531.5 222t532.5 -222t221 -533.5t-221 -530.5t-532.5 -219t-531.5 219t-220 530.5zM283 735q0 -262 183 -446.5t445 -184.5q264 0 447.5 184.5t183.5 446.5q0 264 -183 448.5t-448 184.5q-262 0 -445 -185.5t-183 -447.5zM508 735 q0 217 111.5 334t332.5 117q123 0 234 -47v-230h-72l-53 172q-51 10 -92 11q-293 0 -293 -357q0 -352 287 -352q51 0 75 4l92 186h70l-31 -227q-111 -57 -237 -57q-207 0 -315.5 115.5t-108.5 330.5z" />
<glyph unicode="&#xaa;" horiz-adv-x="829" d="M199 977q0 197 122.5 335t292.5 138q131 0 217 -59l-126 -494h126v-47q-98 -31 -153 -45q-37 -12 -80 -12q-41 0 -41 36q0 15 8 54l13 47q-106 -137 -236 -137q-66 0 -104.5 49t-38.5 135zM354 1006q0 -109 70 -109q45 0 97 46t89 118l84 313q-25 8 -53 8 q-133 0 -210 -114.5t-77 -261.5z" />
<glyph unicode="&#xab;" horiz-adv-x="937" d="M82 520l16 66l385 356h97l-293 -389l98 -389h-96zM455 524l14 58l307 301h86l-213 -330l37 -350h-86z" />
<glyph unicode="&#xac;" horiz-adv-x="1214" d="M143 668v131h879v-547h-133v416h-746z" />
<glyph unicode="&#xad;" horiz-adv-x="827" d="M172 649v164h533v-164h-533z" />
<glyph unicode="&#xae;" horiz-adv-x="1757" d="M160 735.5q0 311.5 220 533.5t531.5 222t532.5 -222t221 -533.5t-221 -530.5t-532.5 -219t-531.5 219t-220 530.5zM281 735q0 -262 184 -446.5t446.5 -184.5t446.5 184.5t184 446.5t-184 447.5t-446.5 185.5t-446.5 -185.5t-184 -447.5zM526 311v58l115 26v692l-115 27 v57h348q342 0 343 -235q0 -92 -52.5 -151.5t-146.5 -79.5l190 -312l109 -26v-56h-232l-215 381h-79v-297l114 -26v-58h-379zM791 766h71q90 0 144.5 44t54.5 126q0 76 -54.5 117t-144.5 41h-71v-328z" />
<glyph unicode="&#xaf;" horiz-adv-x="0" />
<glyph unicode="&#xb0;" horiz-adv-x="768" d="M231 1247q0 125 87.5 212t212 87t212.5 -87t88 -212t-88 -213t-212.5 -88t-212 88t-87.5 213zM360 1247.5q0 -69.5 50.5 -121t119.5 -51.5q72 0 122 50.5t50 121.5q0 70 -51 120t-120.5 50t-120 -50t-50.5 -119.5z" />
<glyph unicode="&#xb1;" horiz-adv-x="1286" d="M147 0v137h920v-137h-920zM147 662v139h379v399h138v-399h403v-139h-403v-402h-138v402h-379z" />
<glyph unicode="&#xb2;" horiz-adv-x="774" d="M129 584l14 73q53 57 131 139.5t111 118t80 90t65.5 80t39 62.5t26.5 66.5t6 62.5q0 53 -25.5 85t-70.5 32q-49 0 -77 -36t-28 -95q0 -25 5 -78q-59 0 -102.5 29.5t-43.5 80.5q0 72 69.5 116t188.5 44q113 0 179.5 -47t66.5 -141q0 -47 -15.5 -88t-58.5 -90.5t-84 -88 t-128 -119.5t-156 -149h284l82 125h57l-98 -272h-518z" />
<glyph unicode="&#xb3;" horiz-adv-x="751" d="M121 637l26 63q94 -59 195 -59q96 0 153.5 49t57.5 135q0 76 -42 120t-144 52l14 72q90 2 151.5 70.5t61.5 156.5q0 47 -24.5 73t-59.5 26q-113 0 -113 -142q0 -35 6 -65q-59 0 -99 27.5t-40 78.5q0 68 71 112t187 44q104 0 168 -45t64 -137q0 -88 -69 -152.5t-165 -81.5 v-2q92 -8 145.5 -63.5t53.5 -134.5q0 -129 -94.5 -199t-229.5 -70q-145 0 -274 72z" />
<glyph unicode="&#xb4;" horiz-adv-x="411" d="M20 1210l207 361q125 -23 193 -107l-326 -309z" />
<glyph unicode="&#xb5;" horiz-adv-x="1273" d="M-45 -432q0 14 8 51l350 1405h195l-176 -707q-10 -45 -10 -73q0 -68 37.5 -105t107.5 -37q125 0 289 105l202 817h195l-184 -741q-8 -33 -8 -66q0 -96 94 -96h24l-14 -55q-113 -96 -219 -97q-47 0 -76 25.5t-35 49.5t-6 48v10q-172 -133 -336 -133q-135 0 -184 97 q-49 -166 -49 -304q0 -115 43 -145q-2 -4 -5 -13.5t-17.5 -31t-32 -37.5t-46 -29.5t-63.5 -13.5q-84 0 -84 76z" />
<glyph unicode="&#xb6;" horiz-adv-x="1226" d="M207 1059q0 203 143.5 350t399.5 147h598l-19 -77l-174 -41l-416 -1667h-118l411 1656h-182l-412 -1656h-119l254 1020h-18q-348 0 -348 268z" />
<glyph unicode="&#xb7;" horiz-adv-x="536" d="M111 612.5q0 63.5 47 110.5t110.5 47t110.5 -47t47 -110.5t-47 -110.5t-110.5 -47t-110.5 47t-47 110.5z" />
<glyph unicode="&#xb8;" horiz-adv-x="681" d="M-2 -469l25 80q27 -8 75 -8q76 0 136.5 32.5t60.5 108.5q0 100 -121 100l90 174h90l-49 -102q152 -8 152 -141q0 -115 -96.5 -189.5t-221.5 -74.5q-74 0 -141 20z" />
<glyph unicode="&#xb9;" horiz-adv-x="487" d="M188 584l185 727l-137 -58l-17 66l275 133h61l-215 -868h-152z" />
<glyph unicode="&#xba;" horiz-adv-x="802" d="M199 1024q0 174 120.5 300t288.5 126q121 0 185.5 -63.5t64.5 -167.5q0 -172 -120 -299t-292 -127q-123 0 -185 62.5t-62 168.5zM369 995q0 -133 94 -133q90 0 157.5 128t67.5 257q0 133 -96 133q-90 0 -156.5 -127t-66.5 -258z" />
<glyph unicode="&#xbb;" horiz-adv-x="940" d="M53 223l213 330l-37 350h86l146 -321l-15 -58l-307 -301h-86zM336 164l293 389l-99 389h97l207 -356l-17 -66l-385 -356h-96z" />
<glyph unicode="&#xbc;" horiz-adv-x="1492" d="M162 0l954 1434h135l-954 -1434h-135zM231 584l185 727l-137 -58l-17 66l275 133h61l-215 -868h-152zM715 229l14 66l565 573h80l-135 -546h88l-22 -93h-91l-57 -229h-137l59 229h-364zM874 322h228l76 303z" />
<glyph unicode="&#xbd;" horiz-adv-x="1619" d="M164 0l954 1434h135l-954 -1434h-135zM233 584l185 727l-137 -58l-17 66l275 133h61l-215 -868h-152zM840 2l14 74q53 57 131 139t110.5 118t80 90t66 79.5t38.5 62.5t26.5 67t6.5 62q0 53 -25.5 85t-70.5 32q-49 0 -77 -36t-28 -95q0 -25 4 -78q-59 0 -102 30t-43 81 q0 72 69.5 115.5t188.5 43.5q113 0 179.5 -47t66.5 -141q0 -47 -15.5 -88t-58.5 -90t-84 -88t-128 -120t-157 -148h285l82 124h57l-98 -272h-518z" />
<glyph unicode="&#xbe;" horiz-adv-x="1599" d="M121 637l26 63q94 -59 195 -59q96 0 153.5 49t57.5 135q0 76 -42 120t-144 52l14 72q90 2 151.5 70.5t61.5 156.5q0 47 -24.5 73t-59.5 26q-113 0 -113 -142q0 -35 6 -65q-59 0 -99 27.5t-40 78.5q0 68 71 112t187 44q104 0 168 -45t64 -137q0 -88 -69 -152.5t-165 -81.5 v-2q92 -8 145.5 -63.5t53.5 -134.5q0 -129 -94.5 -199t-229.5 -70q-145 0 -274 72zM365 0l954 1434h135l-954 -1434h-135zM815 229l14 66l566 573h80l-136 -546h88l-22 -93h-90l-58 -229h-137l60 229h-365zM975 322h227l76 303z" />
<glyph unicode="&#xbf;" horiz-adv-x="931" d="M-94 -166q0 109 61.5 188.5t149.5 126t175 85t148.5 93t61.5 124.5q0 45 -25.5 72.5t-64.5 27.5q-49 0 -101 -39l-49 63q68 66 172 66q76 0 136.5 -51t60.5 -137q0 -92 -53.5 -164t-129 -119t-152.5 -92t-130 -109.5t-53 -148.5q0 -76 46 -118t122 -42q82 0 130 57.5 t48 149.5q0 39 -15 102q96 0 154.5 -39t58.5 -114q0 -104 -106.5 -173t-294.5 -69q-154 0 -252 69.5t-98 190.5zM391 899q0 57 40 98t97.5 41t98.5 -41t41 -98t-41 -96t-98.5 -39t-97.5 39t-40 96z" />
<glyph unicode="&#xc0;" d="M-160 0l21 84l188 45l778 1305h113l96 -1307l162 -43l-20 -84h-512l20 84l156 37l-25 291h-469l-174 -285l162 -43l-21 -84h-475zM418 522h389l-37 596zM551 1661q27 53 72 98.5t96 63.5l274 -244l-55 -63z" />
<glyph unicode="&#xc1;" d="M-160 0l21 84l188 45l778 1305h113l96 -1307l162 -43l-20 -84h-512l20 84l156 37l-25 291h-469l-174 -285l162 -43l-21 -84h-475zM418 522h389l-37 596zM762 1579l274 244q51 -18 96.5 -63.5t71.5 -98.5l-387 -145z" />
<glyph unicode="&#xc2;" d="M-160 0l21 84l188 45l778 1305h113l96 -1307l162 -43l-20 -84h-512l20 84l156 37l-25 291h-469l-174 -285l162 -43l-21 -84h-475zM418 522h389l-37 596zM541 1579l317 250h172l197 -250l-92 -49l-217 153l-283 -153z" />
<glyph unicode="&#xc3;" d="M-160 0l21 84l188 45l778 1305h113l96 -1307l162 -43l-20 -84h-512l20 84l156 37l-25 291h-469l-174 -285l162 -43l-21 -84h-475zM418 522h389l-37 596zM508 1665q14 18 38.5 44t92.5 69t127 43q72 0 162 -64.5t137 -64.5q70 0 170 75l41 -53q-6 -6 -15.5 -16t-40 -38 t-60.5 -48.5t-71.5 -36.5t-78.5 -16q-74 0 -164 64.5t-135 64.5q-39 0 -63.5 -12.5t-94.5 -63.5z" />
<glyph unicode="&#xc4;" d="M-160 0l21 84l188 45l778 1305h113l96 -1307l162 -43l-20 -84h-512l20 84l156 37l-25 291h-469l-174 -285l162 -43l-21 -84h-475zM418 522h389l-37 596zM555 1695.5q0 57.5 39 95.5t96 38q55 0 94 -38t39 -95.5t-39 -96t-94 -38.5q-57 0 -96 38.5t-39 96zM963 1696 q0 55 39.5 94t95.5 39q57 0 95 -38t38 -95.5t-38 -96t-95 -38.5q-55 0 -95 39t-40 96z" />
<glyph unicode="&#xc5;" horiz-adv-x="1318" d="M-160 0l21 84l188 45l774 1298q-59 27 -96 83t-37 124q0 92 64.5 158t157 66t158 -66t65.5 -158q0 -84 -55.5 -147.5t-139.5 -73.5l96 -1286l162 -43l-20 -84h-512l20 84l156 37l-25 291h-469l-174 -285l162 -43l-21 -84h-475zM418 522h389l-37 596zM799 1634 q0 -45 33.5 -78.5t78.5 -33.5q47 0 81 33.5t34 78.5t-35 79t-80 34t-78.5 -34t-33.5 -79z" />
<glyph unicode="&#xc6;" horiz-adv-x="2115" d="M-168 0l21 84l241 57l1301 1293h774l-105 -420h-77l-13 293h-413l-134 -527l416 41l-41 -172l-397 37l-139 -559h411l224 315h77l-166 -442h-952l21 84l188 45l70 283h-607l-296 -293l133 -35l-21 -84h-516zM645 522h522l170 680z" />
<glyph unicode="&#xc7;" horiz-adv-x="1259" d="M113 489q0 238 100 457t290.5 361.5t426.5 142.5q115 0 214 -20.5t141 -40.5l42 -21l-94 -379h-80l-12 322q-86 20 -152 20q-190 0 -346 -115.5t-241 -305t-85 -408.5q0 -166 70 -277.5t236 -111.5q90 0 180 18l233 332h80l-145 -377q-168 -88 -338 -98l-33 -72 q152 -8 152 -141q0 -115 -96.5 -189.5t-221.5 -74.5q-74 0 -141 20l24 80q27 -8 76 -8q76 0 136.5 32.5t60.5 108.5q0 100 -121 100l74 144q-117 8 -203 51t-134 113.5t-70.5 154.5t-22.5 182z" />
<glyph unicode="&#xc8;" horiz-adv-x="1214" d="M-41 0l21 84l188 45l293 1176l-166 45l20 84h953l-105 -420h-78l-12 293h-414l-133 -527l416 41l-41 -172l-397 37l-139 -559h411l223 315h78l-166 -442h-952zM535 1661q27 53 71.5 98.5t95.5 63.5l275 -244l-55 -63z" />
<glyph unicode="&#xc9;" horiz-adv-x="1214" d="M-41 0l21 84l188 45l293 1176l-166 45l20 84h953l-105 -420h-78l-12 293h-414l-133 -527l416 41l-41 -172l-397 37l-139 -559h411l223 315h78l-166 -442h-952zM737 1579l275 244q51 -18 96 -63.5t72 -98.5l-387 -145z" />
<glyph unicode="&#xca;" horiz-adv-x="1214" d="M-41 0l21 84l188 45l293 1176l-166 45l20 84h953l-105 -420h-78l-12 293h-414l-133 -527l416 41l-41 -172l-397 37l-139 -559h411l223 315h78l-166 -442h-952zM535 1599l317 250h172l197 -250l-93 -49l-217 154l-282 -154z" />
<glyph unicode="&#xcb;" horiz-adv-x="1214" d="M-41 0l21 84l188 45l293 1176l-166 45l20 84h953l-105 -420h-78l-12 293h-414l-133 -527l416 41l-41 -172l-397 37l-139 -559h411l223 315h78l-166 -442h-952zM598 1695.5q0 57.5 39 95.5t96 38q55 0 94 -38t39 -95.5t-39 -96t-94 -38.5q-57 0 -96 38.5t-39 96z M1006 1696q0 55 39.5 94t95.5 39q57 0 95 -38t38 -95.5t-38 -96t-95 -38.5q-55 0 -95 39t-40 96z" />
<glyph unicode="&#xcc;" horiz-adv-x="768" d="M-41 0l21 84l188 45l293 1176l-166 45l20 84h553l-20 -84l-191 -45l-292 -1176l167 -45l-20 -84h-553zM342 1661q27 53 72 98.5t96 63.5l274 -244l-55 -63z" />
<glyph unicode="&#xcd;" horiz-adv-x="768" d="M-41 0l21 84l188 45l293 1176l-166 45l20 84h553l-20 -84l-191 -45l-292 -1176l167 -45l-20 -84h-553zM463 1579l274 244q51 -18 96.5 -63.5t71.5 -98.5l-387 -145z" />
<glyph unicode="&#xce;" horiz-adv-x="768" d="M-41 0l21 84l188 45l293 1176l-166 45l20 84h553l-20 -84l-191 -45l-292 -1176l167 -45l-20 -84h-553zM270 1599l318 250h172l196 -250l-92 -49l-217 154l-282 -154z" />
<glyph unicode="&#xcf;" horiz-adv-x="768" d="M-41 0l21 84l188 45l293 1176l-166 45l20 84h553l-20 -84l-191 -45l-292 -1176l167 -45l-20 -84h-553zM326 1695.5q0 57.5 38.5 95.5t96.5 38q55 0 94 -38t39 -95.5t-39 -96t-94 -38.5q-57 0 -96 38.5t-39 96zM733 1696q0 55 40 94t95 39q57 0 95 -38t38 -95.5t-37.5 -96 t-95.5 -38.5q-55 0 -95 39t-40 96z" />
<glyph unicode="&#xd0;" horiz-adv-x="1429" d="M-39 0l21 84l188 45l135 543h-201v96h224l135 537l-166 45l20 84h443q301 0 455.5 -128t154.5 -378q0 -225 -78 -405.5t-213 -293t-307 -171t-369 -58.5h-442zM367 127h67q322 0 527.5 235.5t205.5 573.5q0 371 -438 371h-67l-136 -539h332v-96h-356z" />
<glyph unicode="&#xd1;" horiz-adv-x="1517" d="M-41 0l21 84l188 45l293 1176l-166 45l20 84h279l481 -1024l223 895l-163 45l20 84h485l-20 -84l-190 -45l-324 -1305h-53l-514 1090l-240 -961l166 -45l-21 -84h-485zM635 1655q14 18 38.5 43.5t92.5 68.5t127 43q72 0 162 -64.5t137 -64.5q70 0 170 76l41 -53 q-6 -6 -15.5 -16.5t-40 -38t-60.5 -48t-71.5 -37t-78.5 -16.5q-74 0 -164 64.5t-135 64.5q-39 0 -63.5 -12t-94.5 -63z" />
<glyph unicode="&#xd2;" horiz-adv-x="1472" d="M111 477q0 248 100 469t291.5 362.5t429.5 141.5q240 0 363.5 -138t123.5 -356q0 -182 -59.5 -356t-162.5 -311t-260 -220t-337 -83q-240 0 -364.5 138t-124.5 353zM319 459q0 -168 75 -266.5t222 -98.5q139 0 255 86t187.5 220.5t111.5 286t40 292.5q0 166 -75.5 262 t-223.5 96q-135 0 -251.5 -86t-188.5 -219t-112 -283.5t-40 -289.5zM664 1661q27 53 71.5 98.5t95.5 63.5l275 -244l-55 -63z" />
<glyph unicode="&#xd3;" horiz-adv-x="1472" d="M111 477q0 248 100 469t291.5 362.5t429.5 141.5q240 0 363.5 -138t123.5 -356q0 -182 -59.5 -356t-162.5 -311t-260 -220t-337 -83q-240 0 -364.5 138t-124.5 353zM319 459q0 -168 75 -266.5t222 -98.5q139 0 255 86t187.5 220.5t111.5 286t40 292.5q0 166 -75.5 262 t-223.5 96q-135 0 -251.5 -86t-188.5 -219t-112 -283.5t-40 -289.5zM793 1579l274 244q51 -18 96 -63.5t72 -98.5l-387 -145z" />
<glyph unicode="&#xd4;" horiz-adv-x="1472" d="M111 477q0 248 100 469t291.5 362.5t429.5 141.5q240 0 363.5 -138t123.5 -356q0 -182 -59.5 -356t-162.5 -311t-260 -220t-337 -83q-240 0 -364.5 138t-124.5 353zM319 459q0 -168 75 -266.5t222 -98.5q139 0 255 86t187.5 220.5t111.5 286t40 292.5q0 166 -75.5 262 t-223.5 96q-135 0 -251.5 -86t-188.5 -219t-112 -283.5t-40 -289.5zM641 1589l317 250h172l197 -250l-92 -49l-217 154l-283 -154z" />
<glyph unicode="&#xd5;" horiz-adv-x="1472" d="M111 477q0 248 100 469t291.5 362.5t429.5 141.5q240 0 363.5 -138t123.5 -356q0 -182 -59.5 -356t-162.5 -311t-260 -220t-337 -83q-240 0 -364.5 138t-124.5 353zM319 459q0 -168 75 -266.5t222 -98.5q139 0 255 86t187.5 220.5t111.5 286t40 292.5q0 166 -75.5 262 t-223.5 96q-135 0 -251.5 -86t-188.5 -219t-112 -283.5t-40 -289.5zM610 1675q14 18 39 44t92.5 69t126.5 43q72 0 162 -64.5t137 -64.5q70 0 170 76l41 -54q-6 -6 -15 -16t-40 -38t-60.5 -48t-71.5 -36.5t-79 -16.5q-74 0 -164 64.5t-135 64.5q-39 0 -63.5 -12.5 t-94.5 -63.5z" />
<glyph unicode="&#xd6;" horiz-adv-x="1472" d="M111 477q0 248 100 469t291.5 362.5t429.5 141.5q240 0 363.5 -138t123.5 -356q0 -182 -59.5 -356t-162.5 -311t-260 -220t-337 -83q-240 0 -364.5 138t-124.5 353zM319 459q0 -168 75 -266.5t222 -98.5q139 0 255 86t187.5 220.5t111.5 286t40 292.5q0 166 -75.5 262 t-223.5 96q-135 0 -251.5 -86t-188.5 -219t-112 -283.5t-40 -289.5zM637 1695.5q0 57.5 39 95.5t96 38q55 0 94 -38t39 -95.5t-39 -96t-94 -38.5q-57 0 -96 38.5t-39 96zM1044 1696q0 55 40 94t96 39q57 0 95 -38t38 -95.5t-38 -96t-95 -38.5q-55 0 -95.5 39t-40.5 96z" />
<glyph unicode="&#xd7;" horiz-adv-x="1224" d="M203 389l344 342l-344 344l98 96l342 -342l346 345l96 -99l-344 -344l344 -344l-96 -96l-344 344l-344 -342z" />
<glyph unicode="&#xd8;" horiz-adv-x="1472" d="M111 477q0 246 100 467t291.5 363.5t429.5 142.5q88 0 168 -23l45 86h131l-70 -131q213 -127 213 -426q0 -182 -59.5 -356t-162.5 -311t-260 -220t-337 -83q-57 0 -119 10l-41 -78h-133l60 113q-127 57 -191.5 175t-64.5 271zM319 457q0 -213 111 -303l608 1159 q-55 25 -127 24q-135 0 -251.5 -86t-188.5 -219t-112 -284.5t-40 -290.5zM537 104q32 -8 79 -8q137 0 254 86t188.5 219.5t111.5 284t40 291.5q0 168 -77 264z" />
<glyph unicode="&#xd9;" horiz-adv-x="1509" d="M199 346q0 92 28 205l189 754l-166 45l20 84h553l-20 -84l-191 -45l-188 -754q-29 -119 -29 -174q0 -125 80 -185.5t217 -60.5q156 0 268.5 110.5t161.5 309.5l189 754l-164 45l20 84h486l-21 -84l-190 -45l-189 -754q-70 -283 -232.5 -424t-404.5 -141q-186 0 -301.5 90 t-115.5 270zM692 1661q27 53 72 98.5t96 63.5l275 -244l-56 -63z" />
<glyph unicode="&#xda;" horiz-adv-x="1509" d="M199 346q0 92 28 205l189 754l-166 45l20 84h553l-20 -84l-191 -45l-188 -754q-29 -119 -29 -174q0 -125 80 -185.5t217 -60.5q156 0 268.5 110.5t161.5 309.5l189 754l-164 45l20 84h486l-21 -84l-190 -45l-189 -754q-70 -283 -232.5 -424t-404.5 -141q-186 0 -301.5 90 t-115.5 270zM852 1579l274 244q51 -18 96.5 -63.5t71.5 -98.5l-387 -145z" />
<glyph unicode="&#xdb;" horiz-adv-x="1509" d="M199 346q0 92 28 205l189 754l-166 45l20 84h553l-20 -84l-191 -45l-188 -754q-29 -119 -29 -174q0 -125 80 -185.5t217 -60.5q156 0 268.5 110.5t161.5 309.5l189 754l-164 45l20 84h486l-21 -84l-190 -45l-189 -754q-70 -283 -232.5 -424t-404.5 -141q-186 0 -301.5 90 t-115.5 270zM698 1599l318 250h172l196 -250l-92 -49l-217 154l-282 -154z" />
<glyph unicode="&#xdc;" horiz-adv-x="1509" d="M199 346q0 92 28 205l189 754l-166 45l20 84h553l-20 -84l-191 -45l-188 -754q-29 -119 -29 -174q0 -125 80 -185.5t217 -60.5q156 0 268.5 110.5t161.5 309.5l189 754l-164 45l20 84h486l-21 -84l-190 -45l-189 -754q-70 -283 -232.5 -424t-404.5 -141q-186 0 -301.5 90 t-115.5 270zM705 1695.5q0 57.5 38.5 95.5t96.5 38q55 0 94 -38t39 -95.5t-39 -96t-94 -38.5q-57 0 -96 38.5t-39 96zM1112 1696q0 55 40 94t95 39q57 0 95 -38t38 -95.5t-37.5 -96t-95.5 -38.5q-55 0 -95 39t-40 96z" />
<glyph unicode="&#xdd;" horiz-adv-x="1259" d="M158 1350l20 84h486l-21 -84l-131 -27l190 -535l418 521l-151 41l20 84h473l-20 -84l-156 -45l-530 -654l-129 -522l180 -45l-21 -84h-550l20 84l172 45l127 512l-246 668zM727 1579l274 244q51 -18 96.5 -63.5t71.5 -98.5l-387 -145z" />
<glyph unicode="&#xde;" horiz-adv-x="1183" d="M-41 0l21 84l188 45l293 1176l-166 45l20 84h553l-20 -84l-191 -45l-45 -183h107q195 0 316.5 -78.5t121.5 -244.5q0 -233 -165 -360.5t-449 -127.5h-133l-45 -182l167 -45l-20 -84h-553zM440 434h115q190 0 292.5 92t102.5 258q0 106 -67.5 163t-192.5 57h-108z" />
<glyph unicode="&#xdf;" horiz-adv-x="1263" d="M18 -14l310 1188q125 479 569 479q166 0 254 -77t88 -192q0 -119 -50 -191.5t-121 -103t-141.5 -54t-120.5 -70.5t-50 -127q0 -47 28.5 -91.5t58 -71t95.5 -75.5q109 -82 155 -148.5t46 -162.5q0 -139 -105.5 -221t-288.5 -82q-170 0 -268 51t-98 127q0 57 33.5 94 t103.5 78q10 -18 33.5 -59t34 -58.5t30 -47.5t34 -43t34.5 -28.5t41.5 -21.5t48.5 -6q74 0 132.5 40t58.5 115q0 66 -39 119t-94.5 92t-111.5 81t-95 108.5t-39 150.5q0 86 34.5 145.5t87 88t113 59.5t112.5 59.5t87 86t35 141.5q0 90 -48.5 147.5t-140.5 57.5 q-41 0 -85 -17.5t-95 -61.5t-99 -137.5t-83 -224.5l-291 -1122z" />
<glyph unicode="&#xe0;" horiz-adv-x="1161" d="M49 281q0 315 189.5 536t457.5 221q190 0 334 -94l-207 -803h205v-65q-152 -47 -240 -72q-70 -18 -96 -18q-72 0 -71 61q0 31 14 84l18 74q-172 -219 -377 -219q-98 0 -162.5 71.5t-64.5 223.5zM250 326q0 -199 127 -199q70 0 163 78t162 186l142 543q-43 14 -103 14 q-143 0 -258.5 -97t-174 -237.5t-58.5 -287.5zM379 1464q71 87 192 107l207 -361l-71 -55z" />
<glyph unicode="&#xe1;" horiz-adv-x="1161" d="M49 281q0 315 189.5 536t457.5 221q190 0 334 -94l-207 -803h205v-65q-152 -47 -240 -72q-70 -18 -96 -18q-72 0 -71 61q0 31 14 84l18 74q-172 -219 -377 -219q-98 0 -162.5 71.5t-64.5 223.5zM250 326q0 -199 127 -199q70 0 163 78t162 186l142 543q-43 14 -103 14 q-143 0 -258.5 -97t-174 -237.5t-58.5 -287.5zM678 1210l207 361q125 -23 192 -107l-325 -309z" />
<glyph unicode="&#xe2;" horiz-adv-x="1161" d="M49 281q0 315 189.5 536t457.5 221q190 0 334 -94l-207 -803h205v-65q-152 -47 -240 -72q-70 -18 -96 -18q-72 0 -71 61q0 31 14 84l18 74q-172 -219 -377 -219q-98 0 -162.5 71.5t-64.5 223.5zM250 326q0 -199 127 -199q70 0 163 78t162 186l142 543q-43 14 -103 14 q-143 0 -258.5 -97t-174 -237.5t-58.5 -287.5zM461 1249l317 330h154l145 -340l-80 -49l-168 252l-276 -242z" />
<glyph unicode="&#xe3;" horiz-adv-x="1161" d="M49 281q0 315 189.5 536t457.5 221q190 0 334 -94l-207 -803h205v-65q-152 -47 -240 -72q-70 -18 -96 -18q-72 0 -71 61q0 31 14 84l18 74q-172 -219 -377 -219q-98 0 -162.5 71.5t-64.5 223.5zM250 326q0 -199 127 -199q70 0 163 78t162 186l142 543q-43 14 -103 14 q-143 0 -258.5 -97t-174 -237.5t-58.5 -287.5zM410 1386q14 18 37.5 44t91 69t127.5 43q72 0 147.5 -64.5t122.5 -64.5q74 0 178 82l33 -59q-6 -6 -15.5 -16.5t-40 -38t-60.5 -48t-71.5 -37t-78.5 -16.5q-47 0 -86 20.5t-62.5 44t-56.5 44t-66 20.5q-41 0 -70.5 -15.5 t-97.5 -64.5z" />
<glyph unicode="&#xe4;" horiz-adv-x="1161" d="M49 281q0 315 189.5 536t457.5 221q190 0 334 -94l-207 -803h205v-65q-152 -47 -240 -72q-70 -18 -96 -18q-72 0 -71 61q0 31 14 84l18 74q-172 -219 -377 -219q-98 0 -162.5 71.5t-64.5 223.5zM250 326q0 -199 127 -199q70 0 163 78t162 186l142 543q-43 14 -103 14 q-143 0 -258.5 -97t-174 -237.5t-58.5 -287.5zM449 1419.5q0 57.5 38.5 95t96 37.5t95.5 -37.5t38 -95t-38 -96.5t-95.5 -39t-96 39t-38.5 96.5zM858 1419.5q0 57.5 39 95t96.5 37.5t95 -37.5t37.5 -95t-37.5 -96.5t-95 -39t-96.5 39t-39 96.5z" />
<glyph unicode="&#xe5;" horiz-adv-x="1161" d="M49 281q0 315 189.5 536t457.5 221q190 0 334 -94l-207 -803h205v-65q-152 -47 -240 -72q-70 -18 -96 -18q-72 0 -71 61q0 31 14 84l18 74q-172 -219 -377 -219q-98 0 -162.5 71.5t-64.5 223.5zM250 326q0 -199 127 -199q70 0 163 78t162 186l142 543q-43 14 -103 14 q-143 0 -258.5 -97t-174 -237.5t-58.5 -287.5zM504 1433.5q0 92.5 64.5 158t156.5 65.5t157.5 -65.5t65.5 -158t-65.5 -158t-157.5 -65.5t-156.5 65.5t-64.5 158zM612 1434q0 -45 34 -79t79 -34q47 0 81 34t34 79t-35 78.5t-80 33.5t-79 -33.5t-34 -78.5z" />
<glyph unicode="&#xe6;" horiz-adv-x="1533" d="M16 203q0 178 173 268t462 90q12 41 21 60q31 104 30 170q0 80 -45 126t-129 46q-102 0 -145 -67t-45 -210q-76 0 -131 35t-55 108q2 96 103 152.5t239 56.5q258 0 354 -155q170 156 395 155q115 0 185.5 -52t70.5 -152q0 -119 -97 -205t-244.5 -126t-330.5 -46 q-6 -37 -6 -74q0 -125 57.5 -211t172.5 -86q106 0 252 55l18 -63q-184 -92 -377 -92q-213 0 -289 147q-57 -43 -98 -69.5t-122 -52t-169 -25.5q-117 0 -183.5 62.5t-66.5 154.5zM227 236q0 -53 34 -90t106 -37q141 0 260 102q-12 55 -12.5 120.5t12.5 137.5 q-172 -2 -286 -64.5t-114 -168.5zM844 551q229 29 347 108.5t118 186.5q0 53 -29 85t-76 32q-127 0 -227 -114t-133 -298z" />
<glyph unicode="&#xe7;" horiz-adv-x="946" d="M55 348q0 123 40 244t113 221t187.5 162.5t251.5 62.5q127 0 206 -48t79 -118q0 -61 -50.5 -103t-131.5 -44q-8 31 -19.5 80t-16.5 67.5t-16.5 43t-25 32.5t-35.5 8q-143 0 -257 -170t-114 -421q0 -127 57.5 -203t184.5 -76q100 0 240 53l20 -63q-127 -66 -250 -82 l-37 -78q152 -8 152 -141q0 -115 -96.5 -189.5t-221.5 -74.5q-74 0 -141 20l25 80q27 -8 75 -8q76 0 136.5 32.5t60.5 108.5q0 100 -121 100l72 142h-27q-160 0 -250 94t-90 268z" />
<glyph unicode="&#xe8;" horiz-adv-x="968" d="M49 332q0 98 26.5 197.5t81 190.5t128 161.5t176 113.5t219.5 43q115 0 185.5 -52t70.5 -152q0 -76 -44 -138.5t-107.5 -105.5t-162 -80t-179.5 -58.5t-187 -43.5q-2 -18 -2 -56q0 -266 231 -266q106 0 252 55l21 -63q-184 -92 -377 -92q-332 0 -332 346zM266 487 q469 170 469 367q0 109 -96 109q-123 0 -230.5 -142.5t-142.5 -333.5zM330 1464q71 87 192 107l207 -361l-72 -55z" />
<glyph unicode="&#xe9;" horiz-adv-x="968" d="M49 332q0 98 26.5 197.5t81 190.5t128 161.5t176 113.5t219.5 43q115 0 185.5 -52t70.5 -152q0 -76 -44 -138.5t-107.5 -105.5t-162 -80t-179.5 -58.5t-187 -43.5q-2 -18 -2 -56q0 -266 231 -266q106 0 252 55l21 -63q-184 -92 -377 -92q-332 0 -332 346zM266 487 q469 170 469 367q0 109 -96 109q-123 0 -230.5 -142.5t-142.5 -333.5zM590 1210l207 361q125 -23 192 -107l-325 -309z" />
<glyph unicode="&#xea;" horiz-adv-x="968" d="M49 332q0 98 26.5 197.5t81 190.5t128 161.5t176 113.5t219.5 43q115 0 185.5 -52t70.5 -152q0 -76 -44 -138.5t-107.5 -105.5t-162 -80t-179.5 -58.5t-187 -43.5q-2 -18 -2 -56q0 -266 231 -266q106 0 252 55l21 -63q-184 -92 -377 -92q-332 0 -332 346zM266 487 q469 170 469 367q0 109 -96 109q-123 0 -230.5 -142.5t-142.5 -333.5zM352 1229l318 330h153l146 -340l-80 -50l-168 252l-277 -241z" />
<glyph unicode="&#xeb;" horiz-adv-x="968" d="M49 332q0 98 26.5 197.5t81 190.5t128 161.5t176 113.5t219.5 43q115 0 185.5 -52t70.5 -152q0 -76 -44 -138.5t-107.5 -105.5t-162 -80t-179.5 -58.5t-187 -43.5q-2 -18 -2 -56q0 -266 231 -266q106 0 252 55l21 -63q-184 -92 -377 -92q-332 0 -332 346zM266 487 q469 170 469 367q0 109 -96 109q-123 0 -230.5 -142.5t-142.5 -333.5zM332 1419.5q0 57.5 39 95t96 37.5t95 -37.5t38 -95t-38 -96.5t-95 -39t-96 39t-39 96.5zM741 1419.5q0 57.5 39 95t96.5 37.5t95.5 -37.5t38 -95t-38 -96.5t-95.5 -39t-96.5 39t-39 96.5z" />
<glyph unicode="&#xec;" horiz-adv-x="641" d="M84 1464q71 87 192 107l207 -361l-71 -55zM92 45q0 23 14 84l193 756h-207v63q154 47 242 74q82 16 96 16q74 0 74 -59q0 -27 -17 -84l-188 -756h205v-63q-154 -47 -242 -74q-82 -16 -96 -16q-74 0 -74 59z" />
<glyph unicode="&#xed;" horiz-adv-x="641" d="M92 45q0 23 14 84l193 756h-207v63q154 47 242 74q82 16 96 16q74 0 74 -59q0 -27 -17 -84l-188 -756h205v-63q-154 -47 -242 -74q-82 -16 -96 -16q-74 0 -74 59zM293 1210l207 361q125 -23 192 -107l-325 -309z" />
<glyph unicode="&#xee;" horiz-adv-x="641" d="M47 1249l318 330h153l146 -340l-80 -49l-168 252l-277 -242zM92 45q0 23 14 84l193 756h-207v63q154 47 242 74q82 16 96 16q74 0 74 -59q0 -27 -17 -84l-188 -756h205v-63q-154 -47 -242 -74q-82 -16 -96 -16q-74 0 -74 59z" />
<glyph unicode="&#xef;" horiz-adv-x="641" d="M92 45q0 23 14 84l193 756h-207v63q154 47 242 74q82 16 96 16q74 0 74 -59q0 -27 -17 -84l-188 -756h205v-63q-154 -47 -242 -74q-82 -16 -96 -16q-74 0 -74 59zM104 1419.5q0 57.5 39 95t96.5 37.5t95.5 -37.5t38 -95t-38 -96.5t-95.5 -39t-96.5 39t-39 96.5z M514 1419.5q0 57.5 39 95t96.5 37.5t95 -37.5t37.5 -95t-37.5 -96.5t-95 -39t-96.5 39t-39 96.5z" />
<glyph unicode="&#xf0;" horiz-adv-x="1167" d="M53 381q0 254 198 425t482 171q53 0 109 -6q-8 166 -70 276l-285 -174v139l213 129q-117 111 -321 111l27 100q270 0 430 -127l235 144v-139l-149 -93q127 -166 127 -442q0 -150 -30 -296t-95.5 -290.5t-194.5 -233.5t-303 -89q-172 0 -272.5 107.5t-100.5 287.5z M260 334q0 -131 50 -198.5t136 -67.5q174 0 278.5 238.5t115.5 570.5q-49 4 -68 4q-129 0 -232.5 -53.5t-162 -136.5t-88 -175t-29.5 -182z" />
<glyph unicode="&#xf1;" horiz-adv-x="1224" d="M76 -14l223 897h-205v65q152 47 240 72q70 18 98 18q72 0 72 -61q-1 -31 -15 -84l-32 -127q205 272 411 272q190 0 191 -200q0 -96 -51 -273l-123 -424h205v-65q-152 -47 -240 -72q-70 -18 -98 -18q-72 0 -72 61q0 31 14 84q25 88 52.5 182.5t43 145.5t31 107.5t22.5 84 t14 57t9 48t2 35.5q0 96 -75.5 96t-190.5 -91t-190 -212l-148 -584zM377 1386q14 18 37.5 44t91 69t127.5 43q72 0 147.5 -64.5t122.5 -64.5q74 0 178 82l33 -59q-6 -6 -15 -16.5t-40 -38t-60.5 -48t-71.5 -37t-79 -16.5q-47 0 -86 20.5t-62.5 44t-56.5 44t-65 20.5 q-41 0 -71 -15.5t-97 -64.5z" />
<glyph unicode="&#xf2;" horiz-adv-x="1101" d="M53 360q0 168 73 321t215 255t323 102q168 0 254 -100t86 -276q0 -166 -73 -320t-216.5 -255t-323.5 -101q-168 0 -253 99t-85 275zM260 324q0 -256 156 -256q94 0 170 66.5t120 166.5t66.5 203.5t22.5 193.5q0 258 -156 258q-92 0 -169 -66.5t-120 -166.5t-66.5 -204.5 t-23.5 -194.5zM348 1464q72 87 193 107l207 -361l-72 -55z" />
<glyph unicode="&#xf3;" horiz-adv-x="1101" d="M53 360q0 168 73 321t215 255t323 102q168 0 254 -100t86 -276q0 -166 -73 -320t-216.5 -255t-323.5 -101q-168 0 -253 99t-85 275zM260 324q0 -256 156 -256q94 0 170 66.5t120 166.5t66.5 203.5t22.5 193.5q0 258 -156 258q-92 0 -169 -66.5t-120 -166.5t-66.5 -204.5 t-23.5 -194.5zM647 1210l207 361q125 -23 193 -107l-326 -309z" />
<glyph unicode="&#xf4;" horiz-adv-x="1101" d="M53 360q0 168 73 321t215 255t323 102q168 0 254 -100t86 -276q0 -166 -73 -320t-216.5 -255t-323.5 -101q-168 0 -253 99t-85 275zM260 324q0 -256 156 -256q94 0 170 66.5t120 166.5t66.5 203.5t22.5 193.5q0 258 -156 258q-92 0 -169 -66.5t-120 -166.5t-66.5 -204.5 t-23.5 -194.5zM410 1229l317 330h154l145 -340l-80 -50l-168 252l-276 -241z" />
<glyph unicode="&#xf5;" horiz-adv-x="1101" d="M53 360q0 168 73 321t215 255t323 102q168 0 254 -100t86 -276q0 -166 -73 -320t-216.5 -255t-323.5 -101q-168 0 -253 99t-85 275zM260 324q0 -256 156 -256q94 0 170 66.5t120 166.5t66.5 203.5t22.5 193.5q0 258 -156 258q-92 0 -169 -66.5t-120 -166.5t-66.5 -204.5 t-23.5 -194.5zM309 1346q14 18 38 43.5t91.5 68.5t126.5 43q72 0 148 -64.5t123 -64.5q74 0 178 82l33 -59q-6 -6 -15.5 -16.5t-40 -38t-60.5 -48t-72 -37t-79 -16.5q-47 0 -86 20.5t-62.5 44t-56 44t-65.5 20.5q-41 0 -70.5 -15.5t-97.5 -64.5z" />
<glyph unicode="&#xf6;" horiz-adv-x="1101" d="M53 360q0 168 73 321t215 255t323 102q168 0 254 -100t86 -276q0 -166 -73 -320t-216.5 -255t-323.5 -101q-168 0 -253 99t-85 275zM260 324q0 -256 156 -256q94 0 170 66.5t120 166.5t66.5 203.5t22.5 193.5q0 258 -156 258q-92 0 -169 -66.5t-120 -166.5t-66.5 -204.5 t-23.5 -194.5zM348 1419.5q0 57.5 39 95t96.5 37.5t95 -37.5t37.5 -95t-37.5 -96.5t-95 -39t-96.5 39t-39 96.5zM758 1419.5q0 57.5 39 95t96 37.5t95 -37.5t38 -95t-38 -96.5t-95 -39t-96 39t-39 96.5z" />
<glyph unicode="&#xf7;" horiz-adv-x="1142" d="M143 662v139h920v-139h-920zM467 383q0 57 41 97t96 40q57 0 97 -40t40 -97q0 -55 -39.5 -97t-97.5 -42q-55 0 -96 42t-41 97zM467 1079q0 57 41 98.5t96 41.5q57 0 97 -41t40 -99q0 -55 -39.5 -97t-97.5 -42q-55 0 -96 42t-41 97z" />
<glyph unicode="&#xf8;" horiz-adv-x="1101" d="M53 360q0 168 73 321t215 255t323 102q47 0 81 -8l74 135h115l-92 -168q162 -88 162 -335q0 -166 -73 -320t-216.5 -255t-323.5 -101q-47 0 -98 10l-76 -141h-117l99 178q-145 90 -146 327zM260 324q0 -92 19 -146l419 766q-27 12 -59 12q-92 0 -169 -66.5t-120 -166.5 t-66.5 -204.5t-23.5 -194.5zM344 86q31 -18 72 -18q94 0 170 66.5t120 166.5t66.5 203.5t22.5 193.5q0 102 -27 164z" />
<glyph unicode="&#xf9;" horiz-adv-x="1222" d="M90 883v65q152 47 240 72q70 18 98 18q72 0 72 -61q0 -31 -15 -84q-25 -88 -52 -182.5t-42.5 -145.5t-31 -107.5t-22.5 -84t-14.5 -57t-9.5 -48t-2 -35.5q0 -96 76 -96t190.5 91t190.5 212l147 584l189 14l-223 -897h204v-65q-152 -47 -239 -72q-70 -18 -98 -18 q-72 0 -72 61q0 31 14 84l33 127q-205 -272 -412 -272q-190 0 -190 200q0 96 51 273l123 424h-205zM418 1464q71 87 192 107l207 -361l-72 -55z" />
<glyph unicode="&#xfa;" horiz-adv-x="1222" d="M90 883v65q152 47 240 72q70 18 98 18q72 0 72 -61q0 -31 -15 -84q-25 -88 -52 -182.5t-42.5 -145.5t-31 -107.5t-22.5 -84t-14.5 -57t-9.5 -48t-2 -35.5q0 -96 76 -96t190.5 91t190.5 212l147 584l189 14l-223 -897h204v-65q-152 -47 -239 -72q-70 -18 -98 -18 q-72 0 -72 61q0 31 14 84l33 127q-205 -272 -412 -272q-190 0 -190 200q0 96 51 273l123 424h-205zM629 1210l207 361q125 -23 192 -107l-326 -309z" />
<glyph unicode="&#xfb;" horiz-adv-x="1222" d="M90 883v65q152 47 240 72q70 18 98 18q72 0 72 -61q0 -31 -15 -84q-25 -88 -52 -182.5t-42.5 -145.5t-31 -107.5t-22.5 -84t-14.5 -57t-9.5 -48t-2 -35.5q0 -96 76 -96t190.5 91t190.5 212l147 584l189 14l-223 -897h204v-65q-152 -47 -239 -72q-70 -18 -98 -18 q-72 0 -72 61q0 31 14 84l33 127q-205 -272 -412 -272q-190 0 -190 200q0 96 51 273l123 424h-205zM420 1249l317 330h154l145 -340l-80 -49l-168 252l-276 -242z" />
<glyph unicode="&#xfc;" horiz-adv-x="1222" d="M90 883v65q152 47 240 72q70 18 98 18q72 0 72 -61q0 -31 -15 -84q-25 -88 -52 -182.5t-42.5 -145.5t-31 -107.5t-22.5 -84t-14.5 -57t-9.5 -48t-2 -35.5q0 -96 76 -96t190.5 91t190.5 212l147 584l189 14l-223 -897h204v-65q-152 -47 -239 -72q-70 -18 -98 -18 q-72 0 -72 61q0 31 14 84l33 127q-205 -272 -412 -272q-190 0 -190 200q0 96 51 273l123 424h-205zM389 1419.5q0 57.5 39 95t96.5 37.5t95 -37.5t37.5 -95t-37.5 -96.5t-95 -39t-96.5 39t-39 96.5zM799 1419.5q0 57.5 39 95t96 37.5t95 -37.5t38 -95t-38 -96.5t-95 -39 t-96 39t-39 96.5z" />
<glyph unicode="&#xfd;" horiz-adv-x="1112" d="M0 -502q0 47 31.5 98.5t73.5 92.5t135.5 131t165.5 166l-160 897h-205v65l182 66q70 25 109 24q68 0 78 -61l149 -819l16 18q178 215 246 350.5t68 239.5q0 35 -19.5 65.5t-44 52t-84.5 66.5q76 88 183 88q57 0 100 -34.5t43 -108.5q0 -272 -424 -784 q-84 -100 -166 -194.5t-122 -137.5t-73.5 -85t-44 -66.5t-10.5 -51.5q0 -55 52 -111q-72 -80 -160 -79q-47 0 -83 27.5t-36 84.5zM551 1210l207 361q125 -23 192 -107l-325 -309z" />
<glyph unicode="&#xfe;" horiz-adv-x="1118" d="M-141 -614l186 694l365 1417h-205v66q152 47 239 71q70 18 97 19q72 0 71 -62q0 -31 -14 -84l-180 -692q180 223 381 223q98 0 162.5 -71.5t64.5 -223.5q0 -315 -189.5 -536t-457.5 -221q-90 0 -170 20l-154 -590zM231 90q43 -14 103 -14q143 0 259 97t174 237.5 t58 287.5q0 199 -127 199q-72 0 -165 -80t-162 -188z" />
<glyph unicode="&#xff;" horiz-adv-x="1112" d="M0 -502q0 47 31.5 98.5t73.5 92.5t135.5 131t165.5 166l-160 897h-205v65l182 66q70 25 109 24q68 0 78 -61l149 -819l16 18q178 215 246 350.5t68 239.5q0 35 -19.5 65.5t-44 52t-84.5 66.5q76 88 183 88q57 0 100 -34.5t43 -108.5q0 -272 -424 -784 q-84 -100 -166 -194.5t-122 -137.5t-73.5 -85t-44 -66.5t-10.5 -51.5q0 -55 52 -111q-72 -80 -160 -79q-47 0 -83 27.5t-36 84.5zM381 1419.5q0 57.5 39 95t96 37.5t95 -37.5t38 -95t-38 -96.5t-95 -39t-96 39t-39 96.5zM791 1419.5q0 57.5 38.5 95t96 37.5t95.5 -37.5 t38 -95t-38 -96.5t-95.5 -39t-96 39t-38.5 96.5z" />
<glyph unicode="&#x152;" horiz-adv-x="2076" d="M111 477q0 248 96 466t290.5 360.5t446.5 142.5q262 0 354 -232l56 220h776l-105 -420h-77l-13 293h-413l-133 -527l415 41l-41 -172l-397 37l-139 -559h411l224 315h77l-165 -442h-777l56 223q-182 -237 -473 -237q-240 0 -354.5 136t-114.5 355zM319 436 q0 -340 287 -340q143 0 263 95.5t192 238.5t110.5 292.5t38.5 274.5q0 338 -286 338q-143 0 -263 -95t-192 -237.5t-111 -292t-39 -274.5z" />
<glyph unicode="&#x153;" horiz-adv-x="1683" d="M53 360q0 168 73 321t215 255t323 102q229 0 305 -186q180 186 426 186q115 0 185.5 -52t70.5 -152q0 -76 -44 -138.5t-107.5 -105.5t-162 -80t-179.5 -58.5t-187 -43.5q-2 -18 -2 -56q0 -266 231 -266q106 0 252 55l21 -63q-184 -92 -377 -92q-227 0 -301 168 q-168 -168 -404 -168q-168 0 -253 99t-85 275zM260 324q0 -256 156 -256q94 0 170 66.5t120 166.5t66.5 203.5t22.5 193.5q0 258 -156 258q-92 0 -169 -66.5t-120 -166.5t-66.5 -204.5t-23.5 -194.5zM981 487q469 170 469 367q0 107 -96 107q-115 0 -215.5 -122t-145.5 -296 z" />
<glyph unicode="&#x178;" horiz-adv-x="1259" d="M539 1707.5q0 57.5 39 95t96.5 37.5t95.5 -37.5t38 -95t-38 -96.5t-95.5 -39t-96.5 39t-39 96.5zM949 1707.5q0 57.5 39 95t96.5 37.5t95 -37.5t37.5 -95t-37.5 -96.5t-95 -39t-96.5 39t-39 96.5zM158 1350l20 84h486l-21 -84l-131 -27l190 -535l418 521l-151 41l20 84 h473l-20 -84l-156 -45l-530 -654l-129 -522l180 -45l-21 -84h-550l20 84l172 45l127 512l-246 668z" />
<glyph unicode="&#x2c6;" horiz-adv-x="634" d="M-14 1249l317 330h154l145 -340l-80 -49l-168 252l-276 -242z" />
<glyph unicode="&#x2dc;" horiz-adv-x="727" d="M29 1386q14 18 37.5 44t91 69t127.5 43q72 0 147.5 -64.5t122.5 -64.5q74 0 178 82l33 -59q-6 -6 -15.5 -16.5t-40 -38t-60 -48t-71.5 -37t-79 -16.5q-47 0 -86 20.5t-62.5 44t-56.5 44t-66 20.5q-41 0 -70.5 -15.5t-97.5 -64.5z" />
<glyph unicode="&#x2000;" horiz-adv-x="929" />
<glyph unicode="&#x2001;" horiz-adv-x="1858" />
<glyph unicode="&#x2002;" horiz-adv-x="929" />
<glyph unicode="&#x2003;" horiz-adv-x="1858" />
<glyph unicode="&#x2004;" horiz-adv-x="619" />
<glyph unicode="&#x2005;" horiz-adv-x="464" />
<glyph unicode="&#x2006;" horiz-adv-x="309" />
<glyph unicode="&#x2007;" horiz-adv-x="309" />
<glyph unicode="&#x2008;" horiz-adv-x="232" />
<glyph unicode="&#x2009;" horiz-adv-x="371" />
<glyph unicode="&#x200a;" horiz-adv-x="103" />
<glyph unicode="&#x2010;" horiz-adv-x="753" d="M143 481v158h449v-158h-449z" />
<glyph unicode="&#x2011;" horiz-adv-x="753" d="M143 481v158h449v-158h-449z" />
<glyph unicode="&#x2012;" horiz-adv-x="753" d="M143 481v158h449v-158h-449z" />
<glyph unicode="&#x2013;" horiz-adv-x="1343" d="M147 494v131h1045v-131h-1045z" />
<glyph unicode="&#x2014;" horiz-adv-x="2367" d="M147 494v131h2069v-131h-2069z" />
<glyph unicode="&#x2018;" horiz-adv-x="475" d="M197 1042q0 183 381 474l49 -60q-145 -123 -240 -287l98 -96q-16 -66 -60 -106.5t-103 -40.5q-55 0 -90 30.5t-35 85.5z" />
<glyph unicode="&#x2019;" horiz-adv-x="483" d="M162 930q145 123 239 287l-98 96q16 66 60.5 106.5t103.5 40.5q55 0 90 -30.5t35 -86.5q0 -182 -381 -473z" />
<glyph unicode="&#x201a;" horiz-adv-x="473" d="M-168 -291q145 123 240 287l-99 96q16 66 60.5 107t103.5 41q55 0 90 -31t35 -86q0 -182 -381 -473z" />
<glyph unicode="&#x201c;" horiz-adv-x="821" d="M199 1047q0 182 381 473l49 -60q-145 -123 -240 -286l98 -97q-16 -66 -60 -106.5t-103 -40.5q-55 0 -90 30.5t-35 86.5zM545 1047q0 182 381 473l49 -60q-145 -123 -240 -286l99 -97q-16 -66 -60.5 -106.5t-103.5 -40.5q-55 0 -90 30.5t-35 86.5z" />
<glyph unicode="&#x201d;" horiz-adv-x="829" d="M162 930q145 123 239 287l-98 96q16 66 60.5 106.5t103.5 40.5q55 0 90 -30.5t35 -86.5q0 -182 -381 -473zM508 930q145 123 240 287l-99 96q16 66 60.5 106.5t103.5 40.5q55 0 90 -30.5t35 -86.5q0 -182 -381 -473z" />
<glyph unicode="&#x201e;" horiz-adv-x="841" d="M-168 -291q145 123 240 287l-99 96q16 66 60.5 107t103.5 41q55 0 90 -31t35 -86q0 -182 -381 -473zM201 -291q145 123 239 287l-98 96q16 66 60 107t104 41q55 0 90 -31t35 -86q0 -182 -381 -473z" />
<glyph unicode="&#x2022;" horiz-adv-x="946" d="M193 731q0 125 90 216t217 91t217 -91t90 -216t-90 -216t-217 -91t-217 91t-90 216z" />
<glyph unicode="&#x2026;" horiz-adv-x="1419" d="M936 125q0 57 41 96t98 39t97 -39t40 -96t-40 -98t-97 -41t-98 41t-41 98zM463 125q0 57 41 96t98 39t97 -39t40 -96t-40 -98t-97 -41t-98 41t-41 98zM-10 125q0 57 41 96t98 39t97 -39t40 -96t-40 -98t-97 -41t-98 41t-41 98z" />
<glyph unicode="&#x202f;" horiz-adv-x="371" />
<glyph unicode="&#x2039;" horiz-adv-x="612" d="M82 520l16 66l385 356h97l-293 -389l98 -389h-96z" />
<glyph unicode="&#x203a;" horiz-adv-x="614" d="M10 164l293 389l-98 389h96l207 -356l-16 -66l-386 -356h-96z" />
<glyph unicode="&#x205f;" horiz-adv-x="464" />
<glyph unicode="&#x20ac;" horiz-adv-x="1390" d="M74 498l22 86l142 8l45 196h-138l23 86l147 9q102 276 306 421.5t493 145.5q186 0 330 -82l-107 -377h-82v314q-96 18 -176 18q-387 0 -555 -428l533 31l-53 -138h-517q-29 -96 -43 -184l506 31l-53 -137h-467v-43q0 -342 309 -342q92 0 183 18l235 332h78l-145 -377 q-193 -100 -381 -100q-236 0 -360 113.5t-124 334.5q0 41 2 64h-153z" />
<glyph unicode="&#x2122;" horiz-adv-x="3135" d="M1134 0l21 84l194 47l359 1176l-160 43l20 84h369l164 -1090l692 1090h401l-20 -84l-182 -43l-232 -1178l176 -45l-20 -84h-555l20 84l181 43l202 1022l-739 -1159h-63l-175 1161l-305 -1024l162 -43l-20 -84h-490zM164 999l108 435h1086l-109 -435h-78l-10 308h-276 l-295 -1178l166 -45l-21 -84h-553l21 84l188 45l295 1178h-278l-164 -308h-80z" />
<glyph unicode="&#xe000;" horiz-adv-x="1040" d="M0 1040h1040v-1040h-1040v1040z" />
<glyph unicode="&#xfb01;" horiz-adv-x="1353" d="M804 45q0 33 14 84l193 756h-207v63q154 47 242 74q82 16 96 16q74 0 74 -59q0 -27 -17 -84l-188 -756h205v-63q-154 -47 -242 -74q-82 -16 -96 -16q-74 0 -74 59zM1052 1319q0 55 39 93t94 38t93 -38t38 -93q0 -57 -38 -95t-93 -38t-94 38t-39 95zM-629 -453 q0 98 156 183q8 -23 26.5 -74t25.5 -68.5t24.5 -50.5t32 -44t39 -22.5t55.5 -11.5q96 0 179 104.5t130 301.5l256 1055h-152l17 67l153 12l43 175q63 254 217 366.5t349 112.5q331 0 331 -169q0 -103 -147 -171q-10 20 -29.5 63t-28 58.5t-23.5 44t-26.5 38t-28 23.5 t-36 18.5t-41.5 4.5q-254 -1 -363 -441l-26 -108l299 24l-31 -118h-291l-258 -1059q-119 -492 -538 -492q-141 0 -227.5 49.5t-86.5 128.5z" />
<glyph unicode="&#xfb02;" horiz-adv-x="1318" d="M771 45q1 27 17 84l340 1368h-205v66q150 47 240 71q66 18 98 19q72 0 72 -62q0 -25 -17 -84l-340 -1368h205v-63q-152 -47 -240 -74q-76 -16 -98 -16q-72 0 -72 59zM-629 -453q0 98 156 183q8 -23 26.5 -74t25.5 -68.5t24.5 -50.5t32 -44t39 -22.5t55.5 -11.5 q96 0 179 104.5t130 301.5l256 1055h-152l17 67l153 12l43 175q63 254 217 366.5t349 112.5q331 0 331 -169q0 -103 -147 -171q-10 20 -29.5 63t-28 58.5t-23.5 44t-26.5 38t-28 23.5t-36 18.5t-41.5 4.5q-254 -1 -363 -441l-26 -108l299 24l-31 -118h-291l-258 -1059 q-119 -492 -538 -492q-141 0 -227.5 49.5t-86.5 128.5z" />
<glyph unicode="&#xfb03;" horiz-adv-x="2065" d="M1516 45q0 33 14 84l193 756h-207v63q154 47 242 74q82 16 96 16q74 0 74 -59q0 -27 -17 -84l-188 -756h205v-63q-154 -47 -242 -74q-82 -16 -96 -16q-74 0 -74 59zM1764 1319q0 55 39 93t94 38t93 -38t38 -93q0 -57 -38 -95t-93 -38t-94 38t-39 95zM83 -453 q0 98 156 183q8 -23 26.5 -74t25.5 -68.5t24.5 -50.5t32 -44t39 -22.5t55.5 -11.5q96 0 179 104.5t130 301.5l256 1055h-152l17 67l153 12l43 175q63 254 217 366.5t349 112.5q331 0 331 -169q0 -103 -147 -171q-10 20 -29.5 63t-28 58.5t-23.5 44t-26.5 38t-28 23.5 t-36 18.5t-41.5 4.5q-254 -1 -363 -441l-26 -108l299 24l-31 -118h-291l-258 -1059q-119 -492 -538 -492q-141 0 -227.5 49.5t-86.5 128.5zM-629 -453q0 98 156 183q8 -23 26.5 -74t25.5 -68.5t24.5 -50.5t32 -44t39 -22.5t55.5 -11.5q96 0 179 104.5t130 301.5l256 1055 h-152l17 67l153 12l43 175q63 254 217 366.5t349 112.5q331 0 331 -169q0 -103 -147 -171q-10 20 -29.5 63t-28 58.5t-23.5 44t-26.5 38t-28 23.5t-36 18.5t-41.5 4.5q-254 -1 -363 -441l-26 -108l299 24l-31 -118h-291l-258 -1059q-119 -492 -538 -492q-141 0 -227.5 49.5 t-86.5 128.5z" />
<glyph unicode="&#xfb04;" horiz-adv-x="2030" d="M1483 45q1 27 17 84l340 1368h-205v66q150 47 240 71q66 18 98 19q72 0 72 -62q0 -25 -17 -84l-340 -1368h205v-63q-152 -47 -240 -74q-76 -16 -98 -16q-72 0 -72 59zM83 -453q0 98 156 183q8 -23 26.5 -74t25.5 -68.5t24.5 -50.5t32 -44t39 -22.5t55.5 -11.5 q96 0 179 104.5t130 301.5l256 1055h-152l17 67l153 12l43 175q63 254 217 366.5t349 112.5q331 0 331 -169q0 -103 -147 -171q-10 20 -29.5 63t-28 58.5t-23.5 44t-26.5 38t-28 23.5t-36 18.5t-41.5 4.5q-254 -1 -363 -441l-26 -108l299 24l-31 -118h-291l-258 -1059 q-119 -492 -538 -492q-141 0 -227.5 49.5t-86.5 128.5zM-629 -453q0 98 156 183q8 -23 26.5 -74t25.5 -68.5t24.5 -50.5t32 -44t39 -22.5t55.5 -11.5q96 0 179 104.5t130 301.5l256 1055h-152l17 67l153 12l43 175q63 254 217 366.5t349 112.5q331 0 331 -169 q0 -103 -147 -171q-10 20 -29.5 63t-28 58.5t-23.5 44t-26.5 38t-28 23.5t-36 18.5t-41.5 4.5q-254 -1 -363 -441l-26 -108l299 24l-31 -118h-291l-258 -1059q-119 -492 -538 -492q-141 0 -227.5 49.5t-86.5 128.5z" />
</font>
</defs>
</svg>
